<?xml version="1.0" encoding="utf-8"?>
<!-- Generator: Adobe Illustrator 23.0.3, SVG Export Plug-In . SVG Version: 6.00 Build 0)  -->
<svg version="1.1" id="Layer_1" xmlns="http://www.w3.org/2000/svg" xmlns:xlink="http://www.w3.org/1999/xlink" x="0px" y="0px"
	 viewBox="0 0 1280 1024" style="enable-background:new 0 0 1280 1024;" xml:space="preserve">
<style type="text/css">
	.st0{clip-path:url(#SVGID_2_);enable-background:new    ;}
	.st1{clip-path:url(#SVGID_4_);}
	.st2{clip-path:url(#SVGID_6_);}
	.st3{opacity:0;clip-path:url(#SVGID_8_);}
	.st4{opacity:0;}
	.st5{clip-path:url(#SVGID_10_);}
	.st6{clip-path:url(#SVGID_12_);}
	.st7{clip-path:url(#SVGID_14_);}
	.st8{opacity:0;clip-path:url(#SVGID_16_);}
	.st9{clip-path:url(#SVGID_18_);}
	.st10{clip-path:url(#SVGID_20_);}
	.st11{clip-path:url(#SVGID_22_);}
	.st12{opacity:0;clip-path:url(#SVGID_24_);}
	.st13{clip-path:url(#SVGID_26_);}
	.st14{clip-path:url(#SVGID_28_);}
	.st15{clip-path:url(#SVGID_30_);}
	.st16{opacity:0;clip-path:url(#SVGID_32_);}
	.st17{clip-path:url(#SVGID_34_);}
	.st18{clip-path:url(#SVGID_36_);}
	.st19{clip-path:url(#SVGID_38_);}
	.st20{opacity:0;clip-path:url(#SVGID_40_);}
	.st21{clip-path:url(#SVGID_42_);}
	.st22{clip-path:url(#SVGID_44_);}
	.st23{clip-path:url(#SVGID_46_);}
	.st24{opacity:0;clip-path:url(#SVGID_48_);}
	.st25{clip-path:url(#SVGID_50_);}
	.st26{clip-path:url(#SVGID_52_);}
	.st27{clip-path:url(#SVGID_54_);}
	.st28{opacity:0;clip-path:url(#SVGID_56_);}
	.st29{clip-path:url(#SVGID_58_);}
	.st30{clip-path:url(#SVGID_60_);}
	.st31{clip-path:url(#SVGID_62_);}
	.st32{opacity:0;clip-path:url(#SVGID_64_);}
	.st33{clip-path:url(#SVGID_66_);}
	.st34{clip-path:url(#SVGID_68_);}
	.st35{clip-path:url(#SVGID_70_);}
	.st36{clip-path:url(#SVGID_72_);fill:#FFFFFF;}
	.st37{opacity:0;clip-path:url(#SVGID_74_);}
	.st38{clip-path:url(#SVGID_76_);}
	.st39{clip-path:url(#SVGID_78_);}
	.st40{clip-path:url(#SVGID_80_);}
	.st41{opacity:0;clip-path:url(#SVGID_82_);}
	.st42{clip-path:url(#SVGID_84_);}
	.st43{clip-path:url(#SVGID_86_);}
	.st44{clip-path:url(#SVGID_88_);}
	.st45{clip-path:url(#SVGID_90_);fill:#00ACCD;}
</style>
<g>
	<g>
		<defs>
			<rect id="SVGID_1_" x="449" y="283" width="382.1" height="457.5"/>
		</defs>
		<clipPath id="SVGID_2_">
			<use xlink:href="#SVGID_1_"  style="overflow:visible;"/>
		</clipPath>
		<g class="st0">
			<g>
				<g>
					<defs>
						<rect id="SVGID_3_" x="448" y="283" width="384" height="458"/>
					</defs>
					<clipPath id="SVGID_4_">
						<use xlink:href="#SVGID_3_"  style="overflow:visible;"/>
					</clipPath>
					<g class="st1">
						<g>
							<defs>
								<path id="SVGID_5_" d="M737.3,470.6c51.7,0,93.8-42.1,93.8-93.8c0-51.7-42.1-93.8-93.8-93.8c-44.5,0-82,31.2-91.5,72.9
									c-16.5-14.3-38-23-61.5-23c-51.7,0-93.8,42.1-93.8,93.8s42.1,93.8,93.8,93.8c1.6,0,3.1,0,4.7-0.1c-5.2,11.6-8,24.5-8,38
									c0,0.9,0,1.8,0,2.7c-11.7-5.2-24.6-8.1-38.2-8.1c-51.7,0-93.8,42.1-93.8,93.8c0,51.7,42.1,93.8,93.8,93.8
									c51.7,0,93.8-42.1,93.8-93.8c0-0.9,0-1.8,0-2.7c11.7,5.2,24.6,8.1,38.2,8.1c51.7,0,93.8-42.1,93.8-93.8
									s-42.1-93.8-93.8-93.8c-1.6,0-3.1,0-4.7,0.1c2.4-5.5,4.3-11.2,5.7-17.1C692.3,461.9,713.8,470.6,737.3,470.6 M737.3,293
									c46.2,0,83.8,37.6,83.8,83.8s-37.6,83.8-83.8,83.8c-23.3,0-44.4-9.5-59.5-24.9c0.3-3,0.4-5.9,0.4-9c0-23.9-9-45.7-23.8-62.3
									C660.4,324.1,695.3,293,737.3,293 M668.1,424c-8.7-12.8-14-28-14.5-44.5C662.3,392.3,667.5,407.6,668.1,424 M626.6,646.8
									c0,46.2-37.6,83.8-83.8,83.8S459,693,459,646.8s37.6-83.8,83.8-83.8c14.2,0,27.5,3.5,39.2,9.8c4.3,27.9,20.9,51.8,44.2,65.9
									C626.5,641.3,626.6,644,626.6,646.8 M593.9,580.4c14.3,11,24.9,26.5,29.8,44.4C609.4,613.8,598.8,598.3,593.9,580.4
									 M674.8,474.6c46.2,0,83.8,37.6,83.8,83.8s-37.6,83.8-83.8,83.8c-14.2,0-27.5-3.5-39.2-9.8c-4.3-27.9-20.9-51.8-44.2-65.9
									c-0.3-2.7-0.4-5.4-0.4-8.1c0-14.2,3.6-27.6,9.8-39.3c27-4.8,50.1-21.2,63.8-43.8C667.9,474.9,671.3,474.6,674.8,474.6
									 M608.7,506.9c10.5-13.4,25-23.6,41.6-28.7C639.9,491.7,625.4,501.8,608.7,506.9 M594.5,509.9c-3.3,0.4-6.7,0.6-10.2,0.6
									c-46.2,0-83.8-37.6-83.8-83.8s37.6-83.8,83.8-83.8c23.3,0,44.4,9.5,59.6,24.9c-0.3,3-0.4,5.9-0.4,9c0,23.9,9,45.7,23.8,62.3
									c-1.4,9.6-4.5,18.7-8.9,26.9C631.3,470.9,608.3,487.3,594.5,509.9"/>
							</defs>
							<clipPath id="SVGID_6_">
								<use xlink:href="#SVGID_5_"  style="overflow:visible;"/>
							</clipPath>
							<g class="st2">
								<g>
									<defs>
										<rect id="SVGID_7_" x="449" y="283" width="383" height="458"/>
									</defs>
									<clipPath id="SVGID_8_">
										<use xlink:href="#SVGID_7_"  style="overflow:visible;"/>
									</clipPath>
									<g class="st3">
										<g class="st4">
											<g>
												<g>
													<defs>
														<rect id="SVGID_9_" x="449" y="283" width="383" height="458"/>
													</defs>
													<clipPath id="SVGID_10_">
														<use xlink:href="#SVGID_9_"  style="overflow:visible;"/>
													</clipPath>
													<g transform="matrix(1 0 0 1 0 1.525879e-05)" class="st5">
														
															<image style="overflow:visible;enable-background:new    ;" width="1604" height="1917" xlink:href="1249EA05067BB02C.jpg"  transform="matrix(0.239 0 0 0.239 448.88 283.0039)">
														</image>
													</g>
												</g>
											</g>
										</g>
									</g>
								</g>
								<g>
									<defs>
										<rect id="SVGID_11_" x="449" y="283" width="383" height="458"/>
									</defs>
									<clipPath id="SVGID_12_">
										<use xlink:href="#SVGID_11_"  style="overflow:visible;"/>
									</clipPath>
									<g class="st6">
										<g>
											<g>
												<defs>
													<rect id="SVGID_13_" x="449" y="283" width="383" height="458"/>
												</defs>
												<clipPath id="SVGID_14_">
													<use xlink:href="#SVGID_13_"  style="overflow:visible;"/>
												</clipPath>
												<g transform="matrix(1 0 0 1 0 1.525879e-05)" class="st7">
													
														<image style="overflow:visible;enable-background:new    ;" width="1604" height="1917" xlink:href="1249EA05067BB02D.jpg"  transform="matrix(0.239 0 0 0.239 448.88 283.0039)">
													</image>
												</g>
											</g>
										</g>
									</g>
								</g>
							</g>
						</g>
					</g>
				</g>
			</g>
		</g>
	</g>
</g>
<g>
	<g>
		<defs>
			<path id="SVGID_15_" d="M586.4,630.8l-2-1l0,0c-7.2-3.3-14.9-5-22.9-5.2c-1.4,0-2.8,0-4.3,0.2l-21.8-12.6c-1.6-0.9-3.6-0.7-5,0.5
				c-1.4,1.2-1.8,3.2-1.1,4.9l5.8,13.6c-9.2,4.1-17.3,9.1-22.8,12.8c-1.2-2-2.7-3.9-4.6-5.8c-7.1-6.8-21-9-28.1-8.5l-3.5,0.3
				l0.3,3.5c0.6,7.3,6.1,18.6,11.5,23.7c0.3,0.3,0.7,0.6,1.1,0.9c-7.6,4.4-14.2,13.2-16.7,18.7l-1.4,3.2l3.2,1.4
				c6.7,3,19.2,3.5,26.4,1.2c4.6-1.5,8.4-4.2,10.9-7.8c8.7,6.1,18.7,11.3,28.6,15l-3.6,10.3c-0.7,2,0,4.3,1.7,5.6c0.9,0.7,2,1,3.1,1
				c1,0,2-0.3,2.8-0.9l16.6-11.2c8.7,0.1,17.1-1.5,24.9-4.9l0.1,0l1.9-0.9c9.8-4.6,19-12.2,27.4-22.5c0.3-0.3,0.5-0.7,0.7-1
				c1.2-2.1,1.3-4.6,0.4-6.8c-0.2-0.4-0.3-0.7-0.6-1.1c-2-3.1-4.2-6.1-6.4-8.8c-1.1-1.4-2.3-2.7-3.5-4
				C599.5,639.1,593.2,634.2,586.4,630.8 M560.4,688l-1.7-0.2l-13.8,9.3l3.9-11.4l-3.4-1.1c-11.4-3.8-23.5-10.1-33.2-17.4l-3.6-2.8
				l-1.7,4.2c-1.4,3.5-4.6,6.3-8.8,7.6c-4.4,1.4-12.1,1.4-17.7,0.2c3.6-5.6,9.7-11.7,14.7-13.3c0.8-0.3,1.6-0.5,2.4-0.7l12.6-2.5
				l-12.1-4.2c-2-0.7-3.9-1.9-5.5-3.4c-3.4-3.2-7-10-8.6-15.4c6.6,0.5,14.9,2.9,18.7,6.6c2.3,2.2,3.9,4.6,4.6,7l1.4,4.8l4-2.9
				c5.3-3.8,16.1-11,28.2-15.9l3.3-1.3l-5.4-12.7l16.9,9.7l1.2-0.1c1.6-0.2,3.1-0.3,4.5-0.2c6,0.1,11.7,1.2,17.2,3.3
				c-6.2,6.7-9.7,15.4-9.7,24.7c0,9.5,3.8,18.7,10.4,25.4C573.3,687.1,567,688.2,560.4,688 M609.3,662.4c-0.8,1-1.7,2-2.6,3
				c-0.1,0.1-0.1,0.2-0.2,0.3c-0.8,0.9-1.7,1.8-2.5,2.7c-0.1,0.1-0.2,0.2-0.4,0.4c-0.8,0.8-1.6,1.6-2.5,2.4
				c-0.1,0.1-0.3,0.3-0.4,0.4c-0.8,0.8-1.6,1.5-2.5,2.2c-0.1,0.1-0.3,0.2-0.4,0.3c-0.8,0.7-1.7,1.4-2.5,2c-0.1,0.1-0.2,0.2-0.4,0.3
				c-0.9,0.7-1.8,1.3-2.6,1.9c-0.1,0.1-0.2,0.1-0.2,0.2c-0.9,0.6-1.8,1.2-2.8,1.8c0,0,0,0,0,0c-0.9,0.6-1.9,1.1-2.8,1.6
				c-0.1,0-0.1,0.1-0.2,0.1c-6.6-5.5-10.4-13.7-10.4-22.4c0-8.3,3.4-16,9.5-21.5c0.4,0.2,0.8,0.5,1.3,0.7c0.1,0.1,0.3,0.2,0.4,0.2
				c0.6,0.3,1.2,0.7,1.7,1.1c0.1,0.1,0.3,0.2,0.4,0.3c0.4,0.3,0.9,0.6,1.3,0.9c0.2,0.2,0.4,0.3,0.6,0.5c0.3,0.3,0.7,0.5,1,0.8
				c0.2,0.2,0.5,0.4,0.7,0.5c0.3,0.2,0.6,0.5,1,0.8c0.2,0.2,0.5,0.4,0.7,0.6c0.3,0.3,0.6,0.5,0.9,0.8c0.2,0.2,0.5,0.4,0.7,0.6
				c0.3,0.3,0.6,0.5,0.9,0.8c0.2,0.2,0.5,0.5,0.7,0.7c0.3,0.3,0.6,0.6,0.9,0.8c0.2,0.2,0.5,0.5,0.7,0.7c0.3,0.3,0.6,0.6,0.8,0.9
				c0.2,0.2,0.5,0.5,0.7,0.8c0.3,0.3,0.5,0.6,0.8,0.9c0.2,0.3,0.5,0.5,0.7,0.8c0.3,0.3,0.5,0.7,0.8,1c0.2,0.3,0.4,0.5,0.7,0.8
				c0.3,0.3,0.5,0.7,0.8,1c0.2,0.3,0.4,0.5,0.6,0.8c0.3,0.4,0.6,0.8,0.9,1.1c0.2,0.3,0.4,0.5,0.6,0.8c0.3,0.4,0.6,0.9,0.9,1.3
				c0.1,0.2,0.3,0.4,0.5,0.7c0.5,0.7,0.9,1.3,1.4,2C609.4,662,609.4,662.2,609.3,662.4"/>
		</defs>
		<clipPath id="SVGID_16_">
			<use xlink:href="#SVGID_15_"  style="overflow:visible;"/>
		</clipPath>
		<g class="st8">
			<g class="st4">
				<g>
					<g>
						<defs>
							<rect id="SVGID_17_" x="470.8" y="611.4" width="145.9" height="95.7"/>
						</defs>
						<clipPath id="SVGID_18_">
							<use xlink:href="#SVGID_17_"  style="overflow:visible;"/>
						</clipPath>
						<g class="st9">
							
								<image style="overflow:visible;enable-background:new    ;" width="613" height="404" xlink:href="1249EA05067BB02B.jpg"  transform="matrix(0.2376 0 0 0.2376 470.9683 611.28)">
							</image>
						</g>
					</g>
				</g>
			</g>
		</g>
	</g>
	<g>
		<defs>
			<path id="SVGID_19_" d="M586.4,630.8l-2-1l0,0c-7.2-3.3-14.9-5-22.9-5.2c-1.4,0-2.8,0-4.3,0.2l-21.8-12.6c-1.6-0.9-3.6-0.7-5,0.5
				c-1.4,1.2-1.8,3.2-1.1,4.9l5.8,13.6c-9.2,4.1-17.3,9.1-22.8,12.8c-1.2-2-2.7-3.9-4.6-5.8c-7.1-6.8-21-9-28.1-8.5l-3.5,0.3
				l0.3,3.5c0.6,7.3,6.1,18.6,11.5,23.7c0.3,0.3,0.7,0.6,1.1,0.9c-7.6,4.4-14.2,13.2-16.7,18.7l-1.4,3.2l3.2,1.4
				c6.7,3,19.2,3.5,26.4,1.2c4.6-1.5,8.4-4.2,10.9-7.8c8.7,6.1,18.7,11.3,28.6,15l-3.6,10.3c-0.7,2,0,4.3,1.7,5.6c0.9,0.7,2,1,3.1,1
				c1,0,2-0.3,2.8-0.9l16.6-11.2c8.7,0.1,17.1-1.5,24.9-4.9l0.1,0l1.9-0.9c9.8-4.6,19-12.2,27.4-22.5c0.3-0.3,0.5-0.7,0.7-1
				c1.2-2.1,1.3-4.6,0.4-6.8c-0.2-0.4-0.3-0.7-0.6-1.1c-2-3.1-4.2-6.1-6.4-8.8c-1.1-1.4-2.3-2.7-3.5-4
				C599.5,639.1,593.2,634.2,586.4,630.8 M560.4,688l-1.7-0.2l-13.8,9.3l3.9-11.4l-3.4-1.1c-11.4-3.8-23.5-10.1-33.2-17.4l-3.6-2.8
				l-1.7,4.2c-1.4,3.5-4.6,6.3-8.8,7.6c-4.4,1.4-12.1,1.4-17.7,0.2c3.6-5.6,9.7-11.7,14.7-13.3c0.8-0.3,1.6-0.5,2.4-0.7l12.6-2.5
				l-12.1-4.2c-2-0.7-3.9-1.9-5.5-3.4c-3.4-3.2-7-10-8.6-15.4c6.6,0.5,14.9,2.9,18.7,6.6c2.3,2.2,3.9,4.6,4.6,7l1.4,4.8l4-2.9
				c5.3-3.8,16.1-11,28.2-15.9l3.3-1.3l-5.4-12.7l16.9,9.7l1.2-0.1c1.6-0.2,3.1-0.3,4.5-0.2c6,0.1,11.7,1.2,17.2,3.3
				c-6.2,6.7-9.7,15.4-9.7,24.7c0,9.5,3.8,18.7,10.4,25.4C573.3,687.1,567,688.2,560.4,688 M609.3,662.4c-0.8,1-1.7,2-2.6,3
				c-0.1,0.1-0.1,0.2-0.2,0.3c-0.8,0.9-1.7,1.8-2.5,2.7c-0.1,0.1-0.2,0.2-0.4,0.4c-0.8,0.8-1.6,1.6-2.5,2.4
				c-0.1,0.1-0.3,0.3-0.4,0.4c-0.8,0.8-1.6,1.5-2.5,2.2c-0.1,0.1-0.3,0.2-0.4,0.3c-0.8,0.7-1.7,1.4-2.5,2c-0.1,0.1-0.2,0.2-0.4,0.3
				c-0.9,0.7-1.8,1.3-2.6,1.9c-0.1,0.1-0.2,0.1-0.2,0.2c-0.9,0.6-1.8,1.2-2.8,1.8c0,0,0,0,0,0c-0.9,0.6-1.9,1.1-2.8,1.6
				c-0.1,0-0.1,0.1-0.2,0.1c-6.6-5.5-10.4-13.7-10.4-22.4c0-8.3,3.4-16,9.5-21.5c0.4,0.2,0.8,0.5,1.3,0.7c0.1,0.1,0.3,0.2,0.4,0.2
				c0.6,0.3,1.2,0.7,1.7,1.1c0.1,0.1,0.3,0.2,0.4,0.3c0.4,0.3,0.9,0.6,1.3,0.9c0.2,0.2,0.4,0.3,0.6,0.5c0.3,0.3,0.7,0.5,1,0.8
				c0.2,0.2,0.5,0.4,0.7,0.5c0.3,0.2,0.6,0.5,1,0.8c0.2,0.2,0.5,0.4,0.7,0.6c0.3,0.3,0.6,0.5,0.9,0.8c0.2,0.2,0.5,0.4,0.7,0.6
				c0.3,0.3,0.6,0.5,0.9,0.8c0.2,0.2,0.5,0.5,0.7,0.7c0.3,0.3,0.6,0.6,0.9,0.8c0.2,0.2,0.5,0.5,0.7,0.7c0.3,0.3,0.6,0.6,0.8,0.9
				c0.2,0.2,0.5,0.5,0.7,0.8c0.3,0.3,0.5,0.6,0.8,0.9c0.2,0.3,0.5,0.5,0.7,0.8c0.3,0.3,0.5,0.7,0.8,1c0.2,0.3,0.4,0.5,0.7,0.8
				c0.3,0.3,0.5,0.7,0.8,1c0.2,0.3,0.4,0.5,0.6,0.8c0.3,0.4,0.6,0.8,0.9,1.1c0.2,0.3,0.4,0.5,0.6,0.8c0.3,0.4,0.6,0.9,0.9,1.3
				c0.1,0.2,0.3,0.4,0.5,0.7c0.5,0.7,0.9,1.3,1.4,2C609.4,662,609.4,662.2,609.3,662.4"/>
		</defs>
		<clipPath id="SVGID_20_">
			<use xlink:href="#SVGID_19_"  style="overflow:visible;"/>
		</clipPath>
		<g class="st10">
			<g>
				<g>
					<defs>
						<rect id="SVGID_21_" x="470.8" y="611.4" width="145.9" height="95.7"/>
					</defs>
					<clipPath id="SVGID_22_">
						<use xlink:href="#SVGID_21_"  style="overflow:visible;"/>
					</clipPath>
					<g class="st11">
						
							<image style="overflow:visible;enable-background:new    ;" width="613" height="404" xlink:href="1249EA05067BB034.jpg"  transform="matrix(0.2376 0 0 0.2376 470.9683 611.28)">
						</image>
					</g>
				</g>
			</g>
		</g>
	</g>
</g>
<g>
	<g>
		<defs>
			<path id="SVGID_23_" d="M591,647.7c-3.9,0-7.2,3.2-7.2,7.2c0,4,3.2,7.2,7.2,7.2c3.9,0,7.2-3.2,7.2-7.2S595,647.7,591,647.7
				 M591,656c-0.6,0-1.2-0.5-1.2-1.2c0-0.6,0.5-1.2,1.2-1.2c0.6,0,1.2,0.5,1.2,1.2C592.2,655.5,591.7,656,591,656"/>
		</defs>
		<clipPath id="SVGID_24_">
			<use xlink:href="#SVGID_23_"  style="overflow:visible;"/>
		</clipPath>
		<g class="st12">
			<g class="st4">
				<g>
					<g>
						<defs>
							<rect id="SVGID_25_" x="583.9" y="647.7" width="14.3" height="14.3"/>
						</defs>
						<clipPath id="SVGID_26_">
							<use xlink:href="#SVGID_25_"  style="overflow:visible;"/>
						</clipPath>
						<g class="st13">
							
								<image style="overflow:visible;enable-background:new    ;" width="67" height="67" xlink:href="1249EA05067BB037.jpg"  transform="matrix(0.2185 0 0 0.2185 583.76 647.52)">
							</image>
						</g>
					</g>
				</g>
			</g>
		</g>
	</g>
	<g>
		<defs>
			<path id="SVGID_27_" d="M591,647.7c-3.9,0-7.2,3.2-7.2,7.2c0,4,3.2,7.2,7.2,7.2c3.9,0,7.2-3.2,7.2-7.2S595,647.7,591,647.7
				 M591,656c-0.6,0-1.2-0.5-1.2-1.2c0-0.6,0.5-1.2,1.2-1.2c0.6,0,1.2,0.5,1.2,1.2C592.2,655.5,591.7,656,591,656"/>
		</defs>
		<clipPath id="SVGID_28_">
			<use xlink:href="#SVGID_27_"  style="overflow:visible;"/>
		</clipPath>
		<g class="st14">
			<g>
				<g>
					<defs>
						<rect id="SVGID_29_" x="583.9" y="647.7" width="14.3" height="14.3"/>
					</defs>
					<clipPath id="SVGID_30_">
						<use xlink:href="#SVGID_29_"  style="overflow:visible;"/>
					</clipPath>
					<g class="st15">
						
							<image style="overflow:visible;enable-background:new    ;" width="67" height="67" xlink:href="1249EA05067BB035.jpg"  transform="matrix(0.2185 0 0 0.2185 583.76 647.52)">
						</image>
					</g>
				</g>
			</g>
		</g>
	</g>
</g>
<g>
	<g>
		<defs>
			<path id="SVGID_31_" d="M645.6,553.1c0,15,12.2,27.2,27.2,27.2c2.8,0,5.5-0.4,8.2-1.2h5.9v41.1c0,2.8,2.2,5,5,5s5-2.2,5-5v-41.1
				h3.3c2.9,1,6,1.6,9.1,1.6c15,0,27.2-12.2,27.2-27.2c0-10.2-5.8-19.6-14.8-24.2c-1.2-9.2-8.8-16.5-18.2-17.1
				c-1.9-7.7-8.9-13.4-17.1-13.4c-8.6,0-15.8,6.2-17.3,14.3c-7.6,2.8-13,10.2-13,18.6c0,0.1,0,0.1,0,0.2
				C649.4,536.8,645.6,544.6,645.6,553.1 M663.8,538.4l2.9-1.8l-0.6-3.4c-0.1-0.6-0.2-1.2-0.2-1.8c0-4.8,3.6-9,8.4-9.7l4.5-0.7
				l-0.2-4.5c0-0.1,0-0.2,0-0.4c0-4.2,3.4-7.6,7.7-7.6c4.2,0,7.6,3.4,7.6,7.6c0,0.2,0,0.4,0,0.6l-0.6,6.7l6.6-1.4
				c0.7-0.2,1.4-0.2,2.1-0.2c5.4,0,9.8,4.4,9.8,9.8c0,0.2,0,0.3,0,0.5l-0.2,3.7l3.5,1.3c6.8,2.5,11.3,9,11.3,16.2
				c0,9.5-7.7,17.2-17.2,17.2c-2.2,0-4.3-0.4-6.3-1.2l-0.9-0.3h-22.7l-0.8,0.3c-1.8,0.6-3.8,1-5.7,1c-9.5,0-17.2-7.7-17.2-17.2
				C655.6,547,658.7,541.5,663.8,538.4"/>
		</defs>
		<clipPath id="SVGID_32_">
			<use xlink:href="#SVGID_31_"  style="overflow:visible;"/>
		</clipPath>
		<g class="st16">
			<g class="st4">
				<g>
					<g>
						<defs>
							<rect id="SVGID_33_" x="645.6" y="498.6" width="90.8" height="126.5"/>
						</defs>
						<clipPath id="SVGID_34_">
							<use xlink:href="#SVGID_33_"  style="overflow:visible;"/>
						</clipPath>
						<g class="st17">
							
								<image style="overflow:visible;enable-background:new    ;" width="383" height="533" xlink:href="1249EA05067BB03B.jpg"  transform="matrix(0.2377 0 0 0.2377 645.5112 498.48)">
							</image>
						</g>
					</g>
				</g>
			</g>
		</g>
	</g>
	<g>
		<defs>
			<path id="SVGID_35_" d="M645.6,553.1c0,15,12.2,27.2,27.2,27.2c2.8,0,5.5-0.4,8.2-1.2h5.9v41.1c0,2.8,2.2,5,5,5s5-2.2,5-5v-41.1
				h3.3c2.9,1,6,1.6,9.1,1.6c15,0,27.2-12.2,27.2-27.2c0-10.2-5.8-19.6-14.8-24.2c-1.2-9.2-8.8-16.5-18.2-17.1
				c-1.9-7.7-8.9-13.4-17.1-13.4c-8.6,0-15.8,6.2-17.3,14.3c-7.6,2.8-13,10.2-13,18.6c0,0.1,0,0.1,0,0.2
				C649.4,536.8,645.6,544.6,645.6,553.1 M663.8,538.4l2.9-1.8l-0.6-3.4c-0.1-0.6-0.2-1.2-0.2-1.8c0-4.8,3.6-9,8.4-9.7l4.5-0.7
				l-0.2-4.5c0-0.1,0-0.2,0-0.4c0-4.2,3.4-7.6,7.7-7.6c4.2,0,7.6,3.4,7.6,7.6c0,0.2,0,0.4,0,0.6l-0.6,6.7l6.6-1.4
				c0.7-0.2,1.4-0.2,2.1-0.2c5.4,0,9.8,4.4,9.8,9.8c0,0.2,0,0.3,0,0.5l-0.2,3.7l3.5,1.3c6.8,2.5,11.3,9,11.3,16.2
				c0,9.5-7.7,17.2-17.2,17.2c-2.2,0-4.3-0.4-6.3-1.2l-0.9-0.3h-22.7l-0.8,0.3c-1.8,0.6-3.8,1-5.7,1c-9.5,0-17.2-7.7-17.2-17.2
				C655.6,547,658.7,541.5,663.8,538.4"/>
		</defs>
		<clipPath id="SVGID_36_">
			<use xlink:href="#SVGID_35_"  style="overflow:visible;"/>
		</clipPath>
		<g class="st18">
			<g>
				<g>
					<defs>
						<rect id="SVGID_37_" x="645.6" y="498.6" width="90.8" height="126.5"/>
					</defs>
					<clipPath id="SVGID_38_">
						<use xlink:href="#SVGID_37_"  style="overflow:visible;"/>
					</clipPath>
					<g class="st19">
						
							<image style="overflow:visible;enable-background:new    ;" width="383" height="533" xlink:href="1249EA05067BB03C.jpg"  transform="matrix(0.2377 0 0 0.2377 645.5112 498.48)">
						</image>
					</g>
				</g>
			</g>
		</g>
	</g>
</g>
<g>
	<g>
		<defs>
			<path id="SVGID_39_" d="M763.4,371c0,8.8,7.1,15.9,15.9,15.9s15.9-7.1,15.9-15.9s-7.1-15.9-15.9-15.9S763.4,362.2,763.4,371
				 M779.2,363.1c4.3,0,7.9,3.5,7.9,7.9s-3.5,7.9-7.9,7.9s-7.9-3.5-7.9-7.9S774.9,363.1,779.2,363.1"/>
		</defs>
		<clipPath id="SVGID_40_">
			<use xlink:href="#SVGID_39_"  style="overflow:visible;"/>
		</clipPath>
		<g class="st20">
			<g class="st4">
				<g>
					<g>
						<defs>
							<rect id="SVGID_41_" x="763.4" y="355.1" width="31.7" height="31.7"/>
						</defs>
						<clipPath id="SVGID_42_">
							<use xlink:href="#SVGID_41_"  style="overflow:visible;"/>
						</clipPath>
						<g class="st21">
							
								<image style="overflow:visible;enable-background:new    ;" width="138" height="138" xlink:href="1249EA05067BB03F.jpg"  transform="matrix(0.2313 0 0 0.2313 763.28 354.96)">
							</image>
						</g>
					</g>
				</g>
			</g>
		</g>
	</g>
	<g>
		<defs>
			<path id="SVGID_43_" d="M763.4,371c0,8.8,7.1,15.9,15.9,15.9s15.9-7.1,15.9-15.9s-7.1-15.9-15.9-15.9S763.4,362.2,763.4,371
				 M779.2,363.1c4.3,0,7.9,3.5,7.9,7.9s-3.5,7.9-7.9,7.9s-7.9-3.5-7.9-7.9S774.9,363.1,779.2,363.1"/>
		</defs>
		<clipPath id="SVGID_44_">
			<use xlink:href="#SVGID_43_"  style="overflow:visible;"/>
		</clipPath>
		<g class="st22">
			<g>
				<g>
					<defs>
						<rect id="SVGID_45_" x="763.4" y="355.1" width="31.7" height="31.7"/>
					</defs>
					<clipPath id="SVGID_46_">
						<use xlink:href="#SVGID_45_"  style="overflow:visible;"/>
					</clipPath>
					<g class="st23">
						
							<image style="overflow:visible;enable-background:new    ;" width="138" height="138" xlink:href="A4AED2B9EFE076BB.jpg"  transform="matrix(0.2313 0 0 0.2313 763.28 354.96)">
						</image>
					</g>
				</g>
			</g>
		</g>
	</g>
</g>
<g>
	<g>
		<defs>
			<path id="SVGID_47_" d="M695.3,390.8c8.8,0,15.9-7.1,15.9-15.9s-7.1-15.9-15.9-15.9s-15.9,7.1-15.9,15.9S686.5,390.8,695.3,390.8
				 M695.3,367.1c4.3,0,7.9,3.5,7.9,7.9s-3.5,7.9-7.9,7.9c-4.3,0-7.9-3.5-7.9-7.9C687.4,370.6,691,367.1,695.3,367.1"/>
		</defs>
		<clipPath id="SVGID_48_">
			<use xlink:href="#SVGID_47_"  style="overflow:visible;"/>
		</clipPath>
		<g class="st24">
			<g class="st4">
				<g>
					<g>
						<defs>
							<rect id="SVGID_49_" x="679.4" y="359.1" width="31.7" height="31.7"/>
						</defs>
						<clipPath id="SVGID_50_">
							<use xlink:href="#SVGID_49_"  style="overflow:visible;"/>
						</clipPath>
						<g class="st25">
							
								<image style="overflow:visible;enable-background:new    ;" width="138" height="133" xlink:href="A4AED2B9EFE076B9.jpg"  transform="matrix(0.2313 0 0 0.2313 679.28 359.6183)">
							</image>
						</g>
					</g>
				</g>
			</g>
		</g>
	</g>
	<g>
		<defs>
			<path id="SVGID_51_" d="M695.3,390.8c8.8,0,15.9-7.1,15.9-15.9s-7.1-15.9-15.9-15.9s-15.9,7.1-15.9,15.9S686.5,390.8,695.3,390.8
				 M695.3,367.1c4.3,0,7.9,3.5,7.9,7.9s-3.5,7.9-7.9,7.9c-4.3,0-7.9-3.5-7.9-7.9C687.4,370.6,691,367.1,695.3,367.1"/>
		</defs>
		<clipPath id="SVGID_52_">
			<use xlink:href="#SVGID_51_"  style="overflow:visible;"/>
		</clipPath>
		<g class="st26">
			<g>
				<g>
					<defs>
						<rect id="SVGID_53_" x="679.4" y="359.1" width="31.7" height="31.7"/>
					</defs>
					<clipPath id="SVGID_54_">
						<use xlink:href="#SVGID_53_"  style="overflow:visible;"/>
					</clipPath>
					<g class="st27">
						
							<image style="overflow:visible;enable-background:new    ;" width="138" height="133" xlink:href="A4AED2B9EFE076BF.jpg"  transform="matrix(0.2313 0 0 0.2313 679.28 359.6183)">
						</image>
					</g>
				</g>
			</g>
		</g>
	</g>
</g>
<g>
	<g>
		<defs>
			<path id="SVGID_55_" d="M715.5,358.5c8.8,0,15.9-7.1,15.9-15.9s-7.1-15.9-15.9-15.9s-15.9,7.1-15.9,15.9S706.8,358.5,715.5,358.5
				 M715.5,334.8c4.3,0,7.9,3.5,7.9,7.9s-3.5,7.9-7.9,7.9c-4.3,0-7.9-3.5-7.9-7.9S711.2,334.8,715.5,334.8"/>
		</defs>
		<clipPath id="SVGID_56_">
			<use xlink:href="#SVGID_55_"  style="overflow:visible;"/>
		</clipPath>
		<g class="st28">
			<g class="st4">
				<g>
					<g>
						<defs>
							<rect id="SVGID_57_" x="699.7" y="326.8" width="31.7" height="31.7"/>
						</defs>
						<clipPath id="SVGID_58_">
							<use xlink:href="#SVGID_57_"  style="overflow:visible;"/>
						</clipPath>
						<g class="st29">
							
								<image style="overflow:visible;enable-background:new    ;" width="138" height="138" xlink:href="A4AED2B9EFE076BA.jpg"  transform="matrix(0.2313 0 0 0.2313 699.56 326.64)">
							</image>
						</g>
					</g>
				</g>
			</g>
		</g>
	</g>
	<g>
		<defs>
			<path id="SVGID_59_" d="M715.5,358.5c8.8,0,15.9-7.1,15.9-15.9s-7.1-15.9-15.9-15.9s-15.9,7.1-15.9,15.9S706.8,358.5,715.5,358.5
				 M715.5,334.8c4.3,0,7.9,3.5,7.9,7.9s-3.5,7.9-7.9,7.9c-4.3,0-7.9-3.5-7.9-7.9S711.2,334.8,715.5,334.8"/>
		</defs>
		<clipPath id="SVGID_60_">
			<use xlink:href="#SVGID_59_"  style="overflow:visible;"/>
		</clipPath>
		<g class="st30">
			<g>
				<g>
					<defs>
						<rect id="SVGID_61_" x="699.7" y="326.8" width="31.7" height="31.7"/>
					</defs>
					<clipPath id="SVGID_62_">
						<use xlink:href="#SVGID_61_"  style="overflow:visible;"/>
					</clipPath>
					<g class="st31">
						
							<image style="overflow:visible;enable-background:new    ;" width="138" height="138" xlink:href="A4AED2B9EFE076A5.jpg"  transform="matrix(0.2313 0 0 0.2313 699.56 326.64)">
						</image>
					</g>
				</g>
			</g>
		</g>
	</g>
</g>
<g>
	<g>
		<defs>
			<path id="SVGID_63_" d="M752.2,357.5c8.8,0,15.9-7.1,15.9-15.9s-7.1-15.9-15.9-15.9s-15.9,7.1-15.9,15.9S743.4,357.5,752.2,357.5
				 M752.2,333.8c4.3,0,7.9,3.5,7.9,7.9s-3.5,7.9-7.9,7.9s-7.9-3.5-7.9-7.9S747.8,333.8,752.2,333.8"/>
		</defs>
		<clipPath id="SVGID_64_">
			<use xlink:href="#SVGID_63_"  style="overflow:visible;"/>
		</clipPath>
		<g class="st32">
			<g class="st4">
				<g>
					<g>
						<defs>
							<rect id="SVGID_65_" x="736.3" y="325.8" width="31.7" height="31.7"/>
						</defs>
						<clipPath id="SVGID_66_">
							<use xlink:href="#SVGID_65_"  style="overflow:visible;"/>
						</clipPath>
						<g class="st33">
							
								<image style="overflow:visible;enable-background:new    ;" width="138" height="138" xlink:href="A4AED2B9EFE076A6.jpg"  transform="matrix(0.2313 0 0 0.2313 736.16 325.68)">
							</image>
						</g>
					</g>
				</g>
			</g>
		</g>
	</g>
	<g>
		<defs>
			<path id="SVGID_67_" d="M752.2,357.5c8.8,0,15.9-7.1,15.9-15.9s-7.1-15.9-15.9-15.9s-15.9,7.1-15.9,15.9S743.4,357.5,752.2,357.5
				 M752.2,333.8c4.3,0,7.9,3.5,7.9,7.9s-3.5,7.9-7.9,7.9s-7.9-3.5-7.9-7.9S747.8,333.8,752.2,333.8"/>
		</defs>
		<clipPath id="SVGID_68_">
			<use xlink:href="#SVGID_67_"  style="overflow:visible;"/>
		</clipPath>
		<g class="st34">
			<g>
				<g>
					<defs>
						<rect id="SVGID_69_" x="736.3" y="325.8" width="31.7" height="31.7"/>
					</defs>
					<clipPath id="SVGID_70_">
						<use xlink:href="#SVGID_69_"  style="overflow:visible;"/>
					</clipPath>
					<g class="st35">
						
							<image style="overflow:visible;enable-background:new    ;" width="138" height="138" xlink:href="A4AED2B9EFE076A7.jpg"  transform="matrix(0.2313 0 0 0.2313 736.16 325.68)">
						</image>
					</g>
				</g>
			</g>
		</g>
	</g>
</g>
<g>
	<g>
		<defs>
			<path id="SVGID_71_" d="M754.3,392.4l-2.7,0l-2.8-4.4l0.8-2.3c0.5-1.4,0.7-2.8,0.7-4.2c0-7.2-5.9-13.1-13.1-13.1
				c-7.2,0-13.1,5.9-13.1,13.1c0,1.5,0.3,3,0.8,4.5l0.6,1.6l-2,4.6l-2.4,0.4c-6.5,1.1-11.2,6.8-11.2,13.4c0,7.5,6.1,13.6,13.6,13.6
				c4.6,0,8.9-2.4,11.4-6.2l9.7-0.9c2.4,3,5.9,4.7,9.7,4.7c6.9,0,12.4-5.6,12.4-12.5C766.6,398.1,761.1,392.5,754.3,392.4"/>
		</defs>
		<clipPath id="SVGID_72_">
			<use xlink:href="#SVGID_71_"  style="overflow:visible;"/>
		</clipPath>
		<rect x="704.8" y="363.5" class="st36" width="66.8" height="61.2"/>
	</g>
</g>
<g>
	<g>
		<defs>
			<path id="SVGID_73_" d="M760.2,383.2c0-0.5,0.1-1.1,0.1-1.6c0-12.7-10.4-23.1-23.1-23.1S714,368.8,714,381.6
				c0,0.9,0.1,1.8,0.2,2.7c-8.6,3.6-14.5,12-14.5,21.7c0,13,10.6,23.6,23.6,23.6c6.5,0,12.5-2.6,16.9-7.2c3.9,3.1,8.8,4.8,13.9,4.8
				c12.4,0,22.4-10.1,22.4-22.5C776.6,394.6,769.6,385.9,760.2,383.2 M754.1,417.3c-3.8,0-7.4-1.8-9.7-4.7l-9.7,0.9
				c-2.5,3.9-6.8,6.2-11.4,6.2c-7.5,0-13.6-6.1-13.6-13.6c0-6.6,4.7-12.2,11.2-13.4l2.4-0.4l2-4.6l-0.6-1.6c-0.5-1.5-0.8-3-0.8-4.5
				c0-7.2,5.9-13.1,13.1-13.1s13.1,5.9,13.1,13.1c0,1.4-0.2,2.8-0.7,4.2l-0.8,2.3l2.8,4.4l2.7,0c6.8,0.1,12.3,5.7,12.3,12.4
				C766.6,411.7,761,417.3,754.1,417.3"/>
		</defs>
		<clipPath id="SVGID_74_">
			<use xlink:href="#SVGID_73_"  style="overflow:visible;"/>
		</clipPath>
		<g class="st37">
			<g class="st4">
				<g>
					<g>
						<defs>
							<rect id="SVGID_75_" x="699.8" y="358.5" width="76.8" height="71.2"/>
						</defs>
						<clipPath id="SVGID_76_">
							<use xlink:href="#SVGID_75_"  style="overflow:visible;"/>
						</clipPath>
						<g class="st38">
							
								<image style="overflow:visible;enable-background:new    ;" width="325" height="300" xlink:href="A4AED2B9EFE076A9.jpg"  transform="matrix(0.237 0 0 0.237 699.68 358.5231)">
							</image>
						</g>
					</g>
				</g>
			</g>
		</g>
	</g>
	<g>
		<defs>
			<path id="SVGID_77_" d="M760.2,383.2c0-0.5,0.1-1.1,0.1-1.6c0-12.7-10.4-23.1-23.1-23.1S714,368.8,714,381.6
				c0,0.9,0.1,1.8,0.2,2.7c-8.6,3.6-14.5,12-14.5,21.7c0,13,10.6,23.6,23.6,23.6c6.5,0,12.5-2.6,16.9-7.2c3.9,3.1,8.8,4.8,13.9,4.8
				c12.4,0,22.4-10.1,22.4-22.5C776.6,394.6,769.6,385.9,760.2,383.2 M754.1,417.3c-3.8,0-7.4-1.8-9.7-4.7l-9.7,0.9
				c-2.5,3.9-6.8,6.2-11.4,6.2c-7.5,0-13.6-6.1-13.6-13.6c0-6.6,4.7-12.2,11.2-13.4l2.4-0.4l2-4.6l-0.6-1.6c-0.5-1.5-0.8-3-0.8-4.5
				c0-7.2,5.9-13.1,13.1-13.1s13.1,5.9,13.1,13.1c0,1.4-0.2,2.8-0.7,4.2l-0.8,2.3l2.8,4.4l2.7,0c6.8,0.1,12.3,5.7,12.3,12.4
				C766.6,411.7,761,417.3,754.1,417.3"/>
		</defs>
		<clipPath id="SVGID_78_">
			<use xlink:href="#SVGID_77_"  style="overflow:visible;"/>
		</clipPath>
		<g class="st39">
			<g>
				<g>
					<defs>
						<rect id="SVGID_79_" x="699.8" y="358.5" width="76.8" height="71.2"/>
					</defs>
					<clipPath id="SVGID_80_">
						<use xlink:href="#SVGID_79_"  style="overflow:visible;"/>
					</clipPath>
					<g class="st40">
						
							<image style="overflow:visible;enable-background:new    ;" width="325" height="300" xlink:href="A4AED2B9EFE076AB.jpg"  transform="matrix(0.237 0 0 0.237 699.68 358.5231)">
						</image>
					</g>
				</g>
			</g>
		</g>
	</g>
</g>
<g>
	<g>
		<defs>
			<path id="SVGID_81_" d="M624.1,422.2l-24.2-21.4l-13.8-14.6c-4.4-5.3-11-7.9-17.9-6.9c-8.2,1.2-14.9,7.7-16.2,15.9l-5.3,4.5
				l-4,3.3c-0.4-0.6-0.8-1.1-1.3-1.7c-2.4-2.6-7.8-4.8-13.2-3.6c-2.9,0.6-8.1,2.9-10.6,10.7l-0.1,0.4l-0.2,1.4l0,2.4
				c-1.7-0.9-3.9-0.7-5.4,0.6c-2.1,1.7-2.5,4.9-0.7,7c1.7,2.1,4.1,2.5,4.9,2.7c2.6,0.5,5.4-0.3,7.5-2.1c2.3-2,3.8-4.9,3.8-7.8v-1.8
				l0-0.2c0.7-1.9,1.6-3.1,2.8-3.5c1.5-0.5,3.4,0.2,4,0.6c1.5,1.7,1.6,4.1,1.6,8.2c0,2.9,0.1,6.2,0.9,9.6l0.1,0.4
				c0.9,3.6,3,6.4,6,8.1c2,1.1,4.4,1.6,6.8,1.6c1.8,0,3.6-0.3,5.3-0.9c2.6-0.9,4.1-3.7,3.2-6.3s-3.7-4.1-6.3-3.2
				c-1.6,0.5-3.3,0.5-4.2,0c-0.2-0.1-0.8-0.5-1.2-1.9l-0.1-0.4c-0.5-2.2-0.6-4.6-0.6-7.2c0-2.5-0.1-5.2-0.7-7.8l2.7,0.8l9,2.2
				c0.6,0.7,1.3,1.3,2,1.9l6.2,6.7c0.2,0.2,0.3,0.6,0.2,0.9c-1,3.1-1.5,6.3-1.5,9.6c0,14,9.2,25.8,21.9,29.8l-3.7,4.7
				c-1.7,0.2-3.4,0.8-5.1,1.7c-1.1,0.6-2.3,1.4-3.4,2.5c-0.6,0.5-1.1,1.1-1.7,1.8c-0.6,0.7-1.1,1.5-1.7,2.4v1l3.4,0.2l3.4,0.1
				c2.3,0.1,4.6,0.1,6.8,0.1c2.3,0,4.6,0,6.8-0.1l3.4-0.1l3.4-0.2v-1c-1.1-1.8-2.3-3.1-3.4-4.2c-0.5-0.5-1.1-0.9-1.6-1.3l5-6.3
				c8.3-0.7,15.9-4.6,21.3-11c0,0,0.1-0.1,0.1-0.1l42.7-2.1L624.1,422.2z M618.3,440.5c-2.8,0.1-5.4,1.5-7.2,3.6
				c-4,4.8-9.9,7.5-16.2,7.5c-11.7,0-21.2-9.5-21.2-21.2c0-2.2,0.3-4.4,1-6.5c1.2-3.8,0.3-7.9-2.4-10.8l-6.5-7l-0.6-0.5
				c-2.7-2.1-3.9-5.4-3.4-8.9c0.6-4,3.8-7.2,7.8-7.8c0.5-0.1,1-0.1,1.4-0.1c2.9,0,5.5,1.3,7.4,3.5l14.3,15.3l24.9,22l14.2,10
				L618.3,440.5z"/>
		</defs>
		<clipPath id="SVGID_82_">
			<use xlink:href="#SVGID_81_"  style="overflow:visible;"/>
		</clipPath>
		<g class="st41">
			<g class="st4">
				<g>
					<g>
						<defs>
							<rect id="SVGID_83_" x="509.4" y="378.2" width="152.1" height="96.6"/>
						</defs>
						<clipPath id="SVGID_84_">
							<use xlink:href="#SVGID_83_"  style="overflow:visible;"/>
						</clipPath>
						<g class="st42">
							
								<image style="overflow:visible;enable-background:new    ;" width="638" height="404" xlink:href="A4AED2B9EFE076AE.jpg"  transform="matrix(0.2385 0 0 0.2385 509.36 378.304)">
							</image>
						</g>
					</g>
				</g>
			</g>
		</g>
	</g>
	<g>
		<defs>
			<path id="SVGID_85_" d="M624.1,422.2l-24.2-21.4l-13.8-14.6c-4.4-5.3-11-7.9-17.9-6.9c-8.2,1.2-14.9,7.7-16.2,15.9l-5.3,4.5
				l-4,3.3c-0.4-0.6-0.8-1.1-1.3-1.7c-2.4-2.6-7.8-4.8-13.2-3.6c-2.9,0.6-8.1,2.9-10.6,10.7l-0.1,0.4l-0.2,1.4l0,2.4
				c-1.7-0.9-3.9-0.7-5.4,0.6c-2.1,1.7-2.5,4.9-0.7,7c1.7,2.1,4.1,2.5,4.9,2.7c2.6,0.5,5.4-0.3,7.5-2.1c2.3-2,3.8-4.9,3.8-7.8v-1.8
				l0-0.2c0.7-1.9,1.6-3.1,2.8-3.5c1.5-0.5,3.4,0.2,4,0.6c1.5,1.7,1.6,4.1,1.6,8.2c0,2.9,0.1,6.2,0.9,9.6l0.1,0.4
				c0.9,3.6,3,6.4,6,8.1c2,1.1,4.4,1.6,6.8,1.6c1.8,0,3.6-0.3,5.3-0.9c2.6-0.9,4.1-3.7,3.2-6.3s-3.7-4.1-6.3-3.2
				c-1.6,0.5-3.3,0.5-4.2,0c-0.2-0.1-0.8-0.5-1.2-1.9l-0.1-0.4c-0.5-2.2-0.6-4.6-0.6-7.2c0-2.5-0.1-5.2-0.7-7.8l2.7,0.8l9,2.2
				c0.6,0.7,1.3,1.3,2,1.9l6.2,6.7c0.2,0.2,0.3,0.6,0.2,0.9c-1,3.1-1.5,6.3-1.5,9.6c0,14,9.2,25.8,21.9,29.8l-3.7,4.7
				c-1.7,0.2-3.4,0.8-5.1,1.7c-1.1,0.6-2.3,1.4-3.4,2.5c-0.6,0.5-1.1,1.1-1.7,1.8c-0.6,0.7-1.1,1.5-1.7,2.4v1l3.4,0.2l3.4,0.1
				c2.3,0.1,4.6,0.1,6.8,0.1c2.3,0,4.6,0,6.8-0.1l3.4-0.1l3.4-0.2v-1c-1.1-1.8-2.3-3.1-3.4-4.2c-0.5-0.5-1.1-0.9-1.6-1.3l5-6.3
				c8.3-0.7,15.9-4.6,21.3-11c0,0,0.1-0.1,0.1-0.1l42.7-2.1L624.1,422.2z M618.3,440.5c-2.8,0.1-5.4,1.5-7.2,3.6
				c-4,4.8-9.9,7.5-16.2,7.5c-11.7,0-21.2-9.5-21.2-21.2c0-2.2,0.3-4.4,1-6.5c1.2-3.8,0.3-7.9-2.4-10.8l-6.5-7l-0.6-0.5
				c-2.7-2.1-3.9-5.4-3.4-8.9c0.6-4,3.8-7.2,7.8-7.8c0.5-0.1,1-0.1,1.4-0.1c2.9,0,5.5,1.3,7.4,3.5l14.3,15.3l24.9,22l14.2,10
				L618.3,440.5z"/>
		</defs>
		<clipPath id="SVGID_86_">
			<use xlink:href="#SVGID_85_"  style="overflow:visible;"/>
		</clipPath>
		<g class="st43">
			<g>
				<g>
					<defs>
						<rect id="SVGID_87_" x="509.4" y="378.2" width="152.1" height="96.6"/>
					</defs>
					<clipPath id="SVGID_88_">
						<use xlink:href="#SVGID_87_"  style="overflow:visible;"/>
					</clipPath>
					<g class="st44">
						
							<image style="overflow:visible;enable-background:new    ;" width="638" height="404" xlink:href="A4AED2B9EFE076C2.jpg"  transform="matrix(0.2385 0 0 0.2385 509.36 378.304)">
						</image>
					</g>
				</g>
			</g>
		</g>
	</g>
</g>
<g>
	<g>
		<defs>
			<path id="SVGID_89_" d="M570,394c-2.2,0-4,1.8-4,4s1.8,4,4,4c2.2,0,4-1.8,4-4C574.1,395.8,572.3,394,570,394"/>
		</defs>
		<clipPath id="SVGID_90_">
			<use xlink:href="#SVGID_89_"  style="overflow:visible;"/>
		</clipPath>
		<rect x="561" y="389" class="st45" width="18.1" height="18.1"/>
	</g>
</g>
</svg>
