<?xml version="1.0" encoding="utf-8"?>
<!-- Generator: Adobe Illustrator 23.0.3, SVG Export Plug-In . SVG Version: 6.00 Build 0)  -->
<svg version="1.1" id="Layer_1" xmlns="http://www.w3.org/2000/svg" xmlns:xlink="http://www.w3.org/1999/xlink" x="0px" y="0px"
	 viewBox="0 0 1280 1024" style="enable-background:new 0 0 1280 1024;" xml:space="preserve">
<style type="text/css">
	.st0{opacity:0;clip-path:url(#SVGID_2_);}
	.st1{opacity:0;}
	.st2{clip-path:url(#SVGID_4_);}
	.st3{clip-path:url(#SVGID_6_);}
	.st4{clip-path:url(#SVGID_8_);}
</style>
<g>
	<g>
		<defs>
			<path id="SVGID_1_" d="M688.3,611.9c-0.1-0.3-0.3-0.7-0.5-1l-27.9-48.3v-63.6h7.9c2.8,0,5-2.2,5-5s-2.2-5-5-5h-7.9h-16.4
				c0-0.1,0-0.2,0-0.3l2-25.2c3,0.4,7.6,0.9,12.4,0.8c0.3,0.2,0.6,0.4,1,0.6c11,6.8,22.3,10.3,33.1,10.3c2.6,0,5.3-0.2,7.8-0.6
				c15.2-2.5,28-12,38.1-28.3c7.2-11.6,10-25.4,7.9-38.9l-0.3-2l-1.7-1.2c-1.2-0.9-2.5-1.8-3.8-2.6c-13-8.1-28.5-10.6-43.4-7.1
				s-27.6,12.6-35.7,25.7c-6.3,10.2-9.2,22.1-8.5,34c-2.5-0.1-4.9-0.4-6.6-0.7l-0.1-70.4c0.7-0.3,1.3-0.6,2-1
				c14.8-7.5,24.5-18.1,28.1-30.5c3.4-11.9,1.1-24.6-6.8-38c-6.2-10.4-16.2-18.5-28.2-22.6l-1.8-0.6l-1.8,0.7
				c-1.3,0.5-2.6,1.2-3.9,1.8c-13,6.6-22.4,17.7-26.2,31c-3.7,12.7-1.9,26,4.9,37.5c5.4,9.1,13.7,16.4,23.7,20.9l0.1,43.8
				c-3.9,1.1-9.1,2.2-13.9,2.6c4-26.7-13.2-52.6-40-58.8c-12.1-2.8-24.9-1.2-35.9,4.5l-1.8,1l-0.6,2c-0.4,1.4-0.8,2.7-1.1,4.1
				c-3.2,13.6-0.8,27.7,6.6,39.6c7.4,11.9,19,20.2,32.6,23.3c4.8,1.1,9.4,1.7,13.7,1.7c8.2,0,15.5-2,21.9-6c0.2-0.1,0.3-0.2,0.3-0.2
				l1.8-1l0-0.1c6.1-0.1,12.2-1.4,16.5-2.4l0,21.7l-2.4,30c0,0.4,0,0.7,0,1h-14.8h-9.7c-2.8,0-5,2.2-5,5s2.2,5,5,5h9.7v63.6
				L537,704.4c-3.7,6.4-3.7,14,0,20.3c3.7,6.4,10.2,10.2,17.6,10.2h169.6c7.3,0,13.9-3.8,17.6-10.2c3.7-6.4,3.7-14,0-20.3
				L688.3,611.9z M669.5,425.5c6.7-10.8,17.1-18.3,29.5-21.2c12.3-2.9,25-0.8,35.8,5.8c0.5,0.3,1,0.6,1.5,1c1.1,10.5-1.3,21-6.8,30
				c-8.5,13.7-19,21.7-31.2,23.7c-7.9,1.3-16.3,0.1-24.9-3.6c4.3-1.9,8.5-4,12.4-6.3c0.1,0,0.2,0,0.4,0.1l19.2,2.2
				c2.8,0.3,5.2-1.6,5.5-4.4c0.3-2.7-1.7-5.2-4.4-5.5l-7.9-0.9c10.7-8,17.8-15.3,18.3-15.8c1.9-2,1.9-5.1-0.1-7.1s-5.2-1.9-7.1,0.1
				c-0.1,0.1-2.2,2.3-5.9,5.5l-1.9-14.5c-0.3-2.7-2.9-4.7-5.6-4.3s-4.7,2.9-4.3,5.6l2.7,20.8c-7.4,5.7-16.9,12-27,16.1
				c-1.5,0.6-3.3,1-5.2,1.3C661.8,444,664.2,434,669.5,425.5z M583.9,434.6c-11-2.6-20.4-9.3-26.4-18.9c-6-9.6-7.9-21-5.3-32
				c0.1-0.4,0.2-0.9,0.3-1.3c8.5-3.9,18.1-4.9,27.2-2.7c21.9,5.1,35.9,26.4,32.2,48.4c-0.3-0.1-0.6-0.2-0.9-0.3
				c-7.8-3.5-15.5-9.1-22.2-15c0-0.2,0-0.4,0-0.5l-0.7-22.2c-0.1-2.8-2.4-4.9-5.2-4.8c-2.8,0.1-4.9,2.4-4.8,5.2l0.4,12.6
				c-6.9-7.1-11.4-12.8-11.5-12.9c-1.7-2.2-4.8-2.6-7-0.9s-2.6,4.8-0.9,7c0.6,0.7,9.3,11.8,21.5,22.8l-4.5-0.5
				c-2.7-0.3-5.2,1.7-5.5,4.4c-0.3,2.8,1.7,5.2,4.4,5.5l20.5,2.2c2.6,1.7,5.2,3.2,7.9,4.6C599,436.2,592.6,436.6,583.9,434.6z
				 M620.7,356.3c-5.4-9.1-6.8-19.6-3.9-29.6c3.1-10.7,10.6-19.5,21.1-24.9c0.5-0.2,1-0.5,1.4-0.7c9,3.6,16.4,9.8,21.1,17.6
				c6.5,10.9,8.4,21,5.8,30.1c-3.2,11-12.2,18.3-20.2,22.9c0.2-2.3,0.4-4.7,0.5-7.2c0.7-0.2,1.4-0.5,2-1.1l14-12.6
				c2.1-1.8,2.2-5,0.4-7.1c-1.8-2.1-5-2.2-7.1-0.4l-9,8.1c0.1-16.8-1.1-32.5-1.1-33.6c-0.2-2.8-2.6-4.8-5.4-4.6
				c-2.8,0.2-4.8,2.6-4.6,5.4c0,0.2,0.5,7.4,0.9,17.2l-9.1-7.6c-2.1-1.8-5.3-1.5-7,0.7c-1.8,2.1-1.5,5.3,0.7,7l15.8,13
				c0,7.5-0.2,15.4-0.8,22.1C629.7,367.5,624.3,362.4,620.7,356.3z M733,719.7c-1.9,3.2-5.2,5.2-8.9,5.2H554.6
				c-3.7,0-7.1-1.9-8.9-5.2c-1.9-3.2-1.9-7.1,0-10.3l83.2-144.1v-66.3h21.1v66.3l25.1,43.5h-30c-2.8,0-5,2.2-5,5s2.2,5,5,5h35.8
				l5.7,9.8l-58.5-0.5h0c-2.7,0-5,2.2-5,5c0,2.8,2.2,5,5,5l64.4,0.6l5.4,9.3h-32.3c-2.8,0-5,2.2-5,5s2.2,5,5,5h38.1l6.3,11
				l-60.6-0.5h0c-2.7,0-5,2.2-5,5c0,2.8,2.2,5,5,5l66.5,0.6l4.8,8.3h-33.5c-2.8,0-5,2.2-5,5s2.2,5,5,5h38.8c0.2,0,0.3,0,0.5,0
				l6.9,12C734.9,712.6,734.9,716.5,733,719.7z"/>
		</defs>
		<clipPath id="SVGID_2_">
			<use xlink:href="#SVGID_1_"  style="overflow:visible;"/>
		</clipPath>
		<g class="st0">
			<g class="st1">
				<g>
					<g>
						<defs>
							<rect id="SVGID_3_" x="533.3" y="290.4" width="214.6" height="444.5"/>
						</defs>
						<clipPath id="SVGID_4_">
							<use xlink:href="#SVGID_3_"  style="overflow:visible;"/>
						</clipPath>
						<g transform="matrix(1 0 0 1 1.525879e-05 0)" class="st2">
							
								<image style="overflow:visible;enable-background:new    ;" width="900" height="1858" xlink:href="96AA989A7AE7A1BF.jpg"  transform="matrix(0.2389 0 0 0.2389 533.0977 290.6711)">
							</image>
						</g>
					</g>
				</g>
			</g>
		</g>
	</g>
	<g>
		<defs>
			<path id="SVGID_5_" d="M688.3,611.9c-0.1-0.3-0.3-0.7-0.5-1l-27.9-48.3v-63.6h7.9c2.8,0,5-2.2,5-5s-2.2-5-5-5h-7.9h-16.4
				c0-0.1,0-0.2,0-0.3l2-25.2c3,0.4,7.6,0.9,12.4,0.8c0.3,0.2,0.6,0.4,1,0.6c11,6.8,22.3,10.3,33.1,10.3c2.6,0,5.3-0.2,7.8-0.6
				c15.2-2.5,28-12,38.1-28.3c7.2-11.6,10-25.4,7.9-38.9l-0.3-2l-1.7-1.2c-1.2-0.9-2.5-1.8-3.8-2.6c-13-8.1-28.5-10.6-43.4-7.1
				s-27.6,12.6-35.7,25.7c-6.3,10.2-9.2,22.1-8.5,34c-2.5-0.1-4.9-0.4-6.6-0.7l-0.1-70.4c0.7-0.3,1.3-0.6,2-1
				c14.8-7.5,24.5-18.1,28.1-30.5c3.4-11.9,1.1-24.6-6.8-38c-6.2-10.4-16.2-18.5-28.2-22.6l-1.8-0.6l-1.8,0.7
				c-1.3,0.5-2.6,1.2-3.9,1.8c-13,6.6-22.4,17.7-26.2,31c-3.7,12.7-1.9,26,4.9,37.5c5.4,9.1,13.7,16.4,23.7,20.9l0.1,43.8
				c-3.9,1.1-9.1,2.2-13.9,2.6c4-26.7-13.2-52.6-40-58.8c-12.1-2.8-24.9-1.2-35.9,4.5l-1.8,1l-0.6,2c-0.4,1.4-0.8,2.7-1.1,4.1
				c-3.2,13.6-0.8,27.7,6.6,39.6c7.4,11.9,19,20.2,32.6,23.3c4.8,1.1,9.4,1.7,13.7,1.7c8.2,0,15.5-2,21.9-6c0.2-0.1,0.3-0.2,0.3-0.2
				l1.8-1l0-0.1c6.1-0.1,12.2-1.4,16.5-2.4l0,21.7l-2.4,30c0,0.4,0,0.7,0,1h-14.8h-9.7c-2.8,0-5,2.2-5,5s2.2,5,5,5h9.7v63.6
				L537,704.4c-3.7,6.4-3.7,14,0,20.3c3.7,6.4,10.2,10.2,17.6,10.2h169.6c7.3,0,13.9-3.8,17.6-10.2c3.7-6.4,3.7-14,0-20.3
				L688.3,611.9z M669.5,425.5c6.7-10.8,17.1-18.3,29.5-21.2c12.3-2.9,25-0.8,35.8,5.8c0.5,0.3,1,0.6,1.5,1c1.1,10.5-1.3,21-6.8,30
				c-8.5,13.7-19,21.7-31.2,23.7c-7.9,1.3-16.3,0.1-24.9-3.6c4.3-1.9,8.5-4,12.4-6.3c0.1,0,0.2,0,0.4,0.1l19.2,2.2
				c2.8,0.3,5.2-1.6,5.5-4.4c0.3-2.7-1.7-5.2-4.4-5.5l-7.9-0.9c10.7-8,17.8-15.3,18.3-15.8c1.9-2,1.9-5.1-0.1-7.1s-5.2-1.9-7.1,0.1
				c-0.1,0.1-2.2,2.3-5.9,5.5l-1.9-14.5c-0.3-2.7-2.9-4.7-5.6-4.3s-4.7,2.9-4.3,5.6l2.7,20.8c-7.4,5.7-16.9,12-27,16.1
				c-1.5,0.6-3.3,1-5.2,1.3C661.8,444,664.2,434,669.5,425.5z M583.9,434.6c-11-2.6-20.4-9.3-26.4-18.9c-6-9.6-7.9-21-5.3-32
				c0.1-0.4,0.2-0.9,0.3-1.3c8.5-3.9,18.1-4.9,27.2-2.7c21.9,5.1,35.9,26.4,32.2,48.4c-0.3-0.1-0.6-0.2-0.9-0.3
				c-7.8-3.5-15.5-9.1-22.2-15c0-0.2,0-0.4,0-0.5l-0.7-22.2c-0.1-2.8-2.4-4.9-5.2-4.8c-2.8,0.1-4.9,2.4-4.8,5.2l0.4,12.6
				c-6.9-7.1-11.4-12.8-11.5-12.9c-1.7-2.2-4.8-2.6-7-0.9s-2.6,4.8-0.9,7c0.6,0.7,9.3,11.8,21.5,22.8l-4.5-0.5
				c-2.7-0.3-5.2,1.7-5.5,4.4c-0.3,2.8,1.7,5.2,4.4,5.5l20.5,2.2c2.6,1.7,5.2,3.2,7.9,4.6C599,436.2,592.6,436.6,583.9,434.6z
				 M620.7,356.3c-5.4-9.1-6.8-19.6-3.9-29.6c3.1-10.7,10.6-19.5,21.1-24.9c0.5-0.2,1-0.5,1.4-0.7c9,3.6,16.4,9.8,21.1,17.6
				c6.5,10.9,8.4,21,5.8,30.1c-3.2,11-12.2,18.3-20.2,22.9c0.2-2.3,0.4-4.7,0.5-7.2c0.7-0.2,1.4-0.5,2-1.1l14-12.6
				c2.1-1.8,2.2-5,0.4-7.1c-1.8-2.1-5-2.2-7.1-0.4l-9,8.1c0.1-16.8-1.1-32.5-1.1-33.6c-0.2-2.8-2.6-4.8-5.4-4.6
				c-2.8,0.2-4.8,2.6-4.6,5.4c0,0.2,0.5,7.4,0.9,17.2l-9.1-7.6c-2.1-1.8-5.3-1.5-7,0.7c-1.8,2.1-1.5,5.3,0.7,7l15.8,13
				c0,7.5-0.2,15.4-0.8,22.1C629.7,367.5,624.3,362.4,620.7,356.3z M733,719.7c-1.9,3.2-5.2,5.2-8.9,5.2H554.6
				c-3.7,0-7.1-1.9-8.9-5.2c-1.9-3.2-1.9-7.1,0-10.3l83.2-144.1v-66.3h21.1v66.3l25.1,43.5h-30c-2.8,0-5,2.2-5,5s2.2,5,5,5h35.8
				l5.7,9.8l-58.5-0.5h0c-2.7,0-5,2.2-5,5c0,2.8,2.2,5,5,5l64.4,0.6l5.4,9.3h-32.3c-2.8,0-5,2.2-5,5s2.2,5,5,5h38.1l6.3,11
				l-60.6-0.5h0c-2.7,0-5,2.2-5,5c0,2.8,2.2,5,5,5l66.5,0.6l4.8,8.3h-33.5c-2.8,0-5,2.2-5,5s2.2,5,5,5h38.8c0.2,0,0.3,0,0.5,0
				l6.9,12C734.9,712.6,734.9,716.5,733,719.7z"/>
		</defs>
		<clipPath id="SVGID_6_">
			<use xlink:href="#SVGID_5_"  style="overflow:visible;"/>
		</clipPath>
		<g class="st3">
			<g>
				<g>
					<defs>
						<rect id="SVGID_7_" x="533.3" y="290.4" width="214.6" height="444.5"/>
					</defs>
					<clipPath id="SVGID_8_">
						<use xlink:href="#SVGID_7_"  style="overflow:visible;"/>
					</clipPath>
					<g transform="matrix(1 0 0 1 1.525879e-05 0)" class="st4">
						
							<image style="overflow:visible;enable-background:new    ;" width="900" height="1858" xlink:href="96AA989A7AE7A1BD.jpg"  transform="matrix(0.2389 0 0 0.2389 533.0977 290.6711)">
						</image>
					</g>
				</g>
			</g>
		</g>
	</g>
</g>
</svg>
