<?xml version="1.0" encoding="utf-8"?>
<!-- Generator: Adobe Illustrator 23.0.3, SVG Export Plug-In . SVG Version: 6.00 Build 0)  -->
<svg version="1.1" id="Layer_1" xmlns="http://www.w3.org/2000/svg" xmlns:xlink="http://www.w3.org/1999/xlink" x="0px" y="0px"
	 viewBox="0 0 1280 1024" style="enable-background:new 0 0 1280 1024;" xml:space="preserve">
<style type="text/css">
	.st0{clip-path:url(#SVGID_2_);fill:#FFFFFF;}
	.st1{opacity:0;clip-path:url(#SVGID_4_);}
	.st2{opacity:0;}
	.st3{clip-path:url(#SVGID_6_);}
	.st4{clip-path:url(#SVGID_8_);}
	.st5{clip-path:url(#SVGID_10_);}
	.st6{clip-path:url(#SVGID_12_);enable-background:new    ;}
	.st7{clip-path:url(#SVGID_14_);}
	.st8{clip-path:url(#SVGID_16_);}
	.st9{opacity:0;clip-path:url(#SVGID_18_);}
	.st10{clip-path:url(#SVGID_20_);}
	.st11{clip-path:url(#SVGID_22_);}
	.st12{clip-path:url(#SVGID_24_);}
</style>
<g>
	<g>
		<defs>
			<path id="SVGID_1_" d="M646.9,538.9h-30.6l-84.2,104.3l17.3-5.5c2.6-0.8,5.4,0.6,6.3,3.2c0.8,2.6-0.6,5.4-3.2,6.3l-33.3,10.6
				c-0.1,0-0.2,0.1-0.4,0.1c-0.1,0-0.2,0.1-0.3,0.1c-0.2,0-0.5,0.1-0.8,0.1c0,0,0,0-0.1,0l0,0l0,0c-0.3,0-0.6,0-0.9-0.1
				c0,0,0,0-0.1,0c-0.1,0-0.1,0-0.2,0c-0.2,0-0.4-0.1-0.6-0.2c-0.1,0-0.2-0.1-0.3-0.1c-0.2-0.1-0.4-0.2-0.5-0.3
				c-0.1,0-0.2-0.1-0.2-0.1c-0.2-0.2-0.5-0.3-0.7-0.6c0,0,0-0.1-0.1-0.1c-0.2-0.2-0.3-0.4-0.5-0.6c-0.1-0.1-0.1-0.2-0.1-0.2
				c-0.1-0.2-0.2-0.3-0.3-0.5c0-0.1-0.1-0.2-0.1-0.3c0-0.1-0.1-0.2-0.1-0.2c0-0.1,0-0.2,0-0.2c-0.1-0.2-0.1-0.3-0.1-0.5
				c0-0.2,0-0.3,0-0.5s0-0.3,0-0.5c0-0.2,0-0.4,0-0.5c0-0.1,0-0.2,0-0.2l7-35.2c0.5-2.7,3.2-4.5,5.9-3.9c2.7,0.5,4.5,3.2,3.9,5.9
				l-3.1,15.5l77-95.5H449.8c-1.1,0-2,0.9-2,2v197.1c0,1.1,0.9,2,2,2h193.1c3.3,0,5.9-2.7,5.9-5.9V540.8
				C648.8,539.7,648,538.9,646.9,538.9"/>
		</defs>
		<clipPath id="SVGID_2_">
			<use xlink:href="#SVGID_1_"  style="overflow:visible;"/>
		</clipPath>
		<rect x="442.8" y="533.9" class="st0" width="211" height="211"/>
	</g>
</g>
<g>
	<g>
		<defs>
			<path id="SVGID_3_" d="M646.9,528.9h-22.6L712.2,420l-2,19c-0.3,2.8,1.7,5.2,4.5,5.5c0.2,0,0.4,0,0.5,0c2.5,0,4.7-1.9,5-4.5
				l3.7-35.6c0-0.1,0-0.2,0-0.2c0-0.2,0-0.4,0-0.5c0-0.2,0-0.3,0-0.5c0-0.2,0-0.3-0.1-0.5c0-0.2-0.1-0.4-0.2-0.5
				c0-0.1,0-0.1-0.1-0.2c0-0.1-0.1-0.1-0.1-0.2c-0.1-0.2-0.2-0.3-0.3-0.5c-0.1-0.1-0.2-0.3-0.3-0.4c-0.1-0.1-0.2-0.2-0.3-0.4
				s-0.2-0.2-0.3-0.4c-0.1-0.1-0.2-0.2-0.4-0.3c-0.1-0.1-0.3-0.2-0.4-0.3c-0.1-0.1-0.3-0.1-0.4-0.2c-0.2-0.1-0.3-0.1-0.4-0.2
				c-0.2,0-0.3-0.1-0.5-0.1c-0.2,0-0.3-0.1-0.5-0.1c-0.1,0-0.1,0-0.2,0c-0.1,0-0.2,0-0.2,0c-0.2,0-0.4,0-0.5,0c-0.1,0-0.2,0-0.4,0
				c0,0-0.1,0-0.1,0c-0.2,0-0.3,0.1-0.5,0.1c0,0,0,0,0,0c-0.1,0-0.1,0-0.2,0c-0.4,0.1-0.7,0.2-1,0.4l-31.7,13.4
				c-2.5,1.1-3.7,4-2.6,6.5c0.8,1.9,2.7,3,4.6,3c0.6,0,1.3-0.1,2-0.4l13.7-5.8l-90.9,112.6H449.8c-6.6,0-12,5.4-12,12v197.1
				c0,6.6,5.4,12,12,12h193.1c8.8,0,15.9-7.1,15.9-15.9V540.8C658.8,534.2,653.5,528.9,646.9,528.9z M648.8,733.9
				c0,3.3-2.7,5.9-5.9,5.9H449.8c-1.1,0-2-0.9-2-2V540.8c0-1.1,0.9-2,2-2h153.6l-77,95.4l3.1-15.5c0.5-2.7-1.2-5.3-3.9-5.9
				c-2.7-0.5-5.3,1.2-5.9,3.9l-7,35.2c0,0.1,0,0.2,0,0.2c0,0.2,0,0.4,0,0.5c0,0.2,0,0.3,0,0.5c0,0.2,0,0.3,0,0.5
				c0,0.2,0.1,0.3,0.1,0.5c0,0.1,0,0.2,0,0.2c0,0.1,0.1,0.2,0.1,0.2c0,0.1,0.1,0.2,0.1,0.3c0.1,0.2,0.2,0.4,0.3,0.5
				c0.1,0.1,0.1,0.2,0.2,0.2c0.1,0.2,0.3,0.4,0.5,0.6c0,0,0,0.1,0.1,0.1c0.2,0.2,0.4,0.4,0.7,0.6c0.1,0,0.2,0.1,0.2,0.1
				c0.2,0.1,0.4,0.2,0.5,0.3c0.1,0,0.2,0.1,0.3,0.1c0.2,0.1,0.4,0.1,0.6,0.2c0.1,0,0.1,0,0.2,0c0,0,0,0,0.1,0c0.3,0,0.6,0.1,0.9,0.1
				l0,0l0,0c0,0,0,0,0,0c0.2,0,0.5,0,0.8-0.1c0.1,0,0.2,0,0.3-0.1c0.1,0,0.2,0,0.4-0.1l33.3-10.6c2.6-0.8,4.1-3.7,3.2-6.3
				c-0.8-2.6-3.6-4.1-6.3-3.2l-17.3,5.5l84.1-104.2h30.6c1,0,1.9,0.9,1.9,1.9V733.9z"/>
		</defs>
		<clipPath id="SVGID_4_">
			<use xlink:href="#SVGID_3_"  style="overflow:visible;"/>
		</clipPath>
		<g class="st1">
			<g class="st2">
				<g>
					<g>
						<defs>
							<rect id="SVGID_5_" x="437.8" y="398.8" width="286.1" height="351"/>
						</defs>
						<clipPath id="SVGID_6_">
							<use xlink:href="#SVGID_5_"  style="overflow:visible;"/>
						</clipPath>
						<g class="st3">
							
								<image style="overflow:visible;enable-background:new    ;" width="1200" height="1467" xlink:href="7DE0379D0C234C64.jpg"  transform="matrix(0.2386 0 0 0.2386 437.7078 399.2778)">
							</image>
						</g>
					</g>
				</g>
			</g>
		</g>
	</g>
	<g>
		<defs>
			<path id="SVGID_7_" d="M646.9,528.9h-22.6L712.2,420l-2,19c-0.3,2.8,1.7,5.2,4.5,5.5c0.2,0,0.4,0,0.5,0c2.5,0,4.7-1.9,5-4.5
				l3.7-35.6c0-0.1,0-0.2,0-0.2c0-0.2,0-0.4,0-0.5c0-0.2,0-0.3,0-0.5c0-0.2,0-0.3-0.1-0.5c0-0.2-0.1-0.4-0.2-0.5
				c0-0.1,0-0.1-0.1-0.2c0-0.1-0.1-0.1-0.1-0.2c-0.1-0.2-0.2-0.3-0.3-0.5c-0.1-0.1-0.2-0.3-0.3-0.4c-0.1-0.1-0.2-0.2-0.3-0.4
				s-0.2-0.2-0.3-0.4c-0.1-0.1-0.2-0.2-0.4-0.3c-0.1-0.1-0.3-0.2-0.4-0.3c-0.1-0.1-0.3-0.1-0.4-0.2c-0.2-0.1-0.3-0.1-0.4-0.2
				c-0.2,0-0.3-0.1-0.5-0.1c-0.2,0-0.3-0.1-0.5-0.1c-0.1,0-0.1,0-0.2,0c-0.1,0-0.2,0-0.2,0c-0.2,0-0.4,0-0.5,0c-0.1,0-0.2,0-0.4,0
				c0,0-0.1,0-0.1,0c-0.2,0-0.3,0.1-0.5,0.1c0,0,0,0,0,0c-0.1,0-0.1,0-0.2,0c-0.4,0.1-0.7,0.2-1,0.4l-31.7,13.4
				c-2.5,1.1-3.7,4-2.6,6.5c0.8,1.9,2.7,3,4.6,3c0.6,0,1.3-0.1,2-0.4l13.7-5.8l-90.9,112.6H449.8c-6.6,0-12,5.4-12,12v197.1
				c0,6.6,5.4,12,12,12h193.1c8.8,0,15.9-7.1,15.9-15.9V540.8C658.8,534.2,653.5,528.9,646.9,528.9z M648.8,733.9
				c0,3.3-2.7,5.9-5.9,5.9H449.8c-1.1,0-2-0.9-2-2V540.8c0-1.1,0.9-2,2-2h153.6l-77,95.4l3.1-15.5c0.5-2.7-1.2-5.3-3.9-5.9
				c-2.7-0.5-5.3,1.2-5.9,3.9l-7,35.2c0,0.1,0,0.2,0,0.2c0,0.2,0,0.4,0,0.5c0,0.2,0,0.3,0,0.5c0,0.2,0,0.3,0,0.5
				c0,0.2,0.1,0.3,0.1,0.5c0,0.1,0,0.2,0,0.2c0,0.1,0.1,0.2,0.1,0.2c0,0.1,0.1,0.2,0.1,0.3c0.1,0.2,0.2,0.4,0.3,0.5
				c0.1,0.1,0.1,0.2,0.2,0.2c0.1,0.2,0.3,0.4,0.5,0.6c0,0,0,0.1,0.1,0.1c0.2,0.2,0.4,0.4,0.7,0.6c0.1,0,0.2,0.1,0.2,0.1
				c0.2,0.1,0.4,0.2,0.5,0.3c0.1,0,0.2,0.1,0.3,0.1c0.2,0.1,0.4,0.1,0.6,0.2c0.1,0,0.1,0,0.2,0c0,0,0,0,0.1,0c0.3,0,0.6,0.1,0.9,0.1
				l0,0l0,0c0,0,0,0,0,0c0.2,0,0.5,0,0.8-0.1c0.1,0,0.2,0,0.3-0.1c0.1,0,0.2,0,0.4-0.1l33.3-10.6c2.6-0.8,4.1-3.7,3.2-6.3
				c-0.8-2.6-3.6-4.1-6.3-3.2l-17.3,5.5l84.1-104.2h30.6c1,0,1.9,0.9,1.9,1.9V733.9z"/>
		</defs>
		<clipPath id="SVGID_8_">
			<use xlink:href="#SVGID_7_"  style="overflow:visible;"/>
		</clipPath>
		<g class="st4">
			<g>
				<g>
					<defs>
						<rect id="SVGID_9_" x="437.8" y="398.8" width="286.1" height="351"/>
					</defs>
					<clipPath id="SVGID_10_">
						<use xlink:href="#SVGID_9_"  style="overflow:visible;"/>
					</clipPath>
					<g class="st5">
						
							<image style="overflow:visible;enable-background:new    ;" width="1200" height="1467" xlink:href="7DE0379D0C234C65.jpg"  transform="matrix(0.2386 0 0 0.2386 437.7078 399.2778)">
						</image>
					</g>
				</g>
			</g>
		</g>
	</g>
</g>
<g>
	<g>
		<defs>
			<rect id="SVGID_11_" x="515.8" y="333.7" width="294" height="299.2"/>
		</defs>
		<clipPath id="SVGID_12_">
			<use xlink:href="#SVGID_11_"  style="overflow:visible;"/>
		</clipPath>
		<g class="st6">
			<g>
				<g>
					<defs>
						<rect id="SVGID_13_" x="515.8" y="332.9" width="295" height="300"/>
					</defs>
					<clipPath id="SVGID_14_">
						<use xlink:href="#SVGID_13_"  style="overflow:visible;"/>
					</clipPath>
					<g class="st7">
						<g>
							<defs>
								<path id="SVGID_15_" d="M803.1,333.7H522.6c-3.7,0-6.7,3-6.7,6.7v179.2c0,2.8,2.2,5,5,5s5-2.2,5-5v-176h274v279.2H668.9
									c-2.8,0-5,2.2-5,5s2.2,5,5,5h134.2c3.7,0,6.7-3,6.7-6.7V340.4C809.8,336.7,806.8,333.7,803.1,333.7"/>
							</defs>
							<clipPath id="SVGID_16_">
								<use xlink:href="#SVGID_15_"  style="overflow:visible;"/>
							</clipPath>
							<g class="st8">
								<g>
									<defs>
										<rect id="SVGID_17_" x="515.8" y="332.9" width="294" height="300"/>
									</defs>
									<clipPath id="SVGID_18_">
										<use xlink:href="#SVGID_17_"  style="overflow:visible;"/>
									</clipPath>
									<g class="st9">
										<g class="st2">
											<g>
												<g>
													<defs>
														<rect id="SVGID_19_" x="515.8" y="332.9" width="294" height="300"/>
													</defs>
													<clipPath id="SVGID_20_">
														<use xlink:href="#SVGID_19_"  style="overflow:visible;"/>
													</clipPath>
													<g transform="matrix(1 0 0 1 1.525879e-05 0)" class="st10">
														
															<image style="overflow:visible;enable-background:new    ;" width="1233" height="1258" xlink:href="7DE0379D0C234C63.jpg"  transform="matrix(0.2386 0 0 0.2386 515.7078 332.748)">
														</image>
													</g>
												</g>
											</g>
										</g>
									</g>
								</g>
								<g>
									<defs>
										<rect id="SVGID_21_" x="515.8" y="332.9" width="294" height="300"/>
									</defs>
									<clipPath id="SVGID_22_">
										<use xlink:href="#SVGID_21_"  style="overflow:visible;"/>
									</clipPath>
									<g class="st11">
										<g>
											<g>
												<defs>
													<rect id="SVGID_23_" x="515.8" y="332.9" width="294" height="300"/>
												</defs>
												<clipPath id="SVGID_24_">
													<use xlink:href="#SVGID_23_"  style="overflow:visible;"/>
												</clipPath>
												<g transform="matrix(1 0 0 1 1.525879e-05 0)" class="st12">
													
														<image style="overflow:visible;enable-background:new    ;" width="1233" height="1258" xlink:href="7DE0379D0C234C6C.jpg"  transform="matrix(0.2386 0 0 0.2386 515.7078 332.748)">
													</image>
												</g>
											</g>
										</g>
									</g>
								</g>
							</g>
						</g>
					</g>
				</g>
			</g>
		</g>
	</g>
</g>
</svg>
