<?xml version="1.0" encoding="utf-8"?>
<!-- Generator: Adobe Illustrator 23.0.3, SVG Export Plug-In . SVG Version: 6.00 Build 0)  -->
<svg version="1.1" id="Layer_1" xmlns="http://www.w3.org/2000/svg" xmlns:xlink="http://www.w3.org/1999/xlink" x="0px" y="0px"
	 viewBox="0 0 1280 1024" style="enable-background:new 0 0 1280 1024;" xml:space="preserve">
<style type="text/css">
	.st0{clip-path:url(#SVGID_2_);enable-background:new    ;}
	.st1{clip-path:url(#SVGID_4_);}
	.st2{clip-path:url(#SVGID_6_);}
	.st3{opacity:0;clip-path:url(#SVGID_8_);}
	.st4{opacity:0;}
	.st5{clip-path:url(#SVGID_10_);}
	.st6{clip-path:url(#SVGID_8_);}
	.st7{clip-path:url(#SVGID_14_);}
	.st8{opacity:0;clip-path:url(#SVGID_18_);}
	.st9{clip-path:url(#SVGID_20_);}
	.st10{clip-path:url(#SVGID_18_);}
	.st11{clip-path:url(#SVGID_24_);}
</style>
<g>
	<defs>
		<rect id="SVGID_1_" x="443.6" y="335.5" width="358.8" height="409.8"/>
	</defs>
	<clipPath id="SVGID_2_">
		<use xlink:href="#SVGID_1_"  style="overflow:visible;"/>
	</clipPath>
	<g class="st0">
		<g>
			<defs>
				<rect id="SVGID_3_" x="442.6" y="334.5" width="362" height="411"/>
			</defs>
			<clipPath id="SVGID_4_">
				<use xlink:href="#SVGID_3_"  style="overflow:visible;"/>
			</clipPath>
			<g class="st1">
				<defs>
					<path id="SVGID_5_" d="M719.9,483.5l2,0.6c1.6,0.5,3.3,0.9,4.9,1.3c5.9,1.3,11.7,1.9,17.2,1.9c10.4,0,20-2.3,28.3-6.8
						c14.7-8.1,24.4-22.5,28.8-42.8c3.1-14.5,1-29.6-6-42.7l-1-1.8l-2-0.6c-1.6-0.5-3.3-0.9-4.9-1.3c-16.3-3.5-33-0.5-47,8.5
						c-14,9-23.7,22.9-27.2,39.2c-2.4,10.9-1.8,22.1,1.6,32.6c-11.8,9.5-22.9,17.6-31.3,22.4c0.7-13.9,0.4-30.2-0.4-46.1
						c14.1-8.3,24-19.4,28.7-32.2c5.8-15.7,3.6-32.9-6.5-51.2c-7.1-13-18.7-23-32.6-28.2l-1.9-0.7l-1.9,0.9
						c-1.5,0.7-3.1,1.5-4.5,2.3c-14.6,8-25.2,21.3-29.8,37.3c-4.6,16-2.8,32.9,5.3,47.5c6.9,12.6,18,22.4,31.3,27.7
						c0.6,13.2,0.9,26.3,0.6,37.6c-7.2-8.6-16.9-17.5-27.5-25.9c1.3-19.3-3.9-35.8-15.2-48c-10.4-11.2-25.8-18.1-43.3-19.5
						c-15.1-1.2-30.1,3-42.3,11.9l-1.7,1.2l-0.3,2c-0.3,1.7-0.5,3.4-0.6,5.1c-3.1,39.1,19.3,65.4,58.4,68.4c2.2,0.2,4.4,0.3,6.6,0.3
						c13.3,0,24.4-3.4,33.3-10.2c9.7,7.8,18.4,15.9,24.5,23.6H619H516.4c-4.9,0-9.1,3.1-10.5,7.8l-61.8,225.6c-1,3.4-0.3,7,1.8,9.8
						c2,2.7,5.1,4.3,8.5,4.3H790c3.3,0,6.4-1.5,8.4-4.2c2.1-2.8,2.8-6.3,1.9-9.7l-52.5-205.9l-3.5-15l-0.1-0.2
						c-0.3-1-0.6-1.9-1.1-2.8l-0.4-1.5l0-0.1c-1.3-4.7-5.7-8-10.6-8h-4.4h-28.1c6.2-4.2,13-9.3,20-14.8L719.9,483.5z M600,474.1
						c-15.4-1.2-28.1-6.6-36.8-15.6c-9.7-10.1-13.9-24.3-12.5-42.1c0.1-0.7,0.1-1.5,0.2-2.3c10-6.6,21.9-9.8,33.9-8.8
						c15,1.2,28,7,36.7,16.4c8,8.6,12.4,20.2,12.7,33.6c-5-3.7-10.1-7.3-15-10.7l0.2-19.2c0-3.3-2.6-6-5.9-6.1h-0.1
						c-3.3,0-6,2.6-6,5.9l-0.1,11.4c-9.9-6.4-18.7-11.8-24.7-15.4c-3.3-2-6.4-3.9-7.1-4.4c-2.6-2-6.4-1.6-8.4,1
						c-2,2.6-1.6,6.4,1,8.4c1,0.8,3.1,2.1,8.2,5.2c3.4,2.1,8,4.8,13.3,8.2l-16,3.8c-3.2,0.8-5.2,4-4.5,7.2c0.7,2.8,3.1,4.6,5.8,4.6
						c0.5,0,0.9-0.1,1.4-0.2l24.6-5.8c0.8-0.2,1.5-0.5,2.1-1c8.8,5.8,18.4,12.4,27.6,19.4C625.8,471.2,616.4,475.4,600,474.1z
						 M722.8,441.2c3-13.7,11.1-25.4,22.9-32.9c11.8-7.6,25.8-10.1,39.5-7.1c0.7,0.2,1.4,0.3,2.1,0.5c5.1,10.5,6.5,22.5,4,34
						c-10.1,46.2-46.9,43.4-62.3,40.1c-0.1,0-0.1,0-0.2,0c5.5-4.5,11-9.2,16.3-13.8c0.8,0.8,1.9,1.4,3.2,1.7l20.8,3.9
						c0.4,0.1,0.7,0.1,1.1,0.1c2.8,0,5.3-2,5.9-4.9c0.6-3.3-1.5-6.4-4.8-7l-15.7-3c16-14.2,28.2-25.8,29.4-26.9
						c2.4-2.3,2.5-6.1,0.2-8.5c-2.3-2.4-6.1-2.5-8.5-0.2c-4,3.8-9.4,8.8-15.6,14.5l-0.8-14c-0.2-3.3-3.1-5.8-6.3-5.6
						c-3.3,0.2-5.8,3-5.6,6.3l1.4,23.6c-8.4,7.5-17.5,15.4-26.6,22.9C721.2,457,721.1,449,722.8,441.2z M648.5,418.5
						c-6.8-12.3-8.3-26.4-4.4-39.9c3.9-13.4,12.8-24.6,25-31.3c0.6-0.3,1.3-0.7,1.9-1c10.8,4.6,19.7,12.6,25.4,22.9
						c8.6,15.6,10.6,30,5.8,42.9c-3.4,9.3-10.2,17.5-19.9,24.2c-0.4-6.2-0.8-12.2-1.3-17.8c0.4-0.2,0.8-0.4,1.2-0.6l17.5-12
						c2.7-1.9,3.4-5.6,1.5-8.3c-1.9-2.7-5.6-3.4-8.3-1.5l-13,8.9c-1.1-12-2.1-20.8-2.5-23.8c-0.4-3.3-3.4-5.6-6.7-5.3
						c-3.3,0.4-5.6,3.4-5.3,6.7c0.2,1.5,0.4,3.1,0.6,4.8l-9.8-8.7c-2.5-2.2-6.3-2-8.5,0.5c-2.2,2.5-2,6.3,0.5,8.5l18.9,16.8
						c0.2,0.2,0.4,0.3,0.6,0.4c1,10.5,1.9,22.6,2.7,34.9C661.2,435.1,653.5,427.7,648.5,418.5z M790.5,735c-0.2,0.3-0.4,0.3-0.5,0.3
						H454.4c-0.1,0-0.3,0-0.5-0.3c-0.1-0.1-0.3-0.5-0.2-1.1l61.8-225.4c0.1-0.4,0.5-0.7,0.9-0.7h102.4l-1.8,91.1
						c0,2.4,0.8,4.6,2.5,6.3c1.6,1.7,3.8,2.6,6.2,2.6h0.1l132.6-0.5L790.7,734C790.8,734.5,790.6,734.9,790.5,735z M727.8,507.8
						c2.5,0,4.8,1.3,6,3.4l4.3,16.7l16.1,69.4L627,597.8l1.8-90h41.4c-0.7,5-1.8,9.1-3.1,11.8c-1.5,3-0.3,6.6,2.7,8.1
						c0.9,0.4,1.8,0.6,2.7,0.6c2.2,0,4.3-1.2,5.4-3.3c2-4,3.4-9.9,4.4-17.1c0.1,0,0.2-0.1,0.3-0.1H727.8z"/>
				</defs>
				<clipPath id="SVGID_6_">
					<use xlink:href="#SVGID_5_"  style="overflow:visible;"/>
				</clipPath>
				<g class="st2">
					<defs>
						<rect id="SVGID_7_" x="443.6" y="335.5" width="359" height="410"/>
					</defs>
					<clipPath id="SVGID_8_">
						<use xlink:href="#SVGID_7_"  style="overflow:visible;"/>
					</clipPath>
					<g class="st3">
						<g class="st4">
							<g>
								<defs>
									<rect id="SVGID_9_" x="443.6" y="335.5" width="359" height="410"/>
								</defs>
								<clipPath id="SVGID_10_">
									<use xlink:href="#SVGID_9_"  style="overflow:visible;"/>
								</clipPath>
								<g class="st5">
									<defs>
										<rect id="SVGID_11_" x="443.6" y="335.5" width="359" height="410"/>
									</defs>
									<clipPath id="SVGID_12_">
										<use xlink:href="#SVGID_11_"  style="overflow:visible;"/>
									</clipPath>
									<g style="clip-path:url(#SVGID_12_);">
										
											<image style="overflow:visible;" width="1497" height="1710" xlink:href="353C61635D0E65C7.jpg"  transform="matrix(0.24 0 0 0.24 443.52 335.28)">
										</image>
									</g>
								</g>
							</g>
						</g>
					</g>
					<g class="st6">
						<g>
							<defs>
								<rect id="SVGID_13_" x="443.6" y="335.5" width="359" height="410"/>
							</defs>
							<clipPath id="SVGID_14_">
								<use xlink:href="#SVGID_13_"  style="overflow:visible;"/>
							</clipPath>
							<g class="st7">
								<defs>
									<rect id="SVGID_15_" x="443.6" y="335.5" width="359" height="410"/>
								</defs>
								<clipPath id="SVGID_16_">
									<use xlink:href="#SVGID_15_"  style="overflow:visible;"/>
								</clipPath>
								<g style="clip-path:url(#SVGID_16_);">
									
										<image style="overflow:visible;" width="1497" height="1710" xlink:href="353C61635D0E65C5.jpg"  transform="matrix(0.24 0 0 0.24 443.52 335.28)">
									</image>
								</g>
							</g>
						</g>
					</g>
				</g>
			</g>
		</g>
	</g>
</g>
<g>
	<defs>
		<path id="SVGID_17_" d="M599.9,623.7c0-0.3-0.1-0.5-0.2-0.8c0-0.1,0-0.1-0.1-0.2c-0.1-0.3-0.2-0.5-0.3-0.8c0,0,0-0.1-0.1-0.1
			c-0.2-0.3-0.3-0.5-0.5-0.8c0,0,0,0,0,0v0c-0.2-0.2-0.4-0.5-0.7-0.7c0,0,0,0-0.1-0.1c-0.2-0.2-0.5-0.3-0.7-0.5c0,0-0.1,0-0.1-0.1
			c-0.2-0.1-0.5-0.2-0.8-0.3c-0.1,0-0.1,0-0.2,0c-0.3-0.1-0.5-0.1-0.8-0.2c0,0-0.1,0-0.1,0c-0.1,0-0.2,0-0.4,0h-26.5
			c-2.8,0-5,2.2-5,5c0,2.8,2.2,5,5,5h12.7l-70.5,59.2c-2.1,1.8-2.4,4.9-0.6,7c1,1.2,2.4,1.8,3.8,1.8c1.1,0,2.3-0.4,3.2-1.2
			l70.4-59.1l-2.3,12.8c-0.5,2.7,1.3,5.3,4,5.8c0.3,0.1,0.6,0.1,0.9,0.1c2.4,0,4.5-1.7,4.9-4.1l4.8-26.4c0-0.1,0-0.3,0-0.4
			c0,0,0-0.1,0-0.1c0-0.3,0-0.6,0-0.8C599.9,623.8,599.9,623.8,599.9,623.7z"/>
	</defs>
	<clipPath id="SVGID_18_">
		<use xlink:href="#SVGID_17_"  style="overflow:visible;"/>
	</clipPath>
	<g class="st8">
		<g class="st4">
			<g>
				<defs>
					<rect id="SVGID_19_" x="508.3" y="619.3" width="91.6" height="78"/>
				</defs>
				<clipPath id="SVGID_20_">
					<use xlink:href="#SVGID_19_"  style="overflow:visible;"/>
				</clipPath>
				<g class="st9">
					<defs>
						<rect id="SVGID_21_" x="508.3" y="619.3" width="91.6" height="78"/>
					</defs>
					<clipPath id="SVGID_22_">
						<use xlink:href="#SVGID_21_"  style="overflow:visible;"/>
					</clipPath>
					<g style="clip-path:url(#SVGID_22_);">
						
							<image style="overflow:visible;" width="383" height="326" xlink:href="353C61635D0E65CB.jpg"  transform="matrix(0.24 0 0 0.24 508.08 619.2)">
						</image>
					</g>
				</g>
			</g>
		</g>
	</g>
	<g class="st10">
		<g>
			<defs>
				<rect id="SVGID_23_" x="508.3" y="619.3" width="91.6" height="78"/>
			</defs>
			<clipPath id="SVGID_24_">
				<use xlink:href="#SVGID_23_"  style="overflow:visible;"/>
			</clipPath>
			<g class="st11">
				<defs>
					<rect id="SVGID_25_" x="508.3" y="619.3" width="91.6" height="78"/>
				</defs>
				<clipPath id="SVGID_26_">
					<use xlink:href="#SVGID_25_"  style="overflow:visible;"/>
				</clipPath>
				<g style="clip-path:url(#SVGID_26_);">
					
						<image style="overflow:visible;" width="383" height="326" xlink:href="353C61635D0E65CD.jpg"  transform="matrix(0.24 0 0 0.24 508.08 619.2)">
					</image>
				</g>
			</g>
		</g>
	</g>
</g>
</svg>
