<?xml version="1.0" encoding="utf-8"?>
<!-- Generator: Adobe Illustrator 23.0.3, SVG Export Plug-In . SVG Version: 6.00 Build 0)  -->
<svg version="1.1" id="Layer_1" xmlns="http://www.w3.org/2000/svg" xmlns:xlink="http://www.w3.org/1999/xlink" x="0px" y="0px"
	 viewBox="0 0 1280 1024" style="enable-background:new 0 0 1280 1024;" xml:space="preserve">
<style type="text/css">
	.st0{clip-path:url(#SVGID_2_);enable-background:new    ;}
	.st1{clip-path:url(#SVGID_4_);}
	.st2{clip-path:url(#SVGID_6_);}
	.st3{opacity:0;clip-path:url(#SVGID_8_);}
	.st4{opacity:0;}
	.st5{clip-path:url(#SVGID_10_);}
	.st6{clip-path:url(#SVGID_8_);}
	.st7{clip-path:url(#SVGID_14_);}
	.st8{opacity:0;clip-path:url(#SVGID_18_);}
	.st9{clip-path:url(#SVGID_20_);}
	.st10{clip-path:url(#SVGID_18_);}
	.st11{clip-path:url(#SVGID_24_);}
	.st12{opacity:0;clip-path:url(#SVGID_28_);}
	.st13{clip-path:url(#SVGID_30_);}
	.st14{clip-path:url(#SVGID_28_);}
	.st15{clip-path:url(#SVGID_34_);}
	.st16{opacity:0;clip-path:url(#SVGID_38_);}
	.st17{clip-path:url(#SVGID_40_);}
	.st18{clip-path:url(#SVGID_38_);}
	.st19{clip-path:url(#SVGID_44_);}
</style>
<g>
	<defs>
		<rect id="SVGID_1_" x="461.3" y="333.1" width="166.9" height="253.3"/>
	</defs>
	<clipPath id="SVGID_2_">
		<use xlink:href="#SVGID_1_"  style="overflow:visible;"/>
	</clipPath>
	<g class="st0">
		<g>
			<defs>
				<rect id="SVGID_3_" x="460.3" y="333.1" width="168" height="254"/>
			</defs>
			<clipPath id="SVGID_4_">
				<use xlink:href="#SVGID_3_"  style="overflow:visible;"/>
			</clipPath>
			<g class="st1">
				<defs>
					<path id="SVGID_5_" d="M461.3,500.7c0,47.3,33.9,85.7,81.2,85.7c47.3,0,85.7-38.4,85.7-85.7s-53.9-123.8-85.7-167.6
						C542.5,371.3,461.3,453.4,461.3,500.7 M588.6,420.5c19.6,34.4,29.6,61.3,29.6,80.2c0,41.7-33.9,75.7-75.7,75.7
						c-19.8,0-37.9-7.8-51-21.9c-13-14-20.2-33.1-20.2-53.8c0-22,22.4-56.4,42.2-86.8c13.9-21.3,26.5-40.7,33.4-57.5
						C561.1,376.4,575.9,398.3,588.6,420.5"/>
				</defs>
				<clipPath id="SVGID_6_">
					<use xlink:href="#SVGID_5_"  style="overflow:visible;"/>
				</clipPath>
				<g class="st2">
					<defs>
						<rect id="SVGID_7_" x="461.3" y="333.1" width="167" height="254"/>
					</defs>
					<clipPath id="SVGID_8_">
						<use xlink:href="#SVGID_7_"  style="overflow:visible;"/>
					</clipPath>
					<g class="st3">
						<g class="st4">
							<g>
								<defs>
									<rect id="SVGID_9_" x="461.3" y="333.1" width="167" height="254"/>
								</defs>
								<clipPath id="SVGID_10_">
									<use xlink:href="#SVGID_9_"  style="overflow:visible;"/>
								</clipPath>
								<g class="st5">
									<defs>
										<rect id="SVGID_11_" x="461.3" y="333.1" width="167" height="254"/>
									</defs>
									<clipPath id="SVGID_12_">
										<use xlink:href="#SVGID_11_"  style="overflow:visible;"/>
									</clipPath>
									<g style="clip-path:url(#SVGID_12_);">
										
											<image style="overflow:visible;" width="696" height="1060" xlink:href="D9303C3F557B3AB9.jpg"  transform="matrix(0.24 0 0 0.24 461.28 332.88)">
										</image>
									</g>
								</g>
							</g>
						</g>
					</g>
					<g class="st6">
						<g>
							<defs>
								<rect id="SVGID_13_" x="461.3" y="333.1" width="167" height="254"/>
							</defs>
							<clipPath id="SVGID_14_">
								<use xlink:href="#SVGID_13_"  style="overflow:visible;"/>
							</clipPath>
							<g class="st7">
								<defs>
									<rect id="SVGID_15_" x="461.3" y="333.1" width="167" height="254"/>
								</defs>
								<clipPath id="SVGID_16_">
									<use xlink:href="#SVGID_15_"  style="overflow:visible;"/>
								</clipPath>
								<g style="clip-path:url(#SVGID_16_);">
									
										<image style="overflow:visible;" width="696" height="1060" xlink:href="D9303C3F557B3ABB.jpg"  transform="matrix(0.24 0 0 0.24 461.28 332.88)">
									</image>
								</g>
							</g>
						</g>
					</g>
				</g>
			</g>
		</g>
	</g>
</g>
<g>
	<defs>
		<path id="SVGID_17_" d="M501.1,485.7c0.8-2.6-0.7-5.4-3.3-6.2c-2.6-0.8-5.4,0.7-6.2,3.3c-10.2,33.3,16.6,62.4,17.7,63.7
			c1,1.1,2.3,1.6,3.7,1.6c1.2,0,2.5-0.4,3.4-1.4c2-1.9,2.1-5.1,0.2-7.1C515.6,538.6,492.5,513.6,501.1,485.7"/>
	</defs>
	<clipPath id="SVGID_18_">
		<use xlink:href="#SVGID_17_"  style="overflow:visible;"/>
	</clipPath>
	<g class="st8">
		<g class="st4">
			<g>
				<defs>
					<rect id="SVGID_19_" x="481.3" y="478.7" width="37.1" height="69.4"/>
				</defs>
				<clipPath id="SVGID_20_">
					<use xlink:href="#SVGID_19_"  style="overflow:visible;"/>
				</clipPath>
				<g class="st9">
					<defs>
						<rect id="SVGID_21_" x="481.3" y="478.7" width="37.1" height="69.4"/>
					</defs>
					<clipPath id="SVGID_22_">
						<use xlink:href="#SVGID_21_"  style="overflow:visible;"/>
					</clipPath>
					<g style="clip-path:url(#SVGID_22_);">
						
							<image style="overflow:visible;" width="156" height="290" xlink:href="D9303C3F557B3ABE.jpg"  transform="matrix(0.24 0 0 0.24 481.2 478.56)">
						</image>
					</g>
				</g>
			</g>
		</g>
	</g>
	<g class="st10">
		<g>
			<defs>
				<rect id="SVGID_23_" x="481.3" y="478.7" width="37.1" height="69.4"/>
			</defs>
			<clipPath id="SVGID_24_">
				<use xlink:href="#SVGID_23_"  style="overflow:visible;"/>
			</clipPath>
			<g class="st11">
				<defs>
					<rect id="SVGID_25_" x="481.3" y="478.7" width="37.1" height="69.4"/>
				</defs>
				<clipPath id="SVGID_26_">
					<use xlink:href="#SVGID_25_"  style="overflow:visible;"/>
				</clipPath>
				<g style="clip-path:url(#SVGID_26_);">
					
						<image style="overflow:visible;" width="156" height="290" xlink:href="D9303C3F557B3ABF.jpg"  transform="matrix(0.24 0 0 0.24 481.2 478.56)">
					</image>
				</g>
			</g>
		</g>
	</g>
</g>
<g>
	<defs>
		<path id="SVGID_27_" d="M756.4,656.5c0,13.7-29.1,43.2-29.1,60.1c0,17,12.2,30.7,29.1,30.7c17,0,30.7-13.8,30.7-30.7
			C787.2,699.7,767.8,672.2,756.4,656.5 M756.4,737.4c-5.4,0-10.1-2-13.6-5.8c-3.6-3.8-5.5-9.1-5.5-14.9c0-6,8.2-18.5,14.1-27.6
			c2.7-4.1,5.2-8,7.4-11.7c8.6,12.9,18.4,29.5,18.4,39.3C777.2,728.1,767.9,737.4,756.4,737.4"/>
	</defs>
	<clipPath id="SVGID_28_">
		<use xlink:href="#SVGID_27_"  style="overflow:visible;"/>
	</clipPath>
	<g class="st12">
		<g class="st4">
			<g>
				<defs>
					<rect id="SVGID_29_" x="727.3" y="656.5" width="59.9" height="90.9"/>
				</defs>
				<clipPath id="SVGID_30_">
					<use xlink:href="#SVGID_29_"  style="overflow:visible;"/>
				</clipPath>
				<g class="st13">
					<defs>
						<rect id="SVGID_31_" x="727.3" y="656.5" width="59.9" height="90.9"/>
					</defs>
					<clipPath id="SVGID_32_">
						<use xlink:href="#SVGID_31_"  style="overflow:visible;"/>
					</clipPath>
					<g style="clip-path:url(#SVGID_32_);">
						
							<image style="overflow:visible;" width="250" height="380" xlink:href="D9303C3F557B3ABA.jpg"  transform="matrix(0.24 0 0 0.24 727.2 656.4)">
						</image>
					</g>
				</g>
			</g>
		</g>
	</g>
	<g class="st14">
		<g>
			<defs>
				<rect id="SVGID_33_" x="727.3" y="656.5" width="59.9" height="90.9"/>
			</defs>
			<clipPath id="SVGID_34_">
				<use xlink:href="#SVGID_33_"  style="overflow:visible;"/>
			</clipPath>
			<g class="st15">
				<defs>
					<rect id="SVGID_35_" x="727.3" y="656.5" width="59.9" height="90.9"/>
				</defs>
				<clipPath id="SVGID_36_">
					<use xlink:href="#SVGID_35_"  style="overflow:visible;"/>
				</clipPath>
				<g style="clip-path:url(#SVGID_36_);">
					
						<image style="overflow:visible;" width="250" height="380" xlink:href="D9303C3F557B3AB5.jpg"  transform="matrix(0.24 0 0 0.24 727.2 656.4)">
					</image>
				</g>
			</g>
		</g>
	</g>
</g>
<g>
	<defs>
		<path id="SVGID_37_" d="M702.3,635.5c-2.7-0.2-5.2,1.8-5.4,4.5l-1.1,12.7l-52.7-75.5c-1.6-2.3-4.7-2.8-7-1.2
			c-2.3,1.6-2.8,4.7-1.2,7l52.6,75.4l-12.5-3.5c-2.7-0.7-5.4,0.8-6.1,3.5c-0.7,2.7,0.8,5.4,3.5,6.2l25.9,7.1c0,0,0.1,0,0.1,0
			c0.1,0,0.3,0.1,0.4,0.1c0.1,0,0.1,0,0.2,0c0.2,0,0.4,0,0.6,0c0,0,0,0,0,0h0h0c0.8,0,1.6-0.2,2.3-0.6c0.2-0.1,0.3-0.2,0.5-0.3
			c0,0,0,0,0,0c0,0,0,0,0,0c0,0,0,0,0,0c0.3-0.2,0.5-0.4,0.7-0.6c0,0,0.1,0,0.1-0.1c0.2-0.2,0.4-0.4,0.5-0.7c0,0,0.1-0.1,0.1-0.1
			c0.1-0.2,0.3-0.5,0.4-0.7c0-0.1,0-0.1,0.1-0.2c0.1-0.3,0.2-0.5,0.2-0.8c0,0,0-0.1,0-0.1c0-0.1,0-0.2,0.1-0.4l2.4-26.4
			C707.1,638.2,705.1,635.7,702.3,635.5"/>
	</defs>
	<clipPath id="SVGID_38_">
		<use xlink:href="#SVGID_37_"  style="overflow:visible;"/>
	</clipPath>
	<g class="st16">
		<g class="st4">
			<g>
				<defs>
					<rect id="SVGID_39_" x="633.3" y="574.4" width="73.8" height="97.4"/>
				</defs>
				<clipPath id="SVGID_40_">
					<use xlink:href="#SVGID_39_"  style="overflow:visible;"/>
				</clipPath>
				<g class="st17">
					<defs>
						<rect id="SVGID_41_" x="633.3" y="574.4" width="73.8" height="97.4"/>
					</defs>
					<clipPath id="SVGID_42_">
						<use xlink:href="#SVGID_41_"  style="overflow:visible;"/>
					</clipPath>
					<g style="clip-path:url(#SVGID_42_);">
						
							<image style="overflow:visible;" width="309" height="407" xlink:href="D9303C3F557B3AB6.jpg"  transform="matrix(0.24 0 0 0.24 633.12 574.32)">
						</image>
					</g>
				</g>
			</g>
		</g>
	</g>
	<g class="st18">
		<g>
			<defs>
				<rect id="SVGID_43_" x="633.3" y="574.4" width="73.8" height="97.4"/>
			</defs>
			<clipPath id="SVGID_44_">
				<use xlink:href="#SVGID_43_"  style="overflow:visible;"/>
			</clipPath>
			<g class="st19">
				<defs>
					<rect id="SVGID_45_" x="633.3" y="574.4" width="73.8" height="97.4"/>
				</defs>
				<clipPath id="SVGID_46_">
					<use xlink:href="#SVGID_45_"  style="overflow:visible;"/>
				</clipPath>
				<g style="clip-path:url(#SVGID_46_);">
					
						<image style="overflow:visible;" width="309" height="407" xlink:href="D9303C3F557B3AB7.jpg"  transform="matrix(0.24 0 0 0.24 633.12 574.32)">
					</image>
				</g>
			</g>
		</g>
	</g>
</g>
</svg>
