<?xml version="1.0" encoding="utf-8"?>
<!-- Generator: Adobe Illustrator 23.0.3, SVG Export Plug-In . SVG Version: 6.00 Build 0)  -->
<svg version="1.1" id="Layer_1" xmlns="http://www.w3.org/2000/svg" xmlns:xlink="http://www.w3.org/1999/xlink" x="0px" y="0px"
	 viewBox="0 0 1280 1024" style="enable-background:new 0 0 1280 1024;" xml:space="preserve">
<style type="text/css">
	.st0{opacity:0;clip-path:url(#SVGID_2_);}
	.st1{opacity:0;}
	.st2{clip-path:url(#SVGID_4_);}
	.st3{clip-path:url(#SVGID_6_);}
	.st4{clip-path:url(#SVGID_8_);}
	.st5{opacity:0;clip-path:url(#SVGID_10_);}
	.st6{clip-path:url(#SVGID_12_);}
	.st7{clip-path:url(#SVGID_14_);}
	.st8{clip-path:url(#SVGID_16_);}
	.st9{opacity:0;clip-path:url(#SVGID_18_);}
	.st10{clip-path:url(#SVGID_20_);}
	.st11{clip-path:url(#SVGID_22_);}
	.st12{clip-path:url(#SVGID_24_);}
	.st13{opacity:0;clip-path:url(#SVGID_26_);}
	.st14{clip-path:url(#SVGID_28_);}
	.st15{clip-path:url(#SVGID_30_);}
	.st16{clip-path:url(#SVGID_32_);}
	.st17{opacity:0;clip-path:url(#SVGID_34_);}
	.st18{clip-path:url(#SVGID_36_);}
	.st19{clip-path:url(#SVGID_38_);}
	.st20{clip-path:url(#SVGID_40_);}
</style>
<g>
	<g>
		<defs>
			<path id="SVGID_1_" d="M615.2,298.4c-0.3-2.7-2.8-4.7-5.6-4.3c-43.1,5.4-84,33.1-112.3,76c-27.3,41.5-39.8,91.7-35.8,142.6
				l-13.7-24.1c-1.4-2.4-4.4-3.2-6.8-1.9c-2.4,1.4-3.2,4.4-1.9,6.8l25.8,45.3c0.1,0.2,0.2,0.3,0.3,0.5c0,0,0,0,0,0.1
				c0.2,0.2,0.4,0.4,0.6,0.6c0,0,0.1,0.1,0.2,0.1c0.2,0.2,0.4,0.3,0.6,0.5c0,0,0.1,0,0.1,0.1c0.3,0.1,0.5,0.3,0.8,0.4
				c0,0,0.1,0,0.1,0c0,0,0.1,0,0.1,0c0.2,0.1,0.4,0.1,0.5,0.1c0.1,0,0.1,0,0.2,0c0.2,0,0.5,0.1,0.7,0.1h0l0,0l0,0
				c0.2,0,0.5,0,0.7-0.1c0.1,0,0.1,0,0.2,0c0.2,0,0.3-0.1,0.5-0.1c0.1,0,0.2,0,0.2-0.1c0.1,0,0.3-0.1,0.4-0.2c0.1,0,0.2-0.1,0.2-0.1
				c0.1,0,0.1,0,0.1-0.1c0,0,0.1-0.1,0.1-0.1c0.2-0.1,0.4-0.2,0.5-0.4c0.1-0.1,0.1-0.1,0.2-0.2c0.2-0.2,0.4-0.4,0.6-0.6c0,0,0,0,0,0
				c0.2-0.2,0.3-0.5,0.5-0.8c0-0.1,0.1-0.2,0.1-0.3c0.1-0.1,0.1-0.2,0.2-0.4l16.2-47.5c0.9-2.6-0.5-5.5-3.1-6.4
				c-2.6-0.9-5.5,0.5-6.4,3.1l-9.1,26.6c-4.4-49.4,7.6-98.2,34-138.3c26.6-40.5,65-66.6,105.2-71.6
				C613.6,303.6,615.5,301.1,615.2,298.4"/>
		</defs>
		<clipPath id="SVGID_2_">
			<use xlink:href="#SVGID_1_"  style="overflow:visible;"/>
		</clipPath>
		<g class="st0">
			<g class="st1">
				<g>
					<g>
						<defs>
							<rect id="SVGID_3_" x="437.8" y="293.7" width="177.7" height="247.6"/>
						</defs>
						<clipPath id="SVGID_4_">
							<use xlink:href="#SVGID_3_"  style="overflow:visible;"/>
						</clipPath>
						<g transform="matrix(1 0 0 1 0 1.525879e-05)" class="st2">
							
								<image style="overflow:visible;enable-background:new    ;" width="746" height="1038" xlink:href="B316D2C7417003C5.jpg"  transform="matrix(0.2387 0 0 0.2387 437.5638 293.6496)">
							</image>
						</g>
					</g>
				</g>
			</g>
		</g>
	</g>
	<g>
		<defs>
			<path id="SVGID_5_" d="M615.2,298.4c-0.3-2.7-2.8-4.7-5.6-4.3c-43.1,5.4-84,33.1-112.3,76c-27.3,41.5-39.8,91.7-35.8,142.6
				l-13.7-24.1c-1.4-2.4-4.4-3.2-6.8-1.9c-2.4,1.4-3.2,4.4-1.9,6.8l25.8,45.3c0.1,0.2,0.2,0.3,0.3,0.5c0,0,0,0,0,0.1
				c0.2,0.2,0.4,0.4,0.6,0.6c0,0,0.1,0.1,0.2,0.1c0.2,0.2,0.4,0.3,0.6,0.5c0,0,0.1,0,0.1,0.1c0.3,0.1,0.5,0.3,0.8,0.4
				c0,0,0.1,0,0.1,0c0,0,0.1,0,0.1,0c0.2,0.1,0.4,0.1,0.5,0.1c0.1,0,0.1,0,0.2,0c0.2,0,0.5,0.1,0.7,0.1h0l0,0l0,0
				c0.2,0,0.5,0,0.7-0.1c0.1,0,0.1,0,0.2,0c0.2,0,0.3-0.1,0.5-0.1c0.1,0,0.2,0,0.2-0.1c0.1,0,0.3-0.1,0.4-0.2c0.1,0,0.2-0.1,0.2-0.1
				c0.1,0,0.1,0,0.1-0.1c0,0,0.1-0.1,0.1-0.1c0.2-0.1,0.4-0.2,0.5-0.4c0.1-0.1,0.1-0.1,0.2-0.2c0.2-0.2,0.4-0.4,0.6-0.6c0,0,0,0,0,0
				c0.2-0.2,0.3-0.5,0.5-0.8c0-0.1,0.1-0.2,0.1-0.3c0.1-0.1,0.1-0.2,0.2-0.4l16.2-47.5c0.9-2.6-0.5-5.5-3.1-6.4
				c-2.6-0.9-5.5,0.5-6.4,3.1l-9.1,26.6c-4.4-49.4,7.6-98.2,34-138.3c26.6-40.5,65-66.6,105.2-71.6
				C613.6,303.6,615.5,301.1,615.2,298.4"/>
		</defs>
		<clipPath id="SVGID_6_">
			<use xlink:href="#SVGID_5_"  style="overflow:visible;"/>
		</clipPath>
		<g class="st3">
			<g>
				<g>
					<defs>
						<rect id="SVGID_7_" x="437.8" y="293.7" width="177.7" height="247.6"/>
					</defs>
					<clipPath id="SVGID_8_">
						<use xlink:href="#SVGID_7_"  style="overflow:visible;"/>
					</clipPath>
					<g transform="matrix(1 0 0 1 0 1.525879e-05)" class="st4">
						
							<image style="overflow:visible;enable-background:new    ;" width="746" height="1038" xlink:href="B316D2C7417003C7.jpg"  transform="matrix(0.2387 0 0 0.2387 437.5638 293.6496)">
						</image>
					</g>
				</g>
			</g>
		</g>
	</g>
</g>
<g>
	<g>
		<defs>
			<path id="SVGID_9_" d="M635.3,647.2c54.5,0,98.7-44.2,98.7-98.7s-62.1-142.7-98.7-193.1c0,44-93.5,138.6-93.5,193.1
				S580.8,647.2,635.3,647.2 M599.5,446.9c11.3-17.3,22-33.7,30.1-48.9c4.4-8.1,7.7-15.3,10-21.7c17.2,24.1,35.6,51.1,51.2,78.4
				c22.9,40,34.5,71.6,34.5,93.8c0,49.7-40.4,90.1-90.1,90.1c-23.6,0-45.2-9.3-60.9-26.1c-15.5-16.7-24-39.4-24-63.9
				C550.4,522.3,576.5,482.3,599.5,446.9"/>
		</defs>
		<clipPath id="SVGID_10_">
			<use xlink:href="#SVGID_9_"  style="overflow:visible;"/>
		</clipPath>
		<g class="st5">
			<g class="st1">
				<g>
					<g>
						<defs>
							<rect id="SVGID_11_" x="541.8" y="355.4" width="192.2" height="291.8"/>
						</defs>
						<clipPath id="SVGID_12_">
							<use xlink:href="#SVGID_11_"  style="overflow:visible;"/>
						</clipPath>
						<g class="st6">
							
								<image style="overflow:visible;enable-background:new    ;" width="933" height="1413" xlink:href="B316D2C7417003C2.jpg"  transform="matrix(0.2061 0 0 0.2061 541.7486 355.6729)">
							</image>
						</g>
					</g>
				</g>
			</g>
		</g>
	</g>
	<g>
		<defs>
			<path id="SVGID_13_" d="M635.3,647.2c54.5,0,98.7-44.2,98.7-98.7s-62.1-142.7-98.7-193.1c0,44-93.5,138.6-93.5,193.1
				S580.8,647.2,635.3,647.2 M599.5,446.9c11.3-17.3,22-33.7,30.1-48.9c4.4-8.1,7.7-15.3,10-21.7c17.2,24.1,35.6,51.1,51.2,78.4
				c22.9,40,34.5,71.6,34.5,93.8c0,49.7-40.4,90.1-90.1,90.1c-23.6,0-45.2-9.3-60.9-26.1c-15.5-16.7-24-39.4-24-63.9
				C550.4,522.3,576.5,482.3,599.5,446.9"/>
		</defs>
		<clipPath id="SVGID_14_">
			<use xlink:href="#SVGID_13_"  style="overflow:visible;"/>
		</clipPath>
		<g class="st7">
			<g>
				<g>
					<defs>
						<rect id="SVGID_15_" x="541.8" y="355.4" width="192.2" height="291.8"/>
					</defs>
					<clipPath id="SVGID_16_">
						<use xlink:href="#SVGID_15_"  style="overflow:visible;"/>
					</clipPath>
					<g class="st8">
						
							<image style="overflow:visible;enable-background:new    ;" width="933" height="1413" xlink:href="B316D2C7417003C3.jpg"  transform="matrix(0.2061 0 0 0.2061 541.7486 355.6729)">
						</image>
					</g>
				</g>
			</g>
		</g>
	</g>
</g>
<g>
	<g>
		<defs>
			<path id="SVGID_17_" d="M777.5,684.2c0.1-0.2,0.1-0.3,0.2-0.5c0-0.2,0.1-0.3,0.1-0.5c0-0.2,0-0.3,0.1-0.5c0-0.2,0-0.3,0-0.5
				c0-0.1,0-0.2,0-0.3c0,0,0-0.1,0-0.2c0-0.2-0.1-0.3-0.1-0.5c0-0.2-0.1-0.3-0.1-0.5s-0.1-0.3-0.2-0.5s-0.1-0.3-0.2-0.4
				c-0.1-0.1-0.2-0.3-0.3-0.4c-0.1-0.1-0.2-0.3-0.3-0.4s-0.2-0.2-0.4-0.3c-0.1-0.1-0.2-0.2-0.4-0.3c0,0-0.1-0.1-0.1-0.1
				c-0.1-0.1-0.2-0.1-0.3-0.2c-0.1-0.1-0.3-0.2-0.4-0.2c-0.2-0.1-0.3-0.1-0.5-0.2c-0.1,0-0.3-0.1-0.4-0.1c-0.2,0-0.3-0.1-0.5-0.1
				c-0.1,0-0.3,0-0.4,0c-0.2,0-0.4,0-0.5,0c-0.1,0-0.2,0-0.3,0l-49.9,5.3c-2.8,0.3-4.7,2.8-4.5,5.5c0.3,2.6,2.4,4.5,5,4.5
				c0.2,0,0.3,0,0.5,0l27.8-2.9c-43.6,25.3-93.9,34.8-142.1,26.8c-47.7-7.9-87.2-32.3-108.4-67c-1.4-2.4-4.5-3.1-6.9-1.7
				c-2.4,1.4-3.1,4.5-1.6,6.9C515,691.9,557,718,607.5,726.4c11.7,1.9,23.5,2.9,35.3,2.9c38.6,0,77.2-10.3,111.9-30L738.6,722
				c-1.6,2.2-1.1,5.4,1.2,7c0.9,0.6,1.9,0.9,2.9,0.9c1.6,0,3.1-0.7,4.1-2.1l30.2-42.5c0.1-0.1,0.1-0.2,0.1-0.3
				c0.1-0.2,0.2-0.3,0.3-0.5C777.4,684.5,777.4,684.3,777.5,684.2"/>
		</defs>
		<clipPath id="SVGID_18_">
			<use xlink:href="#SVGID_17_"  style="overflow:visible;"/>
		</clipPath>
		<g class="st9">
			<g class="st1">
				<g>
					<g>
						<defs>
							<rect id="SVGID_19_" x="490.8" y="646.5" width="287" height="83.4"/>
						</defs>
						<clipPath id="SVGID_20_">
							<use xlink:href="#SVGID_19_"  style="overflow:visible;"/>
						</clipPath>
						<g class="st10">
							
								<image style="overflow:visible;enable-background:new    ;" width="1200" height="350" xlink:href="B316D2C7417003CD.jpg"  transform="matrix(0.2386 0 0 0.2386 491.0666 646.4772)">
							</image>
						</g>
					</g>
				</g>
			</g>
		</g>
	</g>
	<g>
		<defs>
			<path id="SVGID_21_" d="M777.5,684.2c0.1-0.2,0.1-0.3,0.2-0.5c0-0.2,0.1-0.3,0.1-0.5c0-0.2,0-0.3,0.1-0.5c0-0.2,0-0.3,0-0.5
				c0-0.1,0-0.2,0-0.3c0,0,0-0.1,0-0.2c0-0.2-0.1-0.3-0.1-0.5c0-0.2-0.1-0.3-0.1-0.5s-0.1-0.3-0.2-0.5s-0.1-0.3-0.2-0.4
				c-0.1-0.1-0.2-0.3-0.3-0.4c-0.1-0.1-0.2-0.3-0.3-0.4s-0.2-0.2-0.4-0.3c-0.1-0.1-0.2-0.2-0.4-0.3c0,0-0.1-0.1-0.1-0.1
				c-0.1-0.1-0.2-0.1-0.3-0.2c-0.1-0.1-0.3-0.2-0.4-0.2c-0.2-0.1-0.3-0.1-0.5-0.2c-0.1,0-0.3-0.1-0.4-0.1c-0.2,0-0.3-0.1-0.5-0.1
				c-0.1,0-0.3,0-0.4,0c-0.2,0-0.4,0-0.5,0c-0.1,0-0.2,0-0.3,0l-49.9,5.3c-2.8,0.3-4.7,2.8-4.5,5.5c0.3,2.6,2.4,4.5,5,4.5
				c0.2,0,0.3,0,0.5,0l27.8-2.9c-43.6,25.3-93.9,34.8-142.1,26.8c-47.7-7.9-87.2-32.3-108.4-67c-1.4-2.4-4.5-3.1-6.9-1.7
				c-2.4,1.4-3.1,4.5-1.6,6.9C515,691.9,557,718,607.5,726.4c11.7,1.9,23.5,2.9,35.3,2.9c38.6,0,77.2-10.3,111.9-30L738.6,722
				c-1.6,2.2-1.1,5.4,1.2,7c0.9,0.6,1.9,0.9,2.9,0.9c1.6,0,3.1-0.7,4.1-2.1l30.2-42.5c0.1-0.1,0.1-0.2,0.1-0.3
				c0.1-0.2,0.2-0.3,0.3-0.5C777.4,684.5,777.4,684.3,777.5,684.2"/>
		</defs>
		<clipPath id="SVGID_22_">
			<use xlink:href="#SVGID_21_"  style="overflow:visible;"/>
		</clipPath>
		<g class="st11">
			<g>
				<g>
					<defs>
						<rect id="SVGID_23_" x="490.8" y="646.5" width="287" height="83.4"/>
					</defs>
					<clipPath id="SVGID_24_">
						<use xlink:href="#SVGID_23_"  style="overflow:visible;"/>
					</clipPath>
					<g class="st12">
						
							<image style="overflow:visible;enable-background:new    ;" width="1200" height="350" xlink:href="B316D2C7417003CF.jpg"  transform="matrix(0.2386 0 0 0.2386 491.0666 646.4772)">
						</image>
					</g>
				</g>
			</g>
		</g>
	</g>
</g>
<g>
	<g>
		<defs>
			<path id="SVGID_25_" d="M826.3,441.8c-16.7-47.9-50.2-88.8-94.5-116.1l27.7,3.2c0.2,0,0.4,0,0.6,0c2.5,0,4.7-1.9,5-4.4
				c0.3-2.7-1.6-5.2-4.4-5.5l-51.7-6.1c-0.1,0-0.2,0-0.3,0c-0.2,0-0.3,0-0.5,0c-0.2,0-0.3,0-0.5,0c-0.2,0-0.3,0-0.5,0.1
				c-0.2,0-0.3,0.1-0.5,0.2c-0.1,0-0.3,0.1-0.4,0.2c-0.2,0.1-0.3,0.2-0.5,0.3c-0.1,0-0.2,0.1-0.2,0.1c0,0-0.1,0.1-0.1,0.1
				c-0.2,0.1-0.3,0.2-0.4,0.4c-0.1,0.1-0.2,0.2-0.3,0.3c-0.1,0.1-0.2,0.3-0.3,0.4c-0.1,0.1-0.2,0.2-0.3,0.4
				c-0.1,0.1-0.1,0.3-0.2,0.4s-0.1,0.3-0.2,0.5c0,0.1-0.1,0.3-0.1,0.4c0,0.2-0.1,0.4-0.1,0.5c0,0,0,0.1,0,0.1c0,0.1,0,0.2,0,0.3
				c0,0.2,0,0.4,0,0.5c0,0.2,0,0.3,0,0.5c0,0.2,0,0.3,0.1,0.5c0,0.2,0.1,0.3,0.1,0.5c0,0.1,0.1,0.3,0.2,0.4c0.1,0.2,0.2,0.3,0.3,0.5
				c0,0.1,0.1,0.2,0.1,0.3l28.6,41.2c1,1.4,2.5,2.1,4.1,2.1c1,0,2-0.3,2.8-0.9c2.3-1.6,2.8-4.7,1.3-7l-15.9-23
				c43.1,26.1,75.6,65.6,91.7,111.8c16,45.6,13.5,92-6.7,127.2c-1.4,2.4-0.5,5.5,1.8,6.8c0.8,0.5,1.6,0.7,2.5,0.7
				c1.7,0,3.4-0.9,4.3-2.5C840.5,539.5,843.2,490.1,826.3,441.8"/>
		</defs>
		<clipPath id="SVGID_26_">
			<use xlink:href="#SVGID_25_"  style="overflow:visible;"/>
		</clipPath>
		<g class="st13">
			<g class="st1">
				<g>
					<g>
						<defs>
							<rect id="SVGID_27_" x="703.4" y="312.8" width="139.8" height="266.9"/>
						</defs>
						<clipPath id="SVGID_28_">
							<use xlink:href="#SVGID_27_"  style="overflow:visible;"/>
						</clipPath>
						<g class="st14">
							
								<image style="overflow:visible;enable-background:new    ;" width="588" height="1117" xlink:href="B316D2C7417003C0.jpg"  transform="matrix(0.2384 0 0 0.2384 703.2438 313.2135)">
							</image>
						</g>
					</g>
				</g>
			</g>
		</g>
	</g>
	<g>
		<defs>
			<path id="SVGID_29_" d="M826.3,441.8c-16.7-47.9-50.2-88.8-94.5-116.1l27.7,3.2c0.2,0,0.4,0,0.6,0c2.5,0,4.7-1.9,5-4.4
				c0.3-2.7-1.6-5.2-4.4-5.5l-51.7-6.1c-0.1,0-0.2,0-0.3,0c-0.2,0-0.3,0-0.5,0c-0.2,0-0.3,0-0.5,0c-0.2,0-0.3,0-0.5,0.1
				c-0.2,0-0.3,0.1-0.5,0.2c-0.1,0-0.3,0.1-0.4,0.2c-0.2,0.1-0.3,0.2-0.5,0.3c-0.1,0-0.2,0.1-0.2,0.1c0,0-0.1,0.1-0.1,0.1
				c-0.2,0.1-0.3,0.2-0.4,0.4c-0.1,0.1-0.2,0.2-0.3,0.3c-0.1,0.1-0.2,0.3-0.3,0.4c-0.1,0.1-0.2,0.2-0.3,0.4
				c-0.1,0.1-0.1,0.3-0.2,0.4s-0.1,0.3-0.2,0.5c0,0.1-0.1,0.3-0.1,0.4c0,0.2-0.1,0.4-0.1,0.5c0,0,0,0.1,0,0.1c0,0.1,0,0.2,0,0.3
				c0,0.2,0,0.4,0,0.5c0,0.2,0,0.3,0,0.5c0,0.2,0,0.3,0.1,0.5c0,0.2,0.1,0.3,0.1,0.5c0,0.1,0.1,0.3,0.2,0.4c0.1,0.2,0.2,0.3,0.3,0.5
				c0,0.1,0.1,0.2,0.1,0.3l28.6,41.2c1,1.4,2.5,2.1,4.1,2.1c1,0,2-0.3,2.8-0.9c2.3-1.6,2.8-4.7,1.3-7l-15.9-23
				c43.1,26.1,75.6,65.6,91.7,111.8c16,45.6,13.5,92-6.7,127.2c-1.4,2.4-0.5,5.5,1.8,6.8c0.8,0.5,1.6,0.7,2.5,0.7
				c1.7,0,3.4-0.9,4.3-2.5C840.5,539.5,843.2,490.1,826.3,441.8"/>
		</defs>
		<clipPath id="SVGID_30_">
			<use xlink:href="#SVGID_29_"  style="overflow:visible;"/>
		</clipPath>
		<g class="st15">
			<g>
				<g>
					<defs>
						<rect id="SVGID_31_" x="703.4" y="312.8" width="139.8" height="266.9"/>
					</defs>
					<clipPath id="SVGID_32_">
						<use xlink:href="#SVGID_31_"  style="overflow:visible;"/>
					</clipPath>
					<g class="st16">
						
							<image style="overflow:visible;enable-background:new    ;" width="588" height="1117" xlink:href="B316D2C7417003C1.jpg"  transform="matrix(0.2384 0 0 0.2384 703.2438 313.2135)">
						</image>
					</g>
				</g>
			</g>
		</g>
	</g>
</g>
<g>
	<g>
		<defs>
			<path id="SVGID_33_" d="M604.7,605.7c-1.1,0-2.1-0.4-2.9-1.3c-1.2-1.3-29.8-32.3-18.9-67.7c3.1-9.9,8.7-18.8,16.8-26.4
				c1.6-1.5,4.1-1.4,5.6,0.2c1.5,1.6,1.4,4.1-0.2,5.6c-7.1,6.6-12,14.4-14.7,22.9c-9.5,31,16,58.7,17.1,59.9
				c1.5,1.6,1.4,4.1-0.2,5.6C606.6,605.3,605.7,605.7,604.7,605.7"/>
		</defs>
		<clipPath id="SVGID_34_">
			<use xlink:href="#SVGID_33_"  style="overflow:visible;"/>
		</clipPath>
		<g class="st17">
			<g class="st1">
				<g>
					<g>
						<defs>
							<rect id="SVGID_35_" x="572" y="508.9" width="37.1" height="96.8"/>
						</defs>
						<clipPath id="SVGID_36_">
							<use xlink:href="#SVGID_35_"  style="overflow:visible;"/>
						</clipPath>
						<g class="st18">
							
								<image style="overflow:visible;enable-background:new    ;" width="200" height="513" xlink:href="B316D2C7417003C6.jpg"  transform="matrix(0.1859 0 0 0.1859 571.9067 509.6082)">
							</image>
						</g>
					</g>
				</g>
			</g>
		</g>
	</g>
	<g>
		<defs>
			<path id="SVGID_37_" d="M604.7,605.7c-1.1,0-2.1-0.4-2.9-1.3c-1.2-1.3-29.8-32.3-18.9-67.7c3.1-9.9,8.7-18.8,16.8-26.4
				c1.6-1.5,4.1-1.4,5.6,0.2c1.5,1.6,1.4,4.1-0.2,5.6c-7.1,6.6-12,14.4-14.7,22.9c-9.5,31,16,58.7,17.1,59.9
				c1.5,1.6,1.4,4.1-0.2,5.6C606.6,605.3,605.7,605.7,604.7,605.7"/>
		</defs>
		<clipPath id="SVGID_38_">
			<use xlink:href="#SVGID_37_"  style="overflow:visible;"/>
		</clipPath>
		<g class="st19">
			<g>
				<g>
					<defs>
						<rect id="SVGID_39_" x="572" y="508.9" width="37.1" height="96.8"/>
					</defs>
					<clipPath id="SVGID_40_">
						<use xlink:href="#SVGID_39_"  style="overflow:visible;"/>
					</clipPath>
					<g class="st20">
						
							<image style="overflow:visible;enable-background:new    ;" width="200" height="513" xlink:href="E24C76CC75308B8E.jpg"  transform="matrix(0.1859 0 0 0.1859 571.9067 509.6082)">
						</image>
					</g>
				</g>
			</g>
		</g>
	</g>
</g>
</svg>
