<?xml version="1.0" encoding="utf-8"?>
<!-- Generator: Adobe Illustrator 23.0.3, SVG Export Plug-In . SVG Version: 6.00 Build 0)  -->
<svg version="1.1" id="Layer_1" xmlns="http://www.w3.org/2000/svg" xmlns:xlink="http://www.w3.org/1999/xlink" x="0px" y="0px"
	 viewBox="0 0 1280 1024" style="enable-background:new 0 0 1280 1024;" xml:space="preserve">
<style type="text/css">
	.st0{clip-path:url(#SVGID_2_);enable-background:new    ;}
	.st1{clip-path:url(#SVGID_4_);}
	.st2{clip-path:url(#SVGID_6_);}
	.st3{opacity:0;clip-path:url(#SVGID_8_);}
	.st4{opacity:0;}
	.st5{clip-path:url(#SVGID_10_);}
	.st6{clip-path:url(#SVGID_12_);}
	.st7{clip-path:url(#SVGID_14_);}
	.st8{opacity:0;clip-path:url(#SVGID_16_);}
	.st9{clip-path:url(#SVGID_18_);}
	.st10{clip-path:url(#SVGID_20_);}
	.st11{clip-path:url(#SVGID_22_);}
	.st12{opacity:0;clip-path:url(#SVGID_24_);}
	.st13{clip-path:url(#SVGID_26_);}
	.st14{clip-path:url(#SVGID_28_);}
	.st15{clip-path:url(#SVGID_30_);}
	.st16{opacity:0;clip-path:url(#SVGID_32_);}
	.st17{clip-path:url(#SVGID_34_);}
	.st18{clip-path:url(#SVGID_36_);}
	.st19{clip-path:url(#SVGID_38_);}
	.st20{opacity:0;clip-path:url(#SVGID_40_);}
	.st21{clip-path:url(#SVGID_42_);}
	.st22{clip-path:url(#SVGID_44_);}
	.st23{clip-path:url(#SVGID_46_);}
</style>
<g>
	<g>
		<defs>
			<rect id="SVGID_1_" x="507.8" y="334.7" width="267" height="438.7"/>
		</defs>
		<clipPath id="SVGID_2_">
			<use xlink:href="#SVGID_1_"  style="overflow:visible;"/>
		</clipPath>
		<g class="st0">
			<g>
				<g>
					<defs>
						<rect id="SVGID_3_" x="505.8" y="334.7" width="271" height="439"/>
					</defs>
					<clipPath id="SVGID_4_">
						<use xlink:href="#SVGID_3_"  style="overflow:visible;"/>
					</clipPath>
					<g class="st1">
						<g>
							<defs>
								<path id="SVGID_5_" d="M694.4,481.1c1.6,0.5,3.3,0.9,4.9,1.2c5.9,1.2,11.6,1.8,17.1,1.8c10.4,0,19.9-2.1,28.1-6.3
									c14.5-7.4,24.5-21.1,28.9-39.8c3.2-13.6,1-27.7-6-39.9l-1-1.8l-2-0.5c-1.6-0.5-3.2-0.9-4.9-1.2
									c-33.5-6.7-66.8,13.1-74.1,44.3c-2.6,11.2-1.6,22.7,2.7,33.3c-14.9,11.6-28.6,20.9-36.8,23.3c-0.2,0.1-0.5,0.2-0.7,0.3
									c-0.2-0.1-0.4-0.1-0.6-0.2c4.1-12.1,4.6-34.1,3.8-56.7c15.4-8.6,25.6-20.2,29.5-33.7c4-13.7,1.3-28.4-7.9-43.8
									c-7.2-12-18.8-21.3-32.6-26.2l-1.8-0.6l-1.8,0.7c-1.5,0.6-3.1,1.3-4.5,2.1c-15.1,7.7-25.8,20.4-30.3,35.9
									c-4.2,14.6-2.2,30,5.7,43.2c7.2,12,18.7,21.3,32.6,26.2l1.1,0.4c1.1,35.5-2.2,47.8-4.5,52c0,0,0,0.1-0.1,0.2h-3.8
									c-0.1,0-0.2,0-0.4,0c-5.2-8.4-13.9-18.2-26.1-29.2l1.3-0.9l0.4-2.1c0.3-1.6,0.5-3.2,0.6-4.8c1.4-16.6-2.9-31.4-12.4-42.5
									c-10.5-12.3-26.8-19.8-46.1-21.2c-15-1.1-30,2.8-42.1,11l-1.8,1.2l-0.4,2.1c-0.3,1.6-0.5,3.2-0.6,4.8
									c-1.5,17.4,2.6,31.8,12.1,43c10.4,12.1,26.4,19.3,46.4,20.8c2.2,0.2,4.4,0.2,6.5,0.2c10.5,0,19.6-2,27.3-5.9
									c13.4,12,21,20.9,25.3,27.3c-1,1-1.9,2-2.6,3.3l-0.3,0.5c-0.7,1.3-2.6,1.9-4.2,1.4l-19.6-6.8c-2.9-1-6.1-0.2-8.2,2
									c-2,2.2-2.5,5.2-1.3,7.9l19.6,44.1c-5.2,6.6-11.1,13.6-17.2,21.1c-30.5,36.8-65,78.6-65,109.9c0,24.2,13.4,47.3,37.7,65.1
									c22.1,16.2,51.2,25.9,77.8,25.9c26.6,0,55.9-9.7,78.3-25.8c24.7-17.9,38.2-41,38.2-65.1c0-40.3-50.3-94.9-85-132.1
									l17.5-42.8c1.1-2.7,0.4-5.8-1.8-7.8c-2.3-2-5.6-2.5-8.4-1l-15.2,8.1c-1,0.5-2.3,0.3-2.9-0.5l-2.9-3.6
									c9-4.3,20.9-12.4,33.2-21.9L694.4,481.1z M567.3,467.4c-17-1.2-31.1-7.4-39.5-17.3c-7.7-9-10.9-21-9.7-35.6
									c0-0.6,0.1-1.2,0.2-1.8c10-6.1,22-9,34-8.1l0,0c16.5,1.2,30.5,7.5,39.2,17.7c7.9,9.2,11.2,21,10,35.2c0,0.6-0.1,1.2-0.2,1.8
									c-4.9-4.2-10.3-8.5-16.1-13c0.2-0.6,0.4-1.2,0.4-1.9l0.2-19.6c0-2.8-2.2-5-5-5h-0.1c-2.7,0-5,2.2-5,4.9l-0.2,14.4
									c-9.2-6.9-19.4-14.1-30.6-21.7c-1.5-1-2.5-1.7-2.9-2c-2.2-1.6-5.4-1.1-7,1.1c-1.6,2.2-1.1,5.4,1.1,7
									c0.5,0.4,1.6,1.1,3.2,2.2c5.8,4,11.2,7.7,16.3,11.4l-14.5,3.2c-2.7,0.6-4.4,3.3-3.8,6c0.5,2.3,2.6,3.9,4.9,3.9
									c0.4,0,0.7,0,1.1-0.1l23.2-5.1c9.9,7.3,18.2,13.9,25.3,19.8C585.1,467.1,576.8,468.1,567.3,467.4z M695.2,441.2
									c6.1-26,34.1-42.5,62.4-36.8c0.7,0.1,1.4,0.3,2.1,0.5c5,9.6,6.4,20.5,4,30.9c-3.3,14-15.7,45.1-60.3,37.2
									c5.6-4.5,11.1-9.1,16.4-13.7c0,0,0.1,0,0.1,0l20.8,3.6c0.3,0,0.6,0.1,0.9,0.1c2.4,0,4.5-1.7,4.9-4.1
									c0.5-2.7-1.4-5.3-4.1-5.8l-12.9-2.2c14.8-13,25.9-23.4,27-24.5c2-1.9,2.1-5.1,0.2-7.1c-1.9-2-5.1-2.1-7.1-0.2
									c-4.3,4-10.2,9.5-17.2,15.7l-1-15.6c-0.2-2.8-2.5-4.9-5.3-4.7c-2.8,0.2-4.9,2.5-4.7,5.3l1.5,23.4v0
									c-8.4,7.4-17.7,15.2-26.8,22.5C693.7,457.8,693.2,449.3,695.2,441.2z M618.8,411.4c-6.5-10.9-8.1-23.4-4.7-35.3
									c3.7-12.8,12.6-23.3,25.2-29.7c0.7-0.3,1.4-0.7,2-1c10.8,4.2,19.8,11.7,25.5,21.2c7.7,12.9,10,25,6.9,35.9
									c-3.3,11.5-12,19.6-20.4,25.1c-0.3-5.8-0.7-11.5-1.1-16.9l17.1-10.9c2.3-1.5,3-4.6,1.5-6.9c-1.5-2.3-4.6-3-6.9-1.5
									l-12.7,8.1c-1.5-16.2-3-28.8-3.5-32.4c-0.3-2.7-2.8-4.7-5.6-4.3c-2.7,0.4-4.7,2.9-4.3,5.6c0,0.1,0.9,7.4,2.1,18.5
									l-14.1-11.6c-2.1-1.8-5.3-1.4-7,0.7s-1.4,5.3,0.7,7l19,15.5c0.8,0.7,1.8,1,2.8,1.1c0.7,7.6,1.4,16,1.9,24.7
									c0.2,2.8,0.3,5.4,0.5,8C633,428,624.3,420.7,618.8,411.4z M670.6,515.7l8.3-4.4l-16.8,41.3l2.2,2.3
									c33.6,36,84.5,90.4,84.5,127.6c0,37.5-46.5,81-106.5,81c-48.8,0-105.5-35.4-105.5-81c0-27.7,34.8-69.7,62.7-103.5
									c7-8.4,13.5-16.3,19.2-23.7l1.9-2.4l-19.6-44.1l14.3,5c6.2,2.1,13.1-0.4,16.2-5.9l0.3-0.5c0.7-1.2,2.1-2,3.7-2h11.2
									c1.7,0,3.3,0.7,4.2,1.9l4.2,5.3C658.8,517.1,665.4,518.4,670.6,515.7z"/>
							</defs>
							<clipPath id="SVGID_6_">
								<use xlink:href="#SVGID_5_"  style="overflow:visible;"/>
							</clipPath>
							<g class="st2">
								<g>
									<defs>
										<rect id="SVGID_7_" x="507.8" y="334.7" width="267" height="439"/>
									</defs>
									<clipPath id="SVGID_8_">
										<use xlink:href="#SVGID_7_"  style="overflow:visible;"/>
									</clipPath>
									<g class="st3">
										<g class="st4">
											<g>
												<g>
													<defs>
														<rect id="SVGID_9_" x="507.8" y="334.7" width="267" height="439"/>
													</defs>
													<clipPath id="SVGID_10_">
														<use xlink:href="#SVGID_9_"  style="overflow:visible;"/>
													</clipPath>
													<g class="st5">
														
															<image style="overflow:visible;enable-background:new    ;" width="1121" height="1838" xlink:href="F0F5543F3E21B153.jpg"  transform="matrix(0.2383 0 0 0.2383 507.7878 335.1226)">
														</image>
													</g>
												</g>
											</g>
										</g>
									</g>
								</g>
								<g>
									<defs>
										<rect id="SVGID_11_" x="507.8" y="334.7" width="267" height="439"/>
									</defs>
									<clipPath id="SVGID_12_">
										<use xlink:href="#SVGID_11_"  style="overflow:visible;"/>
									</clipPath>
									<g class="st6">
										<g>
											<g>
												<defs>
													<rect id="SVGID_13_" x="507.8" y="334.7" width="267" height="439"/>
												</defs>
												<clipPath id="SVGID_14_">
													<use xlink:href="#SVGID_13_"  style="overflow:visible;"/>
												</clipPath>
												<g class="st7">
													
														<image style="overflow:visible;enable-background:new    ;" width="1121" height="1838" xlink:href="F0F5543F3E21B151.jpg"  transform="matrix(0.2383 0 0 0.2383 507.7878 335.1226)">
													</image>
												</g>
											</g>
										</g>
									</g>
								</g>
							</g>
						</g>
					</g>
				</g>
			</g>
		</g>
	</g>
</g>
<g>
	<g>
		<defs>
			<path id="SVGID_15_" d="M648.8,621.7c0,2.8-2.2,5-5,5s-5-2.2-5-5v-4.1c-14.9,2.6-24.4,12.3-24.4,24.7c0,13.2,10.2,21.1,26.7,26.5
				c13.7,4.8,19,9.8,19,18.6c0,8.1-5.8,14.1-16,15.6c2.1,0.6,3.7,2.6,3.6,4.9l-0.1,4.7c17.4-2.9,25.9-13.8,25.9-26.2
				c0-13.7-8.7-21.4-25.8-27.5c-14-5-20.1-9.3-20.1-18c0-6.4,5.2-14,19-14c9.2,0,15.9,2.8,19.2,4.4l3.6-9.8
				c-4.3-2.2-11.2-4.3-20.7-4.5L648.8,621.7L648.8,621.7z"/>
		</defs>
		<clipPath id="SVGID_16_">
			<use xlink:href="#SVGID_15_"  style="overflow:visible;"/>
		</clipPath>
		<g class="st8">
			<g class="st4">
				<g>
					<g>
						<defs>
							<rect id="SVGID_17_" x="614.5" y="616.9" width="59.1" height="95.6"/>
						</defs>
						<clipPath id="SVGID_18_">
							<use xlink:href="#SVGID_17_"  style="overflow:visible;"/>
						</clipPath>
						<g class="st9">
							
								<image style="overflow:visible;enable-background:new    ;" width="250" height="404" xlink:href="F0F5543F3E21B157.jpg"  transform="matrix(0.2371 0 0 0.2371 614.3478 616.8504)">
							</image>
						</g>
					</g>
				</g>
			</g>
		</g>
	</g>
	<g>
		<defs>
			<path id="SVGID_19_" d="M648.8,621.7c0,2.8-2.2,5-5,5s-5-2.2-5-5v-4.1c-14.9,2.6-24.4,12.3-24.4,24.7c0,13.2,10.2,21.1,26.7,26.5
				c13.7,4.8,19,9.8,19,18.6c0,8.1-5.8,14.1-16,15.6c2.1,0.6,3.7,2.6,3.6,4.9l-0.1,4.7c17.4-2.9,25.9-13.8,25.9-26.2
				c0-13.7-8.7-21.4-25.8-27.5c-14-5-20.1-9.3-20.1-18c0-6.4,5.2-14,19-14c9.2,0,15.9,2.8,19.2,4.4l3.6-9.8
				c-4.3-2.2-11.2-4.3-20.7-4.5L648.8,621.7L648.8,621.7z"/>
		</defs>
		<clipPath id="SVGID_20_">
			<use xlink:href="#SVGID_19_"  style="overflow:visible;"/>
		</clipPath>
		<g class="st10">
			<g>
				<g>
					<defs>
						<rect id="SVGID_21_" x="614.5" y="616.9" width="59.1" height="95.6"/>
					</defs>
					<clipPath id="SVGID_22_">
						<use xlink:href="#SVGID_21_"  style="overflow:visible;"/>
					</clipPath>
					<g class="st11">
						
							<image style="overflow:visible;enable-background:new    ;" width="250" height="404" xlink:href="F0F5543F3E21B150.jpg"  transform="matrix(0.2371 0 0 0.2371 614.3478 616.8504)">
						</image>
					</g>
				</g>
			</g>
		</g>
	</g>
</g>
<g>
	<g>
		<defs>
			<path id="SVGID_23_" d="M639.1,703.3c-9,0-17.5-2.8-23.4-6.1l-3.3,10.1c5.3,3.3,15.7,5.9,25.3,6l0.2-5.7c0.1-1.9,1.2-3.5,2.8-4.3
				C640.1,703.2,639.6,703.3,639.1,703.3z"/>
		</defs>
		<clipPath id="SVGID_24_">
			<use xlink:href="#SVGID_23_"  style="overflow:visible;"/>
		</clipPath>
		<g class="st12">
			<g class="st4">
				<g>
					<g>
						<defs>
							<rect id="SVGID_25_" x="612.4" y="697.2" width="28.3" height="16.1"/>
						</defs>
						<clipPath id="SVGID_26_">
							<use xlink:href="#SVGID_25_"  style="overflow:visible;"/>
						</clipPath>
						<g class="st13">
							
								<image style="overflow:visible;enable-background:new    ;" width="121" height="71" xlink:href="F0F5543F3E21B15E.jpg"  transform="matrix(0.2299 0 0 0.2299 612.5613 697.1486)">
							</image>
						</g>
					</g>
				</g>
			</g>
		</g>
	</g>
	<g>
		<defs>
			<path id="SVGID_27_" d="M639.1,703.3c-9,0-17.5-2.8-23.4-6.1l-3.3,10.1c5.3,3.3,15.7,5.9,25.3,6l0.2-5.7c0.1-1.9,1.2-3.5,2.8-4.3
				C640.1,703.2,639.6,703.3,639.1,703.3z"/>
		</defs>
		<clipPath id="SVGID_28_">
			<use xlink:href="#SVGID_27_"  style="overflow:visible;"/>
		</clipPath>
		<g class="st14">
			<g>
				<g>
					<defs>
						<rect id="SVGID_29_" x="612.4" y="697.2" width="28.3" height="16.1"/>
					</defs>
					<clipPath id="SVGID_30_">
						<use xlink:href="#SVGID_29_"  style="overflow:visible;"/>
					</clipPath>
					<g class="st15">
						
							<image style="overflow:visible;enable-background:new    ;" width="121" height="71" xlink:href="F0F5543F3E21B15F.jpg"  transform="matrix(0.2299 0 0 0.2299 612.5613 697.1486)">
						</image>
					</g>
				</g>
			</g>
		</g>
	</g>
</g>
<g>
	<g>
		<defs>
			<path id="SVGID_31_" d="M643.8,626.7c2.8,0,5-2.2,5-5v-4.8v-24.8c0-2.8-2.2-5-5-5s-5,2.2-5,5v25.5v4.1
				C638.8,624.5,641.1,626.7,643.8,626.7"/>
		</defs>
		<clipPath id="SVGID_32_">
			<use xlink:href="#SVGID_31_"  style="overflow:visible;"/>
		</clipPath>
		<g class="st16">
			<g class="st4">
				<g>
					<g>
						<defs>
							<rect id="SVGID_33_" x="638.8" y="587.1" width="10" height="39.6"/>
						</defs>
						<clipPath id="SVGID_34_">
							<use xlink:href="#SVGID_33_"  style="overflow:visible;"/>
						</clipPath>
						<g class="st17">
							
								<image style="overflow:visible;enable-background:new    ;" width="46" height="171" xlink:href="F0F5543F3E21B152.jpg"  transform="matrix(0.2191 0 0 0.2191 638.8278 588.173)">
							</image>
						</g>
					</g>
				</g>
			</g>
		</g>
	</g>
	<g>
		<defs>
			<path id="SVGID_35_" d="M643.8,626.7c2.8,0,5-2.2,5-5v-4.8v-24.8c0-2.8-2.2-5-5-5s-5,2.2-5,5v25.5v4.1
				C638.8,624.5,641.1,626.7,643.8,626.7"/>
		</defs>
		<clipPath id="SVGID_36_">
			<use xlink:href="#SVGID_35_"  style="overflow:visible;"/>
		</clipPath>
		<g class="st18">
			<g>
				<g>
					<defs>
						<rect id="SVGID_37_" x="638.8" y="587.1" width="10" height="39.6"/>
					</defs>
					<clipPath id="SVGID_38_">
						<use xlink:href="#SVGID_37_"  style="overflow:visible;"/>
					</clipPath>
					<g class="st19">
						
							<image style="overflow:visible;enable-background:new    ;" width="46" height="171" xlink:href="F0F5543F3E21B155.jpg"  transform="matrix(0.2191 0 0 0.2191 638.8278 588.173)">
						</image>
					</g>
				</g>
			</g>
		</g>
	</g>
</g>
<g>
	<g>
		<defs>
			<path id="SVGID_39_" d="M644.2,702.9c-0.4-0.1-0.8-0.2-1.2-0.2c-0.8,0-1.6,0.2-2.3,0.5c-1.6,0.8-2.8,2.4-2.8,4.3l-0.2,5.7
				l-0.8,28.5c-0.1,2.8,2.1,5.1,4.8,5.1c0,0,0.1,0,0.2,0c2.7,0,4.9-2.1,5-4.8l0.9-29.5l0.1-4.7C647.9,705.5,646.4,703.5,644.2,702.9
				"/>
		</defs>
		<clipPath id="SVGID_40_">
			<use xlink:href="#SVGID_39_"  style="overflow:visible;"/>
		</clipPath>
		<g class="st20">
			<g class="st4">
				<g>
					<g>
						<defs>
							<rect id="SVGID_41_" x="636.8" y="702.7" width="11.1" height="44.2"/>
						</defs>
						<clipPath id="SVGID_42_">
							<use xlink:href="#SVGID_41_"  style="overflow:visible;"/>
						</clipPath>
						<g class="st21">
							
								<image style="overflow:visible;enable-background:new    ;" width="54" height="188" xlink:href="F0F5543F3E21B156.jpg"  transform="matrix(0.2089 0 0 0.2089 636.6678 705.233)">
							</image>
						</g>
					</g>
				</g>
			</g>
		</g>
	</g>
	<g>
		<defs>
			<path id="SVGID_43_" d="M644.2,702.9c-0.4-0.1-0.8-0.2-1.2-0.2c-0.8,0-1.6,0.2-2.3,0.5c-1.6,0.8-2.8,2.4-2.8,4.3l-0.2,5.7
				l-0.8,28.5c-0.1,2.8,2.1,5.1,4.8,5.1c0,0,0.1,0,0.2,0c2.7,0,4.9-2.1,5-4.8l0.9-29.5l0.1-4.7C647.9,705.5,646.4,703.5,644.2,702.9
				"/>
		</defs>
		<clipPath id="SVGID_44_">
			<use xlink:href="#SVGID_43_"  style="overflow:visible;"/>
		</clipPath>
		<g class="st22">
			<g>
				<g>
					<defs>
						<rect id="SVGID_45_" x="636.8" y="702.7" width="11.1" height="44.2"/>
					</defs>
					<clipPath id="SVGID_46_">
						<use xlink:href="#SVGID_45_"  style="overflow:visible;"/>
					</clipPath>
					<g class="st23">
						
							<image style="overflow:visible;enable-background:new    ;" width="54" height="188" xlink:href="D3752D23FADEA100.jpg"  transform="matrix(0.2089 0 0 0.2089 636.6678 705.233)">
						</image>
					</g>
				</g>
			</g>
		</g>
	</g>
</g>
</svg>
