<?xml version="1.0" encoding="utf-8"?>
<!-- Generator: Adobe Illustrator 23.0.3, SVG Export Plug-In . SVG Version: 6.00 Build 0)  -->
<svg version="1.1" id="Layer_1" xmlns="http://www.w3.org/2000/svg" xmlns:xlink="http://www.w3.org/1999/xlink" x="0px" y="0px"
	 viewBox="0 0 1280 1024" style="enable-background:new 0 0 1280 1024;" xml:space="preserve">
<style type="text/css">
	.st0{opacity:0;clip-path:url(#SVGID_2_);}
	.st1{opacity:0;}
	.st2{clip-path:url(#SVGID_4_);}
	.st3{clip-path:url(#SVGID_6_);}
	.st4{clip-path:url(#SVGID_8_);}
	.st5{opacity:0;clip-path:url(#SVGID_10_);}
	.st6{clip-path:url(#SVGID_12_);}
	.st7{clip-path:url(#SVGID_14_);}
	.st8{clip-path:url(#SVGID_16_);}
	.st9{clip-path:url(#SVGID_18_);enable-background:new    ;}
	.st10{clip-path:url(#SVGID_20_);}
	.st11{clip-path:url(#SVGID_22_);}
	.st12{opacity:0;clip-path:url(#SVGID_24_);}
	.st13{clip-path:url(#SVGID_26_);}
	.st14{clip-path:url(#SVGID_28_);}
	.st15{clip-path:url(#SVGID_30_);}
	.st16{opacity:0;clip-path:url(#SVGID_32_);}
	.st17{clip-path:url(#SVGID_34_);}
	.st18{clip-path:url(#SVGID_36_);}
	.st19{clip-path:url(#SVGID_38_);}
</style>
<g>
	<g>
		<defs>
			<path id="SVGID_1_" d="M625,732.1c0,0,0.1,0,0.1,0c2.7,0,4.9-2.2,5-4.9l3.1-147.7c3.9,0.6,11,1.4,18.5,1.2
				c0.6,0.4,1.2,0.8,1.8,1.2c14.6,9,29.5,13.7,43.8,13.7c3.5,0,6.9-0.3,10.3-0.8c20-3.3,37-15.9,50.3-37.5
				c9.5-15.3,13.2-33.6,10.5-51.4l-0.3-2l-1.7-1.2c-1.7-1.2-3.4-2.4-5.1-3.4c-17.2-10.7-37.6-14-57.3-9.3
				c-19.7,4.6-36.5,16.7-47.1,33.9c-8.7,14-12.5,30.5-11,46.9c-5-0.2-9.7-0.8-12.6-1.3l-0.2-97.6c-1.1,0.5-2.3,1.1-3.5,1.6l-1.8,0.7
				l-1.8-0.6c-1-0.4-2-0.7-2.9-1.1l0.1,59.7c-5.1,1.5-14.2,3.8-22.7,4.2c3.1-16.9-0.2-34.2-9.4-48.9c-9.8-15.7-25-26.6-43-30.8
				c-16-3.7-32.8-1.6-47.4,5.9l-1.8,1l-0.6,2c-0.6,1.8-1.1,3.6-1.5,5.4c-4.2,18-1.1,36.5,8.7,52.2c9.8,15.7,25,26.6,43,30.8
				c6.4,1.5,12.4,2.2,18.1,2.2c10.8,0,20.3-2.6,28.6-7.8c0.3-0.2,0.5-0.3,0.6-0.4l1.8-1l0.2-0.6c4.2,0,8.8-0.4,13.8-1.3
				c4.5-0.8,8.5-1.8,11.5-2.5l0.1,31.8L620.1,727C620,729.8,622.2,732,625,732.1 M665.4,529.1L665.4,529.1
				c9.3-15,23.8-25.4,40.9-29.5c17.1-4,34.8-1.2,49.8,8.1c0.9,0.6,1.8,1.2,2.7,1.8c1.8,14.8-1.5,29.8-9.4,42.5
				c-11.8,19-26.4,30-43.4,32.8c-12.1,2-25.2-0.3-38.4-6.6c0.5-0.2,0.9-0.3,1.4-0.5c6.8-2.8,13.4-6.2,19.6-9.9
				c0.3,0.1,0.6,0.2,1,0.2l26,3c2.8,0.3,5.2-1.6,5.5-4.4c0.3-2.7-1.6-5.2-4.4-5.5l-15.2-1.8c16.3-11.6,27.5-23.1,28.2-23.8
				c1.9-2,1.9-5.1-0.1-7.1s-5.1-1.9-7.1,0.1c-0.1,0.1-4,4.1-10.5,9.7l-3-22.9c-0.3-2.7-2.9-4.7-5.6-4.3s-4.7,2.9-4.3,5.6l3.8,29.1
				c-10.2,8-23.5,16.9-37.7,22.6c-2.6,1.1-5.9,1.7-9.3,2C654.4,556.1,657.7,541.5,665.4,529.1 M550.8,544.1
				c-15.4-3.6-28.5-12.9-36.8-26.3c-8.4-13.4-11-29.3-7.4-44.6c0.2-0.9,0.4-1.8,0.7-2.6c12-5.7,25.7-7.2,38.7-4.1
				c15.4,3.6,28.5,12.9,36.8,26.3c8,12.9,10.8,28.1,7.8,43c-1.2-0.3-2.3-0.6-3.3-1.1c-11-4.9-21.8-13-31.2-21.2
				c0.1-0.4,0.2-0.9,0.1-1.4l-1-30c-0.1-2.8-2.4-4.9-5.2-4.8c-2.8,0.1-4.9,2.4-4.8,5.2l0.7,21.5c-11.2-11.1-18.6-20.6-18.8-20.8
				c-1.7-2.2-4.8-2.6-7-0.9c-2.2,1.7-2.6,4.8-0.9,7c0.8,1.1,14.5,18.4,33.1,34.2l-11.6-1.2c-2.7-0.3-5.2,1.7-5.5,4.4
				c-0.3,2.7,1.7,5.2,4.4,5.5l28,3c0.1,0,0.1,0,0.2,0c4.8,3.2,9.7,6,14.8,8.3C569,548.3,555.7,545.2,550.8,544.1"/>
		</defs>
		<clipPath id="SVGID_2_">
			<use xlink:href="#SVGID_1_"  style="overflow:visible;"/>
		</clipPath>
		<g class="st0">
			<g class="st1">
				<g>
					<g>
						<defs>
							<rect id="SVGID_3_" x="492.6" y="452.9" width="278.5" height="279.2"/>
						</defs>
						<clipPath id="SVGID_4_">
							<use xlink:href="#SVGID_3_"  style="overflow:visible;"/>
						</clipPath>
						<g class="st2">
							
								<image style="overflow:visible;enable-background:new    ;" width="1167" height="1171" xlink:href="AC57F635CDB1BA6.jpg"  transform="matrix(0.2388 0 0 0.2388 492.5554 452.7)">
							</image>
						</g>
					</g>
				</g>
			</g>
		</g>
	</g>
	<g>
		<defs>
			<path id="SVGID_5_" d="M625,732.1c0,0,0.1,0,0.1,0c2.7,0,4.9-2.2,5-4.9l3.1-147.7c3.9,0.6,11,1.4,18.5,1.2
				c0.6,0.4,1.2,0.8,1.8,1.2c14.6,9,29.5,13.7,43.8,13.7c3.5,0,6.9-0.3,10.3-0.8c20-3.3,37-15.9,50.3-37.5
				c9.5-15.3,13.2-33.6,10.5-51.4l-0.3-2l-1.7-1.2c-1.7-1.2-3.4-2.4-5.1-3.4c-17.2-10.7-37.6-14-57.3-9.3
				c-19.7,4.6-36.5,16.7-47.1,33.9c-8.7,14-12.5,30.5-11,46.9c-5-0.2-9.7-0.8-12.6-1.3l-0.2-97.6c-1.1,0.5-2.3,1.1-3.5,1.6l-1.8,0.7
				l-1.8-0.6c-1-0.4-2-0.7-2.9-1.1l0.1,59.7c-5.1,1.5-14.2,3.8-22.7,4.2c3.1-16.9-0.2-34.2-9.4-48.9c-9.8-15.7-25-26.6-43-30.8
				c-16-3.7-32.8-1.6-47.4,5.9l-1.8,1l-0.6,2c-0.6,1.8-1.1,3.6-1.5,5.4c-4.2,18-1.1,36.5,8.7,52.2c9.8,15.7,25,26.6,43,30.8
				c6.4,1.5,12.4,2.2,18.1,2.2c10.8,0,20.3-2.6,28.6-7.8c0.3-0.2,0.5-0.3,0.6-0.4l1.8-1l0.2-0.6c4.2,0,8.8-0.4,13.8-1.3
				c4.5-0.8,8.5-1.8,11.5-2.5l0.1,31.8L620.1,727C620,729.8,622.2,732,625,732.1 M665.4,529.1L665.4,529.1
				c9.3-15,23.8-25.4,40.9-29.5c17.1-4,34.8-1.2,49.8,8.1c0.9,0.6,1.8,1.2,2.7,1.8c1.8,14.8-1.5,29.8-9.4,42.5
				c-11.8,19-26.4,30-43.4,32.8c-12.1,2-25.2-0.3-38.4-6.6c0.5-0.2,0.9-0.3,1.4-0.5c6.8-2.8,13.4-6.2,19.6-9.9
				c0.3,0.1,0.6,0.2,1,0.2l26,3c2.8,0.3,5.2-1.6,5.5-4.4c0.3-2.7-1.6-5.2-4.4-5.5l-15.2-1.8c16.3-11.6,27.5-23.1,28.2-23.8
				c1.9-2,1.9-5.1-0.1-7.1s-5.1-1.9-7.1,0.1c-0.1,0.1-4,4.1-10.5,9.7l-3-22.9c-0.3-2.7-2.9-4.7-5.6-4.3s-4.7,2.9-4.3,5.6l3.8,29.1
				c-10.2,8-23.5,16.9-37.7,22.6c-2.6,1.1-5.9,1.7-9.3,2C654.4,556.1,657.7,541.5,665.4,529.1 M550.8,544.1
				c-15.4-3.6-28.5-12.9-36.8-26.3c-8.4-13.4-11-29.3-7.4-44.6c0.2-0.9,0.4-1.8,0.7-2.6c12-5.7,25.7-7.2,38.7-4.1
				c15.4,3.6,28.5,12.9,36.8,26.3c8,12.9,10.8,28.1,7.8,43c-1.2-0.3-2.3-0.6-3.3-1.1c-11-4.9-21.8-13-31.2-21.2
				c0.1-0.4,0.2-0.9,0.1-1.4l-1-30c-0.1-2.8-2.4-4.9-5.2-4.8c-2.8,0.1-4.9,2.4-4.8,5.2l0.7,21.5c-11.2-11.1-18.6-20.6-18.8-20.8
				c-1.7-2.2-4.8-2.6-7-0.9c-2.2,1.7-2.6,4.8-0.9,7c0.8,1.1,14.5,18.4,33.1,34.2l-11.6-1.2c-2.7-0.3-5.2,1.7-5.5,4.4
				c-0.3,2.7,1.7,5.2,4.4,5.5l28,3c0.1,0,0.1,0,0.2,0c4.8,3.2,9.7,6,14.8,8.3C569,548.3,555.7,545.2,550.8,544.1"/>
		</defs>
		<clipPath id="SVGID_6_">
			<use xlink:href="#SVGID_5_"  style="overflow:visible;"/>
		</clipPath>
		<g class="st3">
			<g>
				<g>
					<defs>
						<rect id="SVGID_7_" x="492.6" y="452.9" width="278.5" height="279.2"/>
					</defs>
					<clipPath id="SVGID_8_">
						<use xlink:href="#SVGID_7_"  style="overflow:visible;"/>
					</clipPath>
					<g class="st4">
						
							<image style="overflow:visible;enable-background:new    ;" width="1167" height="1171" xlink:href="AC57F635CDB1BAA.jpg"  transform="matrix(0.2388 0 0 0.2388 492.5554 452.7)">
						</image>
					</g>
				</g>
			</g>
		</g>
	</g>
</g>
<g>
	<g>
		<defs>
			<path id="SVGID_9_" d="M818.9,612.7l-18-63.6c0-0.1-0.1-0.2-0.1-0.3c-0.1-0.2-0.1-0.4-0.2-0.5c-0.1-0.1-0.2-0.3-0.2-0.4
				c-0.1-0.1-0.2-0.3-0.3-0.4c-0.1-0.1-0.2-0.2-0.3-0.4c-0.1-0.1-0.2-0.2-0.3-0.4c-0.1-0.1-0.3-0.2-0.4-0.3
				c-0.1-0.1-0.2-0.2-0.3-0.2c0,0-0.1,0-0.1,0c0,0-0.1-0.1-0.2-0.1c-0.8-0.5-1.7-0.8-2.8-0.8c-2.5,0-4.6,1.9-4.9,4.4l-30.9,50.9
				c-1.4,2.4-0.7,5.4,1.7,6.9c0.8,0.5,1.7,0.7,2.6,0.7c1.7,0,3.3-0.8,4.3-2.4l21.4-35.2c-4.1,44.9-21.7,87-50.5,120.4
				c-31.6,36.5-73.1,57.5-113.7,57.5c-2.8,0-5,2.2-5,5s2.2,5,5,5c43.5,0,87.7-22.2,121.3-60.9c28.7-33.1,46.7-74.4,52.1-118.5
				l10.3,36.6c0.6,2.2,2.6,3.6,4.8,3.6c0.5,0,0.9-0.1,1.4-0.2C818.1,618.2,819.6,615.4,818.9,612.7"/>
		</defs>
		<clipPath id="SVGID_10_">
			<use xlink:href="#SVGID_9_"  style="overflow:visible;"/>
		</clipPath>
		<g class="st5">
			<g class="st1">
				<g>
					<g>
						<defs>
							<rect id="SVGID_11_" x="620.5" y="545.3" width="199.1" height="213.1"/>
						</defs>
						<clipPath id="SVGID_12_">
							<use xlink:href="#SVGID_11_"  style="overflow:visible;"/>
						</clipPath>
						<g class="st6">
							
								<image style="overflow:visible;enable-background:new    ;" width="833" height="892" xlink:href="AC57F635CDB1BAD.jpg"  transform="matrix(0.2392 0 0 0.2392 620.4541 545.1)">
							</image>
						</g>
					</g>
				</g>
			</g>
		</g>
	</g>
	<g>
		<defs>
			<path id="SVGID_13_" d="M818.9,612.7l-18-63.6c0-0.1-0.1-0.2-0.1-0.3c-0.1-0.2-0.1-0.4-0.2-0.5c-0.1-0.1-0.2-0.3-0.2-0.4
				c-0.1-0.1-0.2-0.3-0.3-0.4c-0.1-0.1-0.2-0.2-0.3-0.4c-0.1-0.1-0.2-0.2-0.3-0.4c-0.1-0.1-0.3-0.2-0.4-0.3
				c-0.1-0.1-0.2-0.2-0.3-0.2c0,0-0.1,0-0.1,0c0,0-0.1-0.1-0.2-0.1c-0.8-0.5-1.7-0.8-2.8-0.8c-2.5,0-4.6,1.9-4.9,4.4l-30.9,50.9
				c-1.4,2.4-0.7,5.4,1.7,6.9c0.8,0.5,1.7,0.7,2.6,0.7c1.7,0,3.3-0.8,4.3-2.4l21.4-35.2c-4.1,44.9-21.7,87-50.5,120.4
				c-31.6,36.5-73.1,57.5-113.7,57.5c-2.8,0-5,2.2-5,5s2.2,5,5,5c43.5,0,87.7-22.2,121.3-60.9c28.7-33.1,46.7-74.4,52.1-118.5
				l10.3,36.6c0.6,2.2,2.6,3.6,4.8,3.6c0.5,0,0.9-0.1,1.4-0.2C818.1,618.2,819.6,615.4,818.9,612.7"/>
		</defs>
		<clipPath id="SVGID_14_">
			<use xlink:href="#SVGID_13_"  style="overflow:visible;"/>
		</clipPath>
		<g class="st7">
			<g>
				<g>
					<defs>
						<rect id="SVGID_15_" x="620.5" y="545.3" width="199.1" height="213.1"/>
					</defs>
					<clipPath id="SVGID_16_">
						<use xlink:href="#SVGID_15_"  style="overflow:visible;"/>
					</clipPath>
					<g class="st8">
						
							<image style="overflow:visible;enable-background:new    ;" width="833" height="892" xlink:href="AC57F635CDB1BAE.jpg"  transform="matrix(0.2392 0 0 0.2392 620.4541 545.1)">
						</image>
					</g>
				</g>
			</g>
		</g>
	</g>
</g>
<g>
	<g>
		<defs>
			<rect id="SVGID_17_" x="428.1" y="323.1" width="200.2" height="214.3"/>
		</defs>
		<clipPath id="SVGID_18_">
			<use xlink:href="#SVGID_17_"  style="overflow:visible;"/>
		</clipPath>
		<g class="st9">
			<g>
				<g>
					<defs>
						<rect id="SVGID_19_" x="427.1" y="322.1" width="202" height="216"/>
					</defs>
					<clipPath id="SVGID_20_">
						<use xlink:href="#SVGID_19_"  style="overflow:visible;"/>
					</clipPath>
					<g class="st10">
						<g>
							<defs>
								<path id="SVGID_21_" d="M485.2,466.2c-2.5-1.2-5.5-0.1-6.6,2.4l-18,38.2c4.9-43,22.1-83.4,49.5-115.6
									c31.4-36.9,72.7-58,113.2-58c2.8,0,5-2.2,5-5s-2.2-5-5-5c-43.4,0-87.5,22.4-120.8,61.6c-28.9,33.9-46.9,76.3-51.9,121.5
									l-12.7-37.7c-0.9-2.6-3.7-4-6.3-3.1c-2.6,0.9-4,3.7-3.1,6.3l20.8,61.6c0.4,2.4,2.4,4.2,4.9,4.2c2.3,0,4.2-1.6,4.8-3.7
									l28.7-60.9C488.8,470.3,487.7,467.4,485.2,466.2"/>
							</defs>
							<clipPath id="SVGID_22_">
								<use xlink:href="#SVGID_21_"  style="overflow:visible;"/>
							</clipPath>
							<g class="st11">
								<g>
									<defs>
										<rect id="SVGID_23_" x="428.1" y="323.1" width="201" height="215"/>
									</defs>
									<clipPath id="SVGID_24_">
										<use xlink:href="#SVGID_23_"  style="overflow:visible;"/>
									</clipPath>
									<g class="st12">
										<g class="st1">
											<g>
												<g>
													<defs>
														<rect id="SVGID_25_" x="428.1" y="323.1" width="201" height="215"/>
													</defs>
													<clipPath id="SVGID_26_">
														<use xlink:href="#SVGID_25_"  style="overflow:visible;"/>
													</clipPath>
													<g class="st13">
														
															<image style="overflow:visible;enable-background:new    ;" width="846" height="900" xlink:href="AC57F635CDB1BAC.jpg"  transform="matrix(0.238 0 0 0.238 427.8779 323.5137)">
														</image>
													</g>
												</g>
											</g>
										</g>
									</g>
								</g>
								<g>
									<defs>
										<rect id="SVGID_27_" x="428.1" y="323.1" width="201" height="215"/>
									</defs>
									<clipPath id="SVGID_28_">
										<use xlink:href="#SVGID_27_"  style="overflow:visible;"/>
									</clipPath>
									<g class="st14">
										<g>
											<g>
												<defs>
													<rect id="SVGID_29_" x="428.1" y="323.1" width="201" height="215"/>
												</defs>
												<clipPath id="SVGID_30_">
													<use xlink:href="#SVGID_29_"  style="overflow:visible;"/>
												</clipPath>
												<g class="st15">
													
														<image style="overflow:visible;enable-background:new    ;" width="846" height="900" xlink:href="AC57F635CDB1BAB.jpg"  transform="matrix(0.238 0 0 0.238 427.8779 323.5137)">
													</image>
												</g>
											</g>
										</g>
									</g>
								</g>
							</g>
						</g>
					</g>
				</g>
			</g>
		</g>
	</g>
</g>
<g>
	<g>
		<defs>
			<path id="SVGID_31_" d="M627.8,474.1l1.8-0.7c1.2-0.5,2.3-1,3.5-1.6c0.3-0.2,0.7-0.3,1-0.5c17.1-8.7,28.3-20.9,32.5-35.3
				c4-13.7,1.3-28.4-7.9-43.8c-7.2-12-18.8-21.3-32.6-26.2l-1.8-0.6l-1.8,0.7c-1.5,0.6-3.1,1.3-4.5,2.1
				c-15.1,7.7-25.8,20.4-30.3,35.9c-4.2,14.6-2.2,30,5.7,43.2c6.7,11.2,17.1,20,29.6,25.1c1,0.4,2,0.8,2.9,1.1L627.8,474.1z
				 M602,442.2c-6.5-10.9-8.1-23.4-4.7-35.3c3.7-12.8,12.6-23.3,25.2-29.7c0.7-0.3,1.4-0.7,2-1c10.8,4.2,19.8,11.7,25.5,21.2
				c7.7,12.9,10,25,6.9,35.9c-3.5,12-12.8,20.4-21.7,25.9c1.1-4.7,1.6-9.8,1.6-15c0.5-0.2,1.1-0.4,1.5-0.8l14.7-11.3
				c2.2-1.7,2.6-4.8,0.9-7c-1.7-2.2-4.8-2.6-7-0.9l-10.6,8.2c-1.8-18.6-7.2-35.3-7.6-36.5c-0.9-2.6-3.7-4-6.3-3.2
				c-2.6,0.9-4,3.7-3.2,6.3c1.6,4.7,3.8,12.8,5.4,22L609,408c-2.1-1.8-5.3-1.5-7,0.7c-1.8,2.1-1.5,5.3,0.7,7l23.2,19.2
				c0.2,0.2,0.5,0.4,0.7,0.5c0.7,9.6,0.3,19.2-2.6,26.4C614.8,457.5,607.1,450.6,602,442.2z"/>
		</defs>
		<clipPath id="SVGID_32_">
			<use xlink:href="#SVGID_31_"  style="overflow:visible;"/>
		</clipPath>
		<g class="st16">
			<g class="st1">
				<g>
					<g>
						<defs>
							<rect id="SVGID_33_" x="583.5" y="365.4" width="87" height="108.7"/>
						</defs>
						<clipPath id="SVGID_34_">
							<use xlink:href="#SVGID_33_"  style="overflow:visible;"/>
						</clipPath>
						<g class="st17">
							
								<image style="overflow:visible;enable-background:new    ;" width="367" height="458" xlink:href="AC57F635CDB1BA5.jpg"  transform="matrix(0.2379 0 0 0.2379 583.4225 365.34)">
							</image>
						</g>
					</g>
				</g>
			</g>
		</g>
	</g>
	<g>
		<defs>
			<path id="SVGID_35_" d="M627.8,474.1l1.8-0.7c1.2-0.5,2.3-1,3.5-1.6c0.3-0.2,0.7-0.3,1-0.5c17.1-8.7,28.3-20.9,32.5-35.3
				c4-13.7,1.3-28.4-7.9-43.8c-7.2-12-18.8-21.3-32.6-26.2l-1.8-0.6l-1.8,0.7c-1.5,0.6-3.1,1.3-4.5,2.1
				c-15.1,7.7-25.8,20.4-30.3,35.9c-4.2,14.6-2.2,30,5.7,43.2c6.7,11.2,17.1,20,29.6,25.1c1,0.4,2,0.8,2.9,1.1L627.8,474.1z
				 M602,442.2c-6.5-10.9-8.1-23.4-4.7-35.3c3.7-12.8,12.6-23.3,25.2-29.7c0.7-0.3,1.4-0.7,2-1c10.8,4.2,19.8,11.7,25.5,21.2
				c7.7,12.9,10,25,6.9,35.9c-3.5,12-12.8,20.4-21.7,25.9c1.1-4.7,1.6-9.8,1.6-15c0.5-0.2,1.1-0.4,1.5-0.8l14.7-11.3
				c2.2-1.7,2.6-4.8,0.9-7c-1.7-2.2-4.8-2.6-7-0.9l-10.6,8.2c-1.8-18.6-7.2-35.3-7.6-36.5c-0.9-2.6-3.7-4-6.3-3.2
				c-2.6,0.9-4,3.7-3.2,6.3c1.6,4.7,3.8,12.8,5.4,22L609,408c-2.1-1.8-5.3-1.5-7,0.7c-1.8,2.1-1.5,5.3,0.7,7l23.2,19.2
				c0.2,0.2,0.5,0.4,0.7,0.5c0.7,9.6,0.3,19.2-2.6,26.4C614.8,457.5,607.1,450.6,602,442.2z"/>
		</defs>
		<clipPath id="SVGID_36_">
			<use xlink:href="#SVGID_35_"  style="overflow:visible;"/>
		</clipPath>
		<g class="st18">
			<g>
				<g>
					<defs>
						<rect id="SVGID_37_" x="583.5" y="365.4" width="87" height="108.7"/>
					</defs>
					<clipPath id="SVGID_38_">
						<use xlink:href="#SVGID_37_"  style="overflow:visible;"/>
					</clipPath>
					<g class="st19">
						
							<image style="overflow:visible;enable-background:new    ;" width="367" height="458" xlink:href="AC57F635CDB1BA7.jpg"  transform="matrix(0.2379 0 0 0.2379 583.4225 365.34)">
						</image>
					</g>
				</g>
			</g>
		</g>
	</g>
</g>
</svg>
