<?xml version="1.0" encoding="utf-8"?>
<!-- Generator: Adobe Illustrator 23.0.3, SVG Export Plug-In . SVG Version: 6.00 Build 0)  -->
<svg version="1.1" id="Layer_1" xmlns="http://www.w3.org/2000/svg" xmlns:xlink="http://www.w3.org/1999/xlink" x="0px" y="0px"
	 viewBox="0 0 1280 1024" style="enable-background:new 0 0 1280 1024;" xml:space="preserve">
<style type="text/css">
	.st0{clip-path:url(#SVGID_2_);enable-background:new    ;}
	.st1{clip-path:url(#SVGID_4_);}
	.st2{clip-path:url(#SVGID_6_);}
	.st3{opacity:0;clip-path:url(#SVGID_8_);}
	.st4{opacity:0;}
	.st5{clip-path:url(#SVGID_10_);}
	.st6{clip-path:url(#SVGID_12_);}
	.st7{clip-path:url(#SVGID_14_);}
	.st8{clip-path:url(#SVGID_16_);fill:#FFFFFF;}
	.st9{clip-path:url(#SVGID_18_);fill:#FFFFFF;}
</style>
<g>
	<g>
		<defs>
			<rect id="SVGID_1_" x="459.4" y="320.8" width="330.9" height="440"/>
		</defs>
		<clipPath id="SVGID_2_">
			<use xlink:href="#SVGID_1_"  style="overflow:visible;"/>
		</clipPath>
		<g class="st0">
			<g>
				<g>
					<defs>
						<rect id="SVGID_3_" x="456.4" y="319.8" width="334" height="442"/>
					</defs>
					<clipPath id="SVGID_4_">
						<use xlink:href="#SVGID_3_"  style="overflow:visible;"/>
					</clipPath>
					<g class="st1">
						<g>
							<defs>
								<path id="SVGID_5_" d="M768.7,470.8c3.1-1.5,6.6-5.1,8.3-13.2l8.7-52.4l2.9-39.8l-36.8-44.7l-23.5,4
									c-3.9,0.7-7.6,2.2-10.8,4.5L683,351.5l-0.2,0.1c-0.2,0.2-0.5,0.3-0.7,0.5l-46.1,28c-0.3,0.2-0.7,0.4-1.1,0.6
									c-3.7,2-9.9,5.4-14.1,11.2c-2.3,3.2-2.8,7.3-1.4,10.9c-69.2,11.7-122.1,72-122.1,144.5c0,27.5,7.6,53.3,20.9,75.3
									l-12.2,32.7l-7.1,16.1l-5.7-9.8l-7.1-18l-0.1-0.2c-3.3-7.6-10.4-11-18.8-9.1l-0.1,0c-0.4,0.1-10.5,2.8-7,18.2l13.2,48.6
									l13.3,35.5l49.6,24l18.8-12.8c3.1-2.1,5.7-5,7.6-8.2l21-32.8l0.1-0.2c0.1-0.2,0.3-0.5,0.4-0.7l13.4-19.8
									c14.5,4.8,30.1,7.5,46.2,7.5c80.8,0,146.5-65.7,146.5-146.5C790.3,519.3,782.4,493.1,768.7,470.8z M735.9,433.4l12.8-11.4
									l1.2,12.5l-0.6,11.3C745.1,441.3,740.6,437.2,735.9,433.4z M619.7,639.1c-0.7-1-1.5-1.9-2.5-2.7c-3-2.2-6.8-2.8-10.2-1.7
									c-1.5-0.7-3.1-1.3-4.6-2.1c1.6-3,3.1-6.7,3.6-10.8c0.5-4.3-1.4-8.4-5-10.7c-3.6-2.3-8.2-2.3-11.9-0.1
									c-3.3,2-5.9,4.8-7.9,7.5c-0.9-0.8-1.9-1.7-2.8-2.5c1.8-3.6,4-8.6,4.2-14.2c0.2-4.3-2.1-8.2-5.9-10.3
									c-3.8-2-8.3-1.7-11.8,0.8c-1.1,0.8-2.1,1.7-3.1,2.7c-8.3-14.1-13-30.5-13-47.9c0-50.5,39.5-91.8,89.2-94.8
									c-0.1,0.1-0.1,0.2-0.2,0.3c-2,4-1.6,8.6,1.1,12.1c2.7,3.5,7.1,5.2,11.5,4.3c7.2-1.5,12.8-6.1,16.2-8.9
									c0.4-0.4,0.8-0.7,1.2-1l3.7-2.9c0.6,0.2,1.2,0.4,1.8,0.6c-2.6,3.1-4.5,6.3-6,9.4c-1.9,4.1-1.2,8.8,1.6,12.2
									c2.2,2.7,5.4,4.1,8.7,4.1c0.9,0,1.9-0.1,2.8-0.4c7.1-1.8,12.5-6.7,15.8-9.7c0.4-0.4,0.8-0.7,1.1-1l1.6-1.6
									c24,17.2,39.7,45.4,39.7,77.2c0,52.4-42.6,95-95,95C635.4,642.2,627.4,641.1,619.7,639.1z M575.1,701.6l-21,32.8l-0.1,0.2
									c-1.2,2-2.8,3.7-4.7,5l-14,9.5l-40.7-19.8l-11.7-31.1l-13-48c-0.9-4-0.3-5.8,0.1-6.3c4.3-0.8,6,1.4,6.9,3.4l7.3,18.6
									l16,27.5l15.1-34.3l17.3-46.3c0.2-0.4,0.4-0.9,0.6-1.4c1.4-3.2,3.4-8,6.9-10.8c0.3-0.3,0.7-0.3,1.1-0.1
									c0.3,0.2,0.7,0.5,0.7,1.1c0,4-1,8.8-3.1,14.1l-15.7,46.7c-0.5,1.4-0.8,4.2,2.6,6.8c1.5,1.1,3.4,1.5,5.2,1
									c2.1-0.6,3.1-1.8,3.6-2.8l28.3-55.1c0.2-0.4,0.5-0.9,0.7-1.5c1.5-3.1,3.8-7.8,7.4-10.5c0.5-0.4,0.9-0.2,1.2-0.1
									c0.4,0.2,0.6,0.6,0.6,1c-0.2,4.6-2.7,9.3-4.2,12.1c-0.2,0.5-0.5,0.9-0.7,1.3l-0.1,0.2l-23.5,57.7c-1.1,2.7,0.1,5.8,2.8,7.1
									c3.1,1.5,6.9,0.4,8.7-2.5l29.6-46.4c0.2-0.4,0.5-0.9,0.8-1.4c1.7-3,4.4-7.5,8.2-9.9c0.5-0.3,1-0.2,1.2,0
									c0.4,0.2,0.5,0.6,0.5,1.1c-0.5,4.5-3.4,9-5.1,11.7c-0.3,0.5-0.5,0.9-0.8,1.2l-25.6,48c-0.7,1.3-0.9,3-0.4,4.4
									c0.5,1.5,1.5,2.7,2.9,3.3l0.8,0.4c2.4,1.1,5.3,0.4,6.9-1.7l25.1-33l0.1-0.1c0.3-0.4,0.6-0.8,1-1.3c2-2.8,4.9-7.1,9-9.2
									c0.5-0.3,1-0.1,1.2,0.1c0.4,0.3,0.5,0.7,0.4,1.1c-0.9,4.5-4.1,8.7-6,11.3c-0.3,0.4-0.6,0.8-0.9,1.2L576,700.3
									C575.7,700.7,575.4,701.2,575.1,701.6z M597.3,641.3c0.1,0,0.2,0.1,0.3,0.2c-0.3,0.3-0.6,0.7-0.9,1.1L597.3,641.3z
									 M575.7,627.1l-6.2,9.7l4.5-11.2C574.6,626.1,575.2,626.6,575.7,627.1z M628.8,397.7c2.9-4,7.8-6.7,10.8-8.3
									c0.5-0.3,1-0.5,1.3-0.7l46.1-28c0.5-0.3,1-0.6,1.4-0.9l34.6-22.2l0.2-0.1c2-1.4,4.4-2.4,6.8-2.8l17.8-3l30.5,37.1l-2.5,35.1
									l-8.6,51.8c-1,4.6-2.5,6-3.1,6.3c-4.8-1.2-5.4-4.3-5.4-6.6l1.2-21.1l-3.2-32.8l-29.1,25.9l-36.9,36.8
									c-0.4,0.3-0.7,0.7-1.2,1c-2.7,2.5-6.8,6.2-11.5,7.4c-0.7,0.2-1.2-0.2-1.4-0.5c-0.2-0.3-0.6-0.9-0.2-1.6
									c1.8-3.9,4.9-8,9.2-12.3l35.6-37.9c1-1.1,2.4-3.5,0.4-7.3c-0.9-1.7-2.5-2.8-4.3-3.1c-0.4-0.1-0.7-0.1-1.1-0.1
									c-1.6,0-2.7,0.6-3.4,1.1l-51.4,40.4c-0.4,0.3-0.9,0.7-1.4,1.1c-2.8,2.3-7.1,5.9-11.8,6.8c-0.8,0.1-1.2-0.2-1.5-0.5
									c-0.2-0.3-0.5-0.9-0.1-1.5c2.2-4.4,6.7-7.8,9.4-9.8c0.5-0.4,0.9-0.7,1.2-0.9l0.2-0.1l47.9-45c2.1-2,2.3-5.4,0.4-7.6
									c-2.3-2.7-6.2-3.2-9.1-1.4l-48.8,31.5c-0.4,0.3-0.9,0.6-1.4,1c-3,2.1-7.5,5.3-12.3,5.9c-0.8,0.1-1.2-0.3-1.4-0.7
									c-0.2-0.4-0.4-0.9,0-1.5c2.6-4.2,7.3-7.2,10.1-9.1c0.5-0.3,0.9-0.6,1.3-0.8l45.7-34.8c1.2-0.9,2-2.3,2.2-3.9
									c0.2-1.5-0.3-3.1-1.3-4.3l-0.6-0.7c-1.7-2-4.7-2.6-7-1.4l-38.6,20.6l-0.1,0.1c-0.5,0.2-1,0.5-1.5,0.9
									c-3.2,1.9-7.9,4.7-12.8,4.9c-0.8,0-1.2-0.4-1.4-0.8C628.5,398.9,628.3,398.3,628.8,397.7z M507.3,547.3
									c0-73.2,57.9-133.1,130.2-136.4c0,0-0.1,0-0.1,0.1c-3.5,2.3-9.5,6.1-13.2,12.3c-2.3,3.8-2.3,8.5,0.1,12.2
									c2.4,3.7,6.7,5.7,11.1,5.2c7.3-0.9,13.3-5.1,16.9-7.6c0.5-0.3,0.9-0.6,1.2-0.8l14.4-9.3L651,438.7c-0.3,0.2-0.6,0.5-0.9,0.7
									c-1,0.8-2.2,1.7-3.5,2.8c-0.9,0-1.8,0-2.8,0c-57.9,0-105,47.1-105,105c0,21,6.2,40.5,16.8,56.9c-0.5,0.9-0.9,1.8-1.2,2.5
									c-0.2,0.5-0.4,0.9-0.6,1.3l-5,9.8c2.1-5.9,3.1-11.1,3.1-15.9c0-4.3-2.4-8.2-6.4-10.1c-3.9-1.9-8.4-1.3-11.7,1.3
									c-5.5,4.4-8.2,10.8-9.8,14.7c-0.2,0.5-0.4,0.9-0.6,1.3l-0.5,1.4C512.8,591.4,507.3,570,507.3,547.3z M643.8,683.8
									c-14.1,0-27.6-2.1-40.4-6.1l9.4-13.9c0.2-0.3,0.5-0.6,0.7-1c2.1-2.9,5.6-7.4,7.2-13.1c7.4,1.7,15.1,2.5,23,2.5
									c57.9,0,105-47.1,105-105c0-34.5-16.8-65.2-42.6-84.4l22.5-22.3c7.8,6.2,14.8,13.2,21.1,20.9c1.1,3.1,3,5.6,5.7,7.5
									c15.7,22.2,24.9,49.3,24.9,78.5C780.3,622.5,719,683.8,643.8,683.8z"/>
							</defs>
							<clipPath id="SVGID_6_">
								<use xlink:href="#SVGID_5_"  style="overflow:visible;"/>
							</clipPath>
							<g class="st2">
								<g>
									<defs>
										<rect id="SVGID_7_" x="459.4" y="320.8" width="331" height="440"/>
									</defs>
									<clipPath id="SVGID_8_">
										<use xlink:href="#SVGID_7_"  style="overflow:visible;"/>
									</clipPath>
									<g class="st3">
										<g class="st4">
											<g>
												<g>
													<defs>
														<rect id="SVGID_9_" x="459.4" y="320.8" width="331" height="440"/>
													</defs>
													<clipPath id="SVGID_10_">
														<use xlink:href="#SVGID_9_"  style="overflow:visible;"/>
													</clipPath>
													<g class="st5">
														
															<image style="overflow:visible;enable-background:new    ;" width="1383" height="1838" xlink:href="D9819332E56DDC.jpg"  transform="matrix(0.2395 0 0 0.2395 459.399 320.6002)">
														</image>
													</g>
												</g>
											</g>
										</g>
									</g>
								</g>
								<g>
									<defs>
										<rect id="SVGID_11_" x="459.4" y="320.8" width="331" height="440"/>
									</defs>
									<clipPath id="SVGID_12_">
										<use xlink:href="#SVGID_11_"  style="overflow:visible;"/>
									</clipPath>
									<g class="st6">
										<g>
											<g>
												<defs>
													<rect id="SVGID_13_" x="459.4" y="320.8" width="331" height="440"/>
												</defs>
												<clipPath id="SVGID_14_">
													<use xlink:href="#SVGID_13_"  style="overflow:visible;"/>
												</clipPath>
												<g class="st7">
													
														<image style="overflow:visible;enable-background:new    ;" width="1383" height="1838" xlink:href="D9819332E56DDD.jpg"  transform="matrix(0.2395 0 0 0.2395 459.399 320.6002)">
													</image>
												</g>
											</g>
										</g>
									</g>
								</g>
							</g>
						</g>
					</g>
				</g>
			</g>
		</g>
	</g>
</g>
<g>
	<g>
		<defs>
			<path id="SVGID_15_" d="M604.6,657.9c0.2-0.3,0.5-0.7,0.9-1.2c1.9-2.5,5.1-6.8,6-11.3c0.1-0.5,0-0.8-0.4-1.1
				c-0.3-0.2-0.7-0.4-1.2-0.1c-4,2.1-7,6.3-9,9.2c-0.3,0.5-0.7,1-1,1.3l-0.1,0.1l-25.1,33c-1.6,2.1-4.5,2.8-6.9,1.7l-0.8-0.4
				c-1.4-0.7-2.5-1.9-2.9-3.3c-0.5-1.5-0.3-3,0.4-4.4l25.6-48c0.2-0.4,0.5-0.8,0.8-1.2c1.7-2.7,4.5-7.2,5.1-11.7
				c0.1-0.5-0.1-0.8-0.5-1.1c-0.3-0.2-0.7-0.3-1.2,0c-3.8,2.4-6.5,6.9-8.2,9.9c-0.3,0.5-0.6,1-0.8,1.4l-29.6,46.4
				c-1.8,2.9-5.6,4-8.7,2.5c-2.7-1.2-3.9-4.4-2.8-7.1l23.5-57.7l0.1-0.2c0.2-0.4,0.4-0.8,0.7-1.3c1.5-2.8,4-7.5,4.2-12.1
				c0-0.5-0.2-0.8-0.6-1c-0.3-0.2-0.7-0.3-1.2,0.1c-3.7,2.7-5.9,7.4-7.4,10.5c-0.3,0.5-0.5,1-0.7,1.5l-28.3,55.1
				c-0.5,1-1.5,2.2-3.6,2.8c-1.8,0.5-3.7,0.1-5.2-1c-3.4-2.6-3.1-5.3-2.6-6.8l15.7-46.7c2-5.4,3.1-10.1,3.1-14.1
				c0-0.6-0.4-0.9-0.7-1.1c-0.4-0.2-0.8-0.2-1.1,0.1c-3.5,2.8-5.6,7.6-6.9,10.8c-0.2,0.5-0.4,1-0.6,1.4l-17.3,46.3l-15.1,34.3
				l-16-27.5l-7.3-18.6c-0.9-2-2.5-4.2-6.9-3.4c-0.4,0.5-1,2.3-0.1,6.3l13,48l11.7,31.1l40.7,19.8l14-9.5c1.9-1.3,3.5-3,4.7-5
				l0.1-0.2l21-32.8c0.3-0.5,0.6-0.9,0.9-1.4L604.6,657.9z"/>
		</defs>
		<clipPath id="SVGID_16_">
			<use xlink:href="#SVGID_15_"  style="overflow:visible;"/>
		</clipPath>
		<rect x="464.4" y="595.2" class="st8" width="152.1" height="159"/>
	</g>
</g>
<g>
	<g>
		<defs>
			<path id="SVGID_17_" d="M630,400c4.8-0.2,9.6-3,12.8-4.9c0.5-0.3,1-0.6,1.5-0.9l0.1-0.1l38.6-20.6c2.3-1.3,5.3-0.7,7,1.4l0.6,0.7
				c1,1.2,1.5,2.7,1.3,4.3c-0.2,1.5-1,2.9-2.2,3.9l-45.6,34.8c-0.4,0.2-0.8,0.5-1.3,0.8c-2.8,1.8-7.6,4.9-10.1,9.1
				c-0.4,0.6-0.2,1.2,0,1.5c0.2,0.4,0.7,0.8,1.4,0.7c4.8-0.6,9.3-3.8,12.3-5.9c0.5-0.4,1-0.7,1.4-1l48.8-31.5
				c2.9-1.9,6.9-1.3,9.1,1.4c1.9,2.3,1.7,5.6-0.4,7.6l-47.9,45l-0.2,0.1c-0.3,0.3-0.8,0.6-1.2,0.9c-2.7,2-7.2,5.5-9.4,9.8
				c-0.3,0.7-0.1,1.2,0.1,1.5c0.3,0.3,0.7,0.7,1.5,0.5c4.7-1,9-4.5,11.8-6.8c0.5-0.4,1-0.8,1.4-1.1l51.4-40.4
				c0.7-0.5,1.8-1.1,3.4-1.1c0.3,0,0.7,0,1.1,0.1c1.8,0.3,3.5,1.5,4.3,3.1c2,3.8,0.6,6.2-0.4,7.3l-35.6,37.9
				c-4.3,4.3-7.5,8.4-9.2,12.3c-0.4,0.8,0,1.4,0.2,1.6c0.3,0.3,0.7,0.7,1.4,0.5c4.7-1.2,8.8-4.9,11.5-7.4c0.4-0.4,0.8-0.7,1.2-1
				l36.9-36.8l29.1-25.9l3.2,32.8l-1.2,21.1c0,2.3,0.6,5.4,5.4,6.6c0.6-0.2,2.1-1.7,3.1-6.3l8.7-51.8l2.5-35.1l-30.5-37.1l-17.8,3
				c-2.4,0.4-4.8,1.4-6.8,2.8l-0.2,0.1l-34.6,22.2c-0.5,0.3-0.9,0.6-1.4,0.9l-46.1,28c-0.4,0.2-0.8,0.5-1.3,0.7
				c-3,1.6-7.9,4.3-10.8,8.3c-0.5,0.6-0.3,1.2-0.1,1.5C628.9,399.6,629.3,400.1,630,400"/>
		</defs>
		<clipPath id="SVGID_18_">
			<use xlink:href="#SVGID_17_"  style="overflow:visible;"/>
		</clipPath>
		<rect x="623.5" y="326.6" class="st9" width="159.9" height="151"/>
	</g>
</g>
</svg>
