<svg height="284" viewBox="0 0 284 284" width="284" xmlns="http://www.w3.org/2000/svg" xmlns:xlink="http://www.w3.org/1999/xlink"><linearGradient id="a" x1="50%" x2="50%" y1="0%" y2="100%"><stop offset="0" stop-color="#002d6e"/><stop offset=".55534734" stop-color="#00d4e8"/><stop offset="1" stop-color="#158130"/></linearGradient><path d="m813.001984 598.591592c-11.066613 11.057672-23.809512 19.931217-37.671139 26.408408-6.594109-3.093674-25.68613-14.430274-17.19006-38.978355 5.45607-11.394811 13.390965-14.629161 21.065185-17.756792 8.333148-3.396857 18.699802-7.622008 16.805081-23.956268-.739785-10.990972 6.205511-17.150428 20.650036-18.308585 12.427916.01334 23.951918 4.740562 31.338913 9.597545-5.439174 23.68583-17.402462 45.4131-34.998016 62.994047m-93.110688 38.392712c-.687217.010867-1.368396.015696-2.051989.015696-8.055779 0-15.978704-.714765-23.70114-2.097207 17.81088-10.995549 29.114333-27.100701 30.985158-44.891346 2.198128-20.924986-8.803384-40.929954-30.988781-56.366221-7.427742-6.878406-5.230822-12.90682.379237-25.72188 3.20178-7.309438 6.828692-15.595641 7.856498-25.305337l.051934-.487779-.036233-.488986c-1.211386-16.140166-10.734597-35.379659-49.227209-35.379659l-.283824.007244c-9.274412.484157-12.572812-3.683695-14.417066-7.372221-2.719882-5.440424-3.344296-13.178479-3.847933-19.395244-.353875-4.376728-.671516-8.096645-1.609948-11.051088 15.622413-13.457382 45.386523-33.450276 84.414174-33.450276.806786 0 1.626857.008452 2.442097.026562 3.265791.06882 6.482063.263208 9.656064.555392.042272.433447.085751.869309.130439 1.313622.800746 7.872074 1.89498 18.646673-6.204278 33.981521-17.687689 30.616571-.682387 41.603668 10.572756 48.878092 6.368534 4.114728 10.323958 6.930323 10.944748 10.849456-.016909 6.199862-.44808 12.852489-.864758 19.288996-1.190855 18.365354-2.218661 34.22541 5.2743 42.217013 2.869645 3.059484 6.805744 4.677364 11.384374 4.677364 12.60059 0 17.800009-15.723622 22.829134-30.930488 2.114793-6.393042 4.300844-13.002203 6.785212-17.540719 2.010926-3.674037 14.869978-6.316977 24.257919-8.245152 11.147652-2.291594 23.228904-4.779991 30.603504-10.230074 3.777883 11.91436 5.774315 24.142636 5.774315 36.164452 0 6.098442-.427548 12.130479-1.248827 18.067134-8.722464-4.846397-20.717965-9.017871-33.516629-9.017871h-.17271l-.397354.015695c-20.576657 1.569586-32.118039 12.777632-30.871628 29.981493l.025363.257171c.978288 8.131659-1.811644 9.262968-10.09569 12.620673-8.298539 3.364949-19.663588 7.972286-26.939152 23.348184l-.210151.508304c-5.793639 16.34059-1.675167 28.339466 2.800802 35.526959 2.914332 4.679779 6.992948 8.899548 11.785351 12.321244-13.414623 4.618203-27.648109 7.134369-42.268079 7.349281m-130.864784-131.102438c.966794-49.016286 29.106803-82.624931 32.3137-86.296586.427667-.491167 1.239387-1.394865 2.375794-2.58528.094498 1.021047.176882 2.045723.253208 2.976036 1.078254 13.329256 3.088168 38.12472 29.610796 36.823006 35.543616.045972 37.804316 18.150193 38.332539 24.87289-.923179 7.858671-3.998021 14.871713-6.972306 21.657318-5.323425 12.14247-11.355591 25.903614 2.545406 38.442889l.556089.439147c19.028156 13.128433 28.526484 29.676889 26.746759 46.596745-1.840301 17.484818-15.379053 33.197323-36.277799 42.191969-19.649666-6.157734-37.535357-16.916226-52.338938-31.771003-24.65325-24.738605-37.845508-57.891166-37.145248-93.347131m251.973488-47.465433c-2.329094 5.629345-16.848608 8.605961-28.714969 11.035112-14.655449 2.999578-27.313144 5.590673-31.760148 13.686633-2.973569 5.409393-5.329364 12.50348-7.607482 19.36432-3.105863 9.356461-7.801675 23.497502-12.570309 23.497502-2.039019 0-2.925021-.664693-3.469973-1.24358-4.294077-4.561003-3.27214-20.26226-2.371574-34.115671.43936-6.741195.893285-13.712012.893285-20.372236l-.036411-.633271c-1.114178-9.4471-8.999599-14.521729-15.955323-19.000551-11.435498-7.361173-19.697166-12.678717-7.047966-34.431098l.099523-.178863c9.283605-17.451212 8.491058-30.279787 7.623261-39.02473 48.196096 8.506862 84.334065 42.234593 100.918086 81.416433m-120.870251-94.387429c-.891878-.019336-1.78013-.029004-2.664757-.029004-60.258571 0-100.124797 43.706996-104.527388 48.75857-3.46358 3.972375-33.869614 40.332834-34.90893 93.139915-.757734 38.3968 13.524401 74.313736 40.217901 101.137838 26.3382 26.467592 61.641103 40.963677 99.628101 40.963677.737189 0 1.480421-.004834 2.220027-.016919 38.013584-.560749 73.635534-15.47377 100.304864-41.990911 26.826436-26.67183 41.600433-62.181498 41.600433-99.986127 0-83.116528-73.357577-140.515949-141.870251-141.977039" fill="url(#a)" fill-rule="evenodd" transform="translate(-578 -364)"/></svg>