<?xml version="1.0" encoding="UTF-8"?>
<svg width="284px" height="284px" viewBox="0 0 284 284" version="1.1" xmlns="http://www.w3.org/2000/svg" xmlns:xlink="http://www.w3.org/1999/xlink">
    <!-- Generator: Sketch 55.1 (78136) - https://sketchapp.com -->
    <title>World</title>
    <desc>Created with Sketch.</desc>
    <defs>
        <linearGradient x1="50%" y1="0%" x2="50%" y2="100%" id="linearGradient-1">
            <stop stop-color="#002D6E" offset="0%"></stop>
            <stop stop-color="#00D4E8" offset="55.534734%"></stop>
            <stop stop-color="#158130" offset="100%"></stop>
        </linearGradient>
    </defs>
    <g id="High-fi" stroke="none" stroke-width="1" fill="none" fill-rule="evenodd">
        <g id="Contact-Us-Confirmation-with-subscription" transform="translate(-578.000000, -364.000000)" fill="url(#linearGradient-1)">
            <path d="M813.001984,598.591592 C801.935371,609.649264 789.192472,618.522809 775.330845,625 C768.736736,621.906326 749.644715,610.569726 758.140785,586.021645 C763.596855,574.626834 771.53175,571.392484 779.20597,568.264853 C787.539118,564.867996 797.905772,560.642845 796.011051,544.308585 C795.271266,533.317613 802.216562,527.158157 816.661087,526 C829.089003,526.01334 840.613005,530.740562 848,535.597545 C842.560826,559.283375 830.597538,581.010645 813.001984,598.591592 M719.891296,636.984304 C719.204079,636.995171 718.5229,637 717.839307,637 C709.783528,637 701.860603,636.285235 694.138167,634.902793 C711.949047,623.907244 723.2525,607.802092 725.123325,590.011447 C727.321453,569.086461 716.319941,549.081493 694.134544,533.645226 C686.706802,526.76682 688.903722,520.738406 694.513781,507.923346 C697.715561,500.613908 701.342473,492.327705 702.370279,482.618009 L702.422213,482.13023 L702.38598,481.641244 C701.174594,465.501078 691.651383,446.261585 653.158771,446.261585 L652.874947,446.268829 C643.600535,446.752986 640.302135,442.585134 638.457881,438.896608 C635.737999,433.456184 635.113585,425.718129 634.609948,419.501364 C634.256073,415.124636 633.938432,411.404719 633,408.450276 C648.622413,394.992894 678.386523,375 717.414174,375 C718.22096,375 719.041031,375.008452 719.856271,375.026562 C723.122062,375.095382 726.338334,375.28977 729.512335,375.581954 C729.554607,376.015401 729.598086,376.451263 729.642774,376.895576 C730.44352,384.76765 731.537754,395.542249 723.438496,410.877097 C705.750807,441.493668 722.756109,452.480765 734.011252,459.755189 C740.379786,463.869917 744.33521,466.685512 744.956,470.604645 C744.939091,476.804507 744.50792,483.457134 744.091242,489.893641 C742.900387,508.258995 741.872581,524.119051 749.365542,532.110654 C752.235187,535.170138 756.171286,536.788018 760.749916,536.788018 C773.350506,536.788018 778.549925,521.064396 783.57905,505.85753 C785.693843,499.464488 787.879894,492.855327 790.364262,488.316811 C792.375188,484.642774 805.23424,481.999834 814.622181,480.071659 C825.769833,477.780065 837.851085,475.291668 845.225685,469.841585 C849.003568,481.755945 851,493.984221 851,506.006037 C851,512.104479 850.572452,518.136516 849.751173,524.073171 C841.028709,519.226774 829.033208,515.0553 816.234544,515.0553 L816.061834,515.0553 L815.66448,515.070995 C795.087823,516.640581 783.546441,527.848627 784.792852,545.052488 L784.818215,545.309659 C785.796503,553.441318 783.006571,554.572627 774.722525,557.930332 C766.423986,561.295281 755.058937,565.902618 747.783373,581.278516 L747.573222,581.78682 C741.779583,598.12741 745.898055,610.126286 750.374024,617.313779 C753.288356,621.993558 757.366972,626.213327 762.159375,629.635023 C748.744752,634.253226 734.511266,636.769392 719.891296,636.984304 M589.026512,505.881866 C589.993306,456.86558 618.133315,423.256935 621.340212,419.58528 C621.767879,419.094113 622.579599,418.190415 623.716006,417 C623.810504,418.021047 623.892888,419.045723 623.969214,419.976036 C625.047468,433.305292 627.057382,458.100756 653.58001,456.799042 C689.123626,456.845014 691.384326,474.949235 691.912549,481.671932 C690.98937,489.530603 687.914528,496.543645 684.940243,503.32925 C679.616818,515.47172 673.584652,529.232864 687.485649,541.772139 L688.041738,542.211286 C707.069894,555.339719 716.568222,571.888175 714.788497,588.808031 C712.948196,606.292849 699.409444,622.005354 678.510698,631 C658.861032,624.842266 640.975341,614.083774 626.17176,599.228997 C601.51851,574.490392 588.326252,541.337831 589.026512,505.881866 M841,458.416433 C838.670906,464.045778 824.151392,467.022394 812.285031,469.451545 C797.629582,472.451123 784.971887,475.042218 780.524883,483.138178 C777.551314,488.547571 775.195519,495.641658 772.917401,502.502498 C769.811538,511.858959 765.115726,526 760.347092,526 C758.308073,526 757.422071,525.335307 756.877119,524.75642 C752.583042,520.195417 753.604979,504.49416 754.505545,490.640749 C754.944905,483.899554 755.39883,476.928737 755.39883,470.268513 L755.362419,469.635242 C754.248241,460.188142 746.36282,455.113513 739.407096,450.634691 C727.971598,443.273518 719.70993,437.955974 732.35913,416.203593 L732.458653,416.02473 C741.742258,398.573518 740.949711,385.744943 740.081914,377 C788.27801,385.506862 824.415979,419.234593 841,458.416433 M720.129749,364.029004 C719.237871,364.009668 718.349619,364 717.464992,364 C657.206421,364 617.340195,407.706996 612.937604,412.75857 C609.474024,416.730945 579.06799,453.091404 578.028674,505.898485 C577.27094,544.295285 591.553075,580.212221 618.246575,607.036323 C644.584775,633.503915 679.887678,648 717.874676,648 C718.611865,648 719.355097,647.995166 720.094703,647.983081 C758.108287,647.422332 793.730237,632.509311 820.399567,605.99217 C847.226003,579.32034 862,543.810672 862,506.006043 C862,422.889515 788.642423,365.490094 720.129749,364.029004" id="World"></path>
        </g>
    </g>
</svg>