<?xml version="1.0" encoding="UTF-8"?>
<svg width="424px" height="424px" viewBox="0 0 424 424" version="1.1" xmlns="http://www.w3.org/2000/svg" xmlns:xlink="http://www.w3.org/1999/xlink">
    <!-- Generator: Sketch 54.1 (76490) - https://sketchapp.com -->
    <title>Group 11</title>
    <desc>Created with Sketch.</desc>
    <defs>
        <path d="M207.911531,2.55795385e-13 C93.0881972,2.55795385e-13 7.99252315e-05,93.0881173 7.99252315e-05,207.911451 C-0.0560044539,271.901621 29.4068661,332.340472 79.8504194,371.712963 C82.0833618,373.460947 84.3562733,375.163632 86.669154,376.821019 C89.7441128,379.043302 92.8883515,381.17499 96.10187,383.21608 L97.0531355,383.815617 C108.88517,391.294345 121.446747,397.551028 134.544185,402.489198 C135.343568,402.808951 136.222889,403.12071 137.06224,403.424475 C143.110903,405.614784 149.284802,407.527973 155.583938,409.164043 C156.031592,409.283951 156.471253,409.395864 156.918907,409.499784 C161.747179,410.725504 166.639401,411.772695 171.595574,412.641358 C171.779432,412.641358 171.955296,412.713302 172.139154,412.737284 L174.273506,413.097006 C175.26474,413.256883 176.255975,413.416759 177.24721,413.552654 L178.494247,413.744506 L178.558197,413.744506 L178.87795,413.792469 L179.485481,413.872407 C188.906191,415.15834 198.403461,415.801996 207.911531,415.79892 C322.734864,415.79892 415.822981,322.710802 415.822981,207.887469 C415.822981,93.0641358 322.734864,2.55795385e-13 207.911531,2.55795385e-13 Z M207.911531,390.962099 L205.513382,390.962099 L203.634833,390.962099 L202.555666,390.962099 C201.820234,390.962099 201.092796,390.92213 200.357364,390.890154 L199.006407,390.826204 C198.334926,390.826204 197.671438,390.762253 196.999956,390.722284 L195.680975,390.642346 L195.44116,390.642346 L193.410728,390.490463 C191.883907,390.378549 190.36508,390.23466 188.854247,390.082778 L188.854247,390.082778 L188.518506,390.042809 L187.479308,389.930895 L186.440111,389.810988 C186.040419,389.810988 185.640728,389.723056 185.257024,389.667099 L184.065944,389.515216 L184.065944,389.515216 L183.578321,389.451265 L183.394463,389.451265 L181.539895,389.195463 L181.220142,389.1475 C180.260882,389.011605 179.309617,388.859722 178.358352,388.70784 L177.79079,388.611914 C176.367889,388.377428 174.947652,388.12429 173.53008,387.8525 L173.242302,387.796543 L173.074432,387.796543 L172.514864,387.692623 L172.418938,387.692623 L172.219092,387.692623 L170.508413,387.348889 C169.900882,387.228981 169.301345,387.093086 168.701808,386.965185 L167.286901,386.653426 L167.031098,386.589475 L165.712117,386.101852 L164.113352,385.726142 L162.138876,385.230525 L161.011747,384.934753 L160.939802,384.934753 L159.428969,384.527068 L157.774247,384.063426 C157.246654,383.919537 156.711068,383.767654 156.175481,383.607778 L154.840512,383.208086 L152.929987,382.624537 L152.866037,382.624537 L152.746129,382.584568 C150.779648,381.969043 148.82116,381.313549 146.886654,380.62608 L146.750759,380.578117 L146.574895,380.514167 L146.574895,380.514167 L145.319864,380.066512 L144.064833,379.60287 L144.064833,379.60287 L143.481284,379.387037 L141.179061,378.499722 C140.419648,378.203951 139.65224,377.900185 138.892827,377.588426 L138.708969,377.516481 L136.62258,376.645154 L134.368321,375.669907 C133.441037,375.270216 132.513753,374.870525 131.594463,374.42287 L130.323444,373.839321 L128.556808,372.999969 L127.925296,372.696204 C126.129349,371.816883 124.346726,370.91358 122.577426,369.986296 C122.097796,369.730494 121.62616,369.482685 121.154524,369.186914 L120.938691,369.067006 C120.05937,368.603364 119.188043,368.115741 118.32471,367.636111 L116.789895,366.75679 L115.406963,365.957407 L114.543629,365.453796 L114.311808,365.309907 L112.56116,364.254722 C111.895008,363.855031 111.239514,363.447346 110.594679,363.031667 C110.027117,362.679938 109.467549,362.320216 108.907981,361.960494 C108.476314,361.688704 108.052642,361.40892 107.628969,361.161111 C106.957487,360.729444 106.294,360.28179 105.630512,359.834136 C104.967024,359.386481 104.455419,359.034753 103.87187,358.635062 L102.816685,357.89963 L102.30508,357.539907 L101.937364,357.276111 C101.337827,356.852438 100.746284,356.428765 100.15474,355.989105 C99.7470552,355.693333 99.3553577,355.397562 98.9396787,355.093796 C98.3401417,354.654136 97.7485984,354.206481 97.1570552,353.758827 C96.565512,353.311173 96.0059441,352.879506 95.4383824,352.431852 L95.2145552,352.263981 L93.7676725,351.120864 L93.6237836,351.008951 C92.2568392,349.913796 90.9058824,348.79466 89.5709133,347.667531 L88.3878268,346.652315 C87.4125799,345.815628 86.4453268,344.960288 85.4860676,344.086296 C85.1982898,343.838488 84.9185059,343.582685 84.6387219,343.286914 C83.7034441,342.439568 82.7681663,341.576235 81.8488762,340.696914 L80.0502651,338.938272 L80.0502651,338.938272 C79.5226725,338.426667 79.0030738,337.915062 78.4914688,337.395463 L77.4123021,336.300309 C77.0525799,335.940586 76.7008515,335.57287 76.3411293,335.205154 C76.2771787,335.141204 76.2052342,335.077253 76.1412836,335.005309 C75.4458207,334.285864 74.7583515,333.558426 74.0708824,332.822994 L74.0708824,332.783025 C73.4553577,332.135525 72.8558207,331.472037 72.2562836,330.808549 C71.6567466,330.145062 71.0572096,329.481574 70.4736602,328.810093 C69.8901108,328.138611 69.2186293,327.371204 68.6031046,326.651759 L68.5071787,326.539846 L66.7085676,324.3975 L66.6286293,324.29358 L65.7013454,323.158457 C65.3895861,322.782747 65.0858207,322.399043 64.7820552,322.01534 C64.1985059,321.287901 63.6229503,320.552469 63.0553886,319.817037 C62.9994318,319.745093 62.943475,319.681142 62.895512,319.609198 C62.3919009,318.961698 61.9042775,318.322191 61.416654,317.666698 C60.9290305,317.011204 60.4414071,316.371698 59.9697713,315.70821 C59.705975,315.348488 59.4421787,314.988765 59.1703886,314.621049 C58.8026725,314.117438 58.4429503,313.605833 58.0832281,313.094228 C57.3797713,312.102994 56.6923021,311.095772 56.0128268,310.088549 L56.0128268,310.088549 L56.0128268,310.088549 L56.0128268,310.088549 L55.5811602,309.449043 L55.1494935,308.809537 L54.2861602,307.490556 C53.6626417,306.531296 53.047117,305.564043 52.4395861,304.588796 C51.9199873,303.789414 51.4003886,302.910093 50.8967775,302.062747 L50.8967775,301.998796 C50.8168392,301.862901 50.7369009,301.727006 50.6489688,301.591111 C50.1613454,300.791728 49.6817157,299.944383 49.2020861,299.113025 L48.930296,298.641389 C48.4986293,297.889969 48.0829503,297.138549 47.6592775,296.379136 C47.0517466,295.275988 46.4575388,294.17284 45.876654,293.069691 C45.4849565,292.326265 45.0772713,291.574846 44.7175491,290.823426 C44.6535984,290.703519 44.5896478,290.591605 44.533691,290.471698 L44.2619009,289.920123 C43.8089174,289.008827 43.3612631,288.097531 42.9189379,287.186235 C42.6844524,286.717263 42.4606252,286.245628 42.2474565,285.771327 C42.0635984,285.371636 41.8717466,284.971944 41.6958824,284.580247 C41.6559133,284.500309 41.6159441,284.428364 41.5839688,284.348426 L41.5839688,284.276481 L41.4880429,284.068642 L41.4240923,283.932747 C41.0323947,283.06142 40.6247096,282.182099 40.2489997,281.302778 L40.1770552,281.134907 C39.292405,279.099146 38.4397301,277.044733 37.6190305,274.971667 C37.4191849,274.460062 37.2193392,273.956451 37.0274873,273.444846 L36.4519318,271.918025 C36.2600799,271.40642 36.0682281,270.894815 35.88437,270.375216 L35.332796,268.832407 L35.1729194,268.592593 C35.0130429,268.128951 34.8451725,267.657315 34.685296,267.185679 C34.5254194,266.714043 34.3575491,266.242407 34.2056663,265.762778 C34.0537836,265.283148 33.9178886,264.907438 33.7819935,264.483765 C33.574154,263.844259 33.3663145,263.196759 33.1664688,262.549259 C33.0625491,262.229506 32.9666231,261.901759 32.8627034,261.574012 C32.7587836,261.246265 32.6628577,260.926512 32.5669318,260.598765 C32.4070552,260.063179 32.2471787,259.519599 32.095296,259 C31.9434133,258.480401 31.7515614,257.816914 31.5916849,257.233364 C31.588107,257.212197 31.588107,257.19058 31.5916849,257.169414 C31.3678577,256.370031 31.1440305,255.570648 30.936191,254.771265 C30.7283515,253.971883 30.4805429,253.036605 30.2727034,252.165278 C30.1607898,251.717623 30.0488762,251.269969 29.9449565,250.822315 C29.6731663,249.724496 29.4067054,248.621348 29.1455738,247.51287 C29.0176725,246.921327 28.8897713,246.337778 28.7698639,245.746235 C28.6499565,245.154691 28.5700182,244.778981 28.4660984,244.283364 C28.4660984,244.283364 28.4660984,244.283364 28.4660984,244.283364 C28.346191,243.699815 28.2342775,243.116265 28.1223639,242.532716 C27.9864688,241.813272 27.8505738,241.093827 27.7226725,240.374383 C27.6427342,239.926728 27.562796,239.47108 27.4908515,239.023426 C27.4189071,238.575772 27.3069935,237.936265 27.2190614,237.42466 C27.2190614,237.312747 27.1790923,237.200833 27.1631046,237.08892 L26.9792466,235.817901 C26.8993083,235.31429 26.8273639,234.802685 26.7554194,234.299074 C26.7554194,234.091235 26.6914688,233.891389 26.6674873,233.683549 L26.4276725,231.900926 C26.3477342,231.301389 26.2757898,230.709846 26.2038454,230.110309 C26.0919318,229.254969 25.9960059,228.391636 25.9080738,227.528302 C25.852117,227.048673 25.804154,226.561049 25.756191,226.08142 L25.5803268,224.234846 C25.5323639,223.675278 25.4844009,223.123704 25.4444318,222.564136 C25.3804812,221.764753 25.3165305,221.00534 25.2685676,220.221944 C25.2285984,219.638395 25.1966231,219.054846 25.1646478,218.47929 C25.1646478,218.063611 25.1166849,217.679907 25.1006972,217.240247 C25.0633927,216.552778 25.0314174,215.865309 25.0047713,215.17784 C25.0047713,214.554321 24.9568083,213.930802 24.9408207,213.29929 C24.924833,212.667778 24.9408207,212.132191 24.9008515,211.548642 C24.8608824,210.965093 24.9008515,210.60537 24.9008515,210.133735 C24.9008515,209.390309 24.9008515,208.654877 24.9008515,207.911451 C24.9008515,106.821512 106.853568,24.8528086 207.959494,24.8528086 C309.065419,24.8528086 391.018135,106.813519 391.018135,207.911451 C391.018135,309.009383 309.009463,390.962099 207.911531,390.962099 Z" id="path-1"></path>
        <filter x="-1.7%" y="-1.2%" width="103.4%" height="103.4%" filterUnits="objectBoundingBox" id="filter-2">
            <feOffset dx="0" dy="2" in="SourceAlpha" result="shadowOffsetOuter1"></feOffset>
            <feGaussianBlur stdDeviation="2" in="shadowOffsetOuter1" result="shadowBlurOuter1"></feGaussianBlur>
            <feColorMatrix values="0 0 0 0 0   0 0 0 0 0   0 0 0 0 0  0 0 0 0.5 0" type="matrix" in="shadowBlurOuter1"></feColorMatrix>
        </filter>
    </defs>
    <g id="High-fi" stroke="none" stroke-width="1" fill="none" fill-rule="evenodd">
        <g id="Group-11" transform="translate(4.000000, 2.000000)" fill-rule="nonzero">
            <path d="M96.0191975,288.267284 C92.8216667,317.132994 87.489784,342.065741 82.3017901,355.143642 C80.135463,341.258364 80.4871914,315.766049 83.7246914,286.892346 C86.9621914,258.018642 92.2620988,233.061914 97.4500926,220 C99.6084259,233.909259 99.2566975,259.377593 96.0191975,288.267284 Z" id="Path" fill="#0F6321"></path>
            <path d="M111.1675,296.261111 C103.173673,324.183549 93.8448765,347.901235 86.5625,359.931944 C86.7303704,345.88679 91.2948457,320.810154 99.2726852,292.863735 C107.250525,264.917315 116.603302,241.191636 123.885679,229.16892 C123.709815,243.254043 119.14534,268.330679 111.1675,296.261111 Z" id="Path" fill="#0F6321"></path>
            <path d="M87.8015432,290.089877 C92.2461111,318.787716 93.6690123,344.240062 92.0942284,358.221265 C86.3626543,345.391173 80.0235494,320.698241 75.5789815,291.984414 C71.1344136,263.270586 69.7115123,237.794259 71.2942901,223.837037 C77.0258642,236.683117 83.3649691,261.376049 87.8015432,290.089877 Z" id="Path" fill="#0F6321"></path>
            <path d="M125.24463,314.734846 C121.647407,343.552593 116.043735,368.413395 110.695864,381.427346 C108.697407,367.518086 109.368889,342.033765 112.966111,313.200031 C116.563333,284.366296 122.175,259.489506 127.52287,246.491543 C129.513333,260.408796 128.841852,285.869136 125.24463,314.734846 Z" id="Path" fill="#158130" opacity="0.8"></path>
            <path d="M63.5962346,287.627778 C71.9897531,315.430309 76.9539198,340.435 77.3376235,354.496142 C69.8793827,342.593333 60.1588889,319.027531 51.7573765,291.209012 C43.3558642,263.390494 38.3837037,238.369815 38,224.316667 C45.4342593,236.243457 55.1867284,259.809259 63.5962346,287.627778 Z" id="Path" fill="#0F6321"></path>
            <path d="M110.328148,299.178858 C110.008395,302.824043 109.63535,306.535844 109.209012,310.314259 C109.161049,310.745926 109.113086,311.177593 109.05713,311.601265 C108.969198,312.400648 108.873272,313.200031 108.777346,313.999414 C107.977963,320.482407 107.130617,326.741574 106.171358,332.680988 C105.419938,337.389352 104.620556,341.89787 103.77321,346.166574 C103.50142,347.552171 103.234959,348.908457 102.973827,350.235432 C101.29524,358.814348 99.011288,367.263636 96.1391049,375.519907 L95.1878395,374.92037 C94.2285802,367.318241 93.916821,356.854321 94.2925309,344.59179 C94.2925309,344.59179 94.2925309,344.59179 94.2925309,344.59179 C94.2925309,344.351975 94.2925309,344.11216 94.2925309,343.872346 C94.2925309,343.264815 94.3404938,342.657284 94.3564815,342.041759 C94.6682407,334.047932 95.259784,325.254722 96.1550926,316.085802 C96.3895782,313.724959 96.6400514,311.342798 96.9065123,308.939321 C97.4101235,304.414815 97.9696914,299.986235 98.5772222,295.685556 C98.5772222,295.445741 98.633179,295.21392 98.6731481,294.982099 C99.5284877,288.90679 100.471759,283.087284 101.470988,277.619506 C104.228858,262.519167 107.45037,250.048796 110.62392,242.046975 C111.249642,246.387101 111.636592,250.75831 111.783025,255.140864 L111.783025,255.140864 C112.310617,266.939753 111.846975,282.231944 110.328148,299.178858 Z" id="Path" fill="#158130" opacity="0.8"></path>
            <path d="M85.7391358,368.517315 C83.4315844,366.859928 81.1586728,365.157243 78.9204012,363.409259 C77.913179,359.923951 76.9139506,356.166852 75.9387037,352.177932 C73.6204938,342.721235 71.4141975,331.969537 69.543642,320.458426 C69.2398765,318.619846 68.9361111,316.765278 68.6483333,314.862747 C67.6491049,308.395741 66.8017593,302.072623 66.1062963,296.061265 C63.7081481,275.277315 63.1325926,257.539012 64.3556481,246.71537 C67.2733951,253.254321 70.3430247,262.854907 73.2367901,274.485926 C76.0506173,285.725247 78.6885802,298.859105 80.8708951,312.976204 C81.0467593,314.09534 81.2146296,315.214475 81.3745062,316.325617 C81.8488066,319.523148 82.2831379,322.643405 82.6775,325.686389 C82.8773457,327.285154 83.0771914,328.88392 83.2610494,330.482685 C83.4449074,332.081451 83.604784,333.472377 83.7646605,334.935247 C84.1323765,338.38858 84.4601235,341.753981 84.7239198,344.999475 C84.7958642,345.88679 84.8678086,346.758117 84.9317593,347.629444 C85.4753395,355.359475 85.7631173,362.410031 85.7391358,368.517315 Z" id="Path" fill="#158130" opacity="0.9"></path>
            <path d="M145.564938,309.275062 C148.043025,338.212716 147.731265,363.697037 145.205216,377.534352 C140.360957,364.344537 135.716543,339.283889 133.214475,310.330247 C130.712407,281.376605 131.040154,255.868302 133.574198,242.046975 C138.434444,255.252778 143.078858,280.32142 145.564938,309.275062 Z" id="Path" fill="#0F6321"></path>
            <path d="M177.628179,405.464784 L177.947932,405.512747 L178.555463,405.592685 C178.619414,405.208981 178.67537,404.793302 178.731327,404.409599 L178.731327,404.409599 C178.811265,403.858025 178.88321,403.290463 178.955154,402.706914 L178.955154,402.706914 L178.955154,402.706914 C179.290895,400.084938 179.562685,397.175185 179.754537,394.017623 C179.754537,394.017623 179.754537,394.017623 179.754537,394.017623 L179.754537,394.017623 L179.754537,394.017623 C179.90642,391.771358 180.018333,389.405185 180.106265,386.919105 C180.17821,384.952623 180.218179,382.922191 180.250154,380.811821 C180.250154,380.012438 180.250154,379.173086 180.250154,378.341728 L180.250154,378.341728 C180.250154,375.19749 180.220844,371.930679 180.162222,368.541296 L180.162222,368.501327 C180.098272,365.359753 179.986358,362.106265 179.842469,358.788827 C179.578673,353.00929 179.194969,346.981944 178.683364,340.786728 L178.683364,340.786728 L178.683364,340.786728 C178.643395,340.283117 178.595432,339.779506 178.555463,339.275895 C176.077377,310.322253 171.432963,285.253611 166.564722,272.047809 C164.038673,285.869136 163.726914,311.377438 166.205,340.33108 C166.692623,346.038673 167.268179,351.594383 167.915679,356.934259 C167.915679,356.934259 167.915679,356.934259 167.915679,356.934259 C168.395309,360.971142 168.922901,364.888117 169.514444,368.661204 C169.514444,368.948981 169.602377,369.228765 169.642346,369.508549 L169.642346,369.508549 C170.153951,372.897932 170.681543,376.167407 171.241111,379.285 C171.456944,380.47608 171.664784,381.635185 171.880617,382.770309 C171.944568,383.122037 172.016512,383.465772 172.080463,383.801512 L172.080463,383.801512 C172.648025,386.711265 173.231574,389.47713 173.823117,392.075123 L173.823117,392.075123 C174.358704,394.409321 174.910278,396.615617 175.461852,398.678025 C175.925494,400.404691 176.394465,402.027438 176.868765,403.546265 C177.092593,404.233735 177.308426,404.905216 177.524259,405.552716 L177.628179,405.464784 Z" id="Path" fill="#0F6321"></path>
            <path d="M191.993086,333.944012 C191.145741,340.115247 190.130525,346.558272 188.955432,353.17716 L188.355895,356.478611 C187.276728,362.314105 186.133611,367.957747 184.934537,373.345586 C184.534846,375.136204 184.135154,376.90284 183.719475,378.629506 L183.719475,378.629506 C183.527623,379.428889 183.327778,380.292222 183.127932,381.107593 C182.040772,385.616111 180.921636,389.900802 179.786512,393.897716 L179.786512,393.897716 L179.786512,393.897716 C178.835247,397.263117 177.875988,400.436667 176.908735,403.394383 C176.716883,404.009907 176.517037,404.609444 176.317191,405.208981 C175.325957,405.073086 174.334722,404.91321 173.343488,404.753333 L171.209136,404.393611 C171.025278,404.393611 170.849414,404.337654 170.665556,404.297685 C170.849414,398.190401 171.337037,391.227778 172.120432,383.641636 L172.120432,383.641636 L172.24034,382.5225 C172.344259,381.491296 172.464167,380.436111 172.592068,379.380926 C173.215586,373.857191 173.998981,368.037685 174.934259,362.026327 L174.934259,362.026327 C175.467181,358.407788 176.080041,354.722634 176.77284,350.970864 C177.396358,347.464239 178.049187,344.021564 178.731327,340.64284 L178.731327,340.64284 L178.731327,340.64284 C183.527623,316.525463 189.499012,296.269105 194.774938,285.133704 C195.71821,295.917377 194.790926,313.423858 191.993086,333.944012 Z" id="Path" fill="#0F6321"></path>
            <path d="M136.132222,395.136759 C138.724597,387.221494 140.859806,379.163747 142.527284,371.003395 C142.599228,370.651667 142.679167,370.291944 142.751111,369.932222 C144.349877,362.266142 145.884691,353.792685 147.21966,344.783642 C147.752582,341.095823 148.266852,337.328066 148.762469,333.48037 C152.359691,304.638642 153.031173,279.162315 151.04071,265.237068 C148.530648,271.336358 145.956636,280.065617 143.566481,290.593488 C140.864568,302.480309 138.394475,316.661358 136.483951,331.945556 C136.332068,333.176605 136.180185,334.407654 136.036296,335.622716 C135.860432,337.101574 135.700556,338.572438 135.540679,340.035309 C134.741296,347.18179 134.173735,354.072469 133.774043,360.555463 C133.630154,362.852356 133.510247,365.095957 133.414321,367.286265 C132.937988,376.253335 132.991373,385.240703 133.574198,394.201481 L136.132222,395.136759 Z" id="Path" fill="#158130" opacity="0.8"></path>
            <path d="M111.159506,326.541728 C114.021296,350.131512 114.500926,370.979414 112.83821,382.370617 C108.497562,371.72284 103.973056,351.362562 101.111265,327.764784 C98.2494753,304.167006 97.7618519,283.295123 99.4245679,271.919907 C103.789198,282.583673 108.289722,302.935957 111.159506,326.541728 Z" id="Path" fill="#1BA538" opacity="0.75"></path>
            <path d="M191.993086,333.944012 C189.499012,340.427006 187.020926,347.333673 184.622778,354.528117 C184.327006,355.415432 184.039228,356.294753 183.751451,357.174074 C182.49642,360.995123 181.353302,364.720247 180.210185,368.405401 L180.210185,368.44537 C179.003117,372.442284 177.883981,376.391235 176.852778,380.188302 C176.804815,380.356173 176.764846,380.524043 176.716883,380.68392 L176.716883,380.68392 C175.651039,384.590237 174.699774,388.35 173.863086,391.96321 L173.863086,391.96321 C172.815895,396.383796 171.92858,400.556574 171.209136,404.43358 L173.343488,404.793302 C174.334722,404.953179 175.325957,405.113056 176.317191,405.248951 L177.564228,405.440802 L177.628179,405.440802 C178.06784,404.5375 178.515494,403.626204 178.963148,402.674938 L178.963148,402.674938 L178.963148,402.674938 C181.880895,396.479722 184.910556,389.405185 187.940216,381.683148 L187.940216,381.683148 C190.778025,374.440741 193.615833,366.622778 196.341728,358.437099 C197.732654,354.272315 199.035648,350.163488 200.25071,346.150586 C200.25071,346.150586 200.25071,346.150586 200.25071,346.150586 C207.117407,323.607994 211.298179,303.90321 211.961667,291.984414 C206.230093,300.609753 199.051636,315.582191 191.993086,333.944012 Z" id="Path" fill="#158130" opacity="0.8"></path>
            <path d="M177.628179,405.464784 L177.947932,405.512747 C178.211728,405.145031 178.475525,404.785309 178.747315,404.409599 L178.747315,404.409599 C183.008025,398.286327 187.716389,390.684198 192.520679,382.098827 C195.086698,377.518364 197.684691,372.658117 200.25071,367.590031 C211.002407,346.382407 218.572562,326.949414 220.890772,315.678117 C215.295093,321.809383 207.988735,332.649012 200.282685,346.142593 C200.282685,346.142593 200.282685,346.142593 200.282685,346.142593 C197.292994,351.402531 194.247346,357.06216 191.233673,363.001574 C188.523765,368.365432 185.997716,373.601389 183.727469,378.597531 L183.727469,378.597531 C183.359753,379.396914 183.000031,380.196296 182.648302,380.995679 C181.768981,382.96216 180.934959,384.888673 180.146235,386.775216 C178.395586,390.924012 176.844784,394.864969 175.509815,398.526142 C174.710432,400.711121 173.990988,402.786852 173.351481,404.753333 C174.342716,404.91321 175.333951,405.073086 176.325185,405.208981 L177.572222,405.400833 L177.628179,405.464784 Z" id="Path" fill="#1BA538" opacity="0.75"></path>
            <path d="M162.056204,345.982716 C162.056204,346.782099 162.056204,347.517531 162.000247,348.284938 C161.696481,358.453086 161.032994,368.06966 160.113704,376.599074 C159.913858,378.493611 159.690031,380.332191 159.466204,382.106821 C158.705662,388.541372 157.544299,394.922189 155.988889,401.212068 C155.541235,401.108148 155.101574,400.996235 154.65392,400.876327 C153.350926,394.233457 152.423642,385.088519 151.983981,374.400772 C151.979792,374.350231 151.979792,374.29943 151.983981,374.248889 C151.656235,366.255062 151.608272,357.333951 151.888056,347.981173 C151.983981,344.783642 152.111883,341.586111 152.279753,338.532469 C153.326944,318.79571 155.709105,302.032654 158.610864,292.52 C161.208858,303.351636 162.615772,323.176327 162.056204,345.982716 Z" id="Path" fill="#1BA538" opacity="0.75"></path>
            <path d="M128.450154,330.914352 C124.277377,354.30429 118.625741,374.37679 113.693549,384.776759 C112.662346,373.329599 114.309074,352.537654 118.489846,329.139722 C122.670617,305.74179 128.314259,285.637315 133.246451,275.253333 C134.26966,286.716481 132.622932,307.508426 128.450154,330.914352 Z" id="Path" fill="#1BA538" opacity="0.75"></path>
            <path d="M83.8046296,313.471821 C87.0021605,321.28179 86.2027778,329.547407 82.4776543,335.342932 C75.7308642,333.832099 69.4157407,328.484228 66.2182099,320.674259 C63.020679,312.86429 63.8200617,304.590679 67.553179,298.795154 C74.2919753,300.297994 80.6070988,305.661852 83.8046296,313.471821 Z" id="Path" fill="#1BA538" opacity="0.8"></path>
            <path d="M100.751543,338.01287 C92.757716,344.367963 83.0132407,346.53429 75.275216,344.471883 C75.0354012,336.478056 79.3760494,327.516975 87.4178395,321.153889 C95.4596296,314.790802 105.17213,312.624475 112.910154,314.694877 C113.133981,322.704691 108.793333,331.649784 100.751543,338.01287 Z" id="Path" fill="#1BA538" opacity="0.8"></path>
            <path d="M183.783426,374.816451 C178.98713,380.540031 172.384228,383.553704 166.636667,383.281914 C165.397623,377.686235 167.268179,370.683642 172.104444,364.960062 C176.94071,359.236481 183.503642,356.214815 189.251204,356.494599 C190.482253,362.114259 188.611698,369.09287 183.783426,374.816451 Z" id="Path" fill="#1BA538" opacity="0.8"></path>
            <path d="M168.539198,358.612963 C171.209136,368.501327 169.298611,378.293765 164.246512,384.616883 C156.70034,381.699136 150.12142,374.224907 147.459475,364.304568 C144.797531,354.384228 146.660093,344.607778 151.75216,338.28466 C159.282346,341.242377 165.853272,348.740586 168.539198,358.612963 Z" id="Path" fill="#1BA538" opacity="0.8"></path>
            <path d="M137.403241,357.054167 C132.654907,362.649846 126.139938,365.599568 120.408364,365.263827 C119.113364,359.668148 120.895988,352.753488 125.652315,347.125833 C130.408642,341.498179 136.923611,338.572438 142.655185,338.916173 C143.942191,344.511852 142.159568,351.418519 137.403241,357.054167 Z" id="Path" fill="#1BA538" opacity="0.8"></path>
            <g id="Outer-Circle">
                <use fill="black" fill-opacity="1" filter="url(#filter-2)" xlink:href="#path-1"></use>
                <use fill="#F4F4F4" xlink:href="#path-1"></use>
            </g>
        </g>
    </g>
</svg>