<svg clip-rule="evenodd" fill-rule="evenodd" stroke-linejoin="round" stroke-miterlimit="1.41421" viewBox="0 0 905 836" xmlns="http://www.w3.org/2000/svg"><g opacity=".23"><g fill="#60d1e5"><path d="m668.591 502.836 86.89 34.413-27.348 64.017-59.542-42.416z" fill-opacity=".8"/><path d="m470.564 299.357 44.9-30.626 2.923 24.545-41.818 23.34z" fill-opacity=".298039"/><path d="m437.296 148.132-19.27-63.847 68.03 57.042z" fill-opacity=".298039"/><path d="m172.85 268.559 31.646 64.906 18.197-100.204z" fill-opacity=".8"/><path d="m37.464 800.45 100.36 19.846-50.183-57.639z" fill-opacity=".298039"/><path d="m355.385 697.923-39.218-21.769-55.754-96.17z"/><path d="m213.263 483.369-11.11-63.002-18.526 81.582z" fill-opacity=".298039"/><path d="m575.491 763.543 31.806-51.668-82.848-30.8z" fill-opacity=".8"/><path d="m765.584 256.316 66.857-120.599 35.525 42.943z" fill-opacity=".298039"/><path d="m928.018 597.719-29.742 80.484 39.852 16.173 28.851-74.959z" fill-opacity=".298039"/><path d="m607.297 307.749-59.947 131.24 4.927-115.102z" fill-opacity=".8"/><path d="m2.438 93.175 122.185-35.493 21.284 30.799-114.302 42.802-29.167-38.108z" fill-opacity=".8"/><path d="m210.435 56.795-12.664 70.288 78.657 22.822 16.316-30.16z" fill-opacity=".298039"/><path d="m769.626 345.969-105.076-73.691 60.603 118.826z" fill-opacity=".8"/><path d="m361.162 217.299-35.414-99.107 74.766-7.304z" fill-opacity=".8"/><path d="m789.832 761.77-17.872-76.261-49.484 61.734z" fill-opacity=".8"/><path d="m296.581 815.793-69.035 21.352 38.091-97.363z" fill-opacity=".8"/><path d="m501.548 587.965-27.411-53.206-40.619 26.265z" fill-opacity=".8"/><path d="m356.059 368.935-75.439-5.714 57.268-69.661z" fill-opacity=".8"/><path d="m948.897 480.654h-65.439l65.439-103.738 69.947 108.185" fill-opacity=".8"/><path d="m145.907 398.546-94.299 86.555 9.097-106.412z"/><path d="m572.785 585.305 3.528-83.356-35.698 28.472z" fill-opacity=".298039"/><path d="m393.778 756.449 26.043-129.467 13.024 129.467z" fill-opacity=".298039"/><path d="m232.123 697.036-22.09-118.825-65.473 58.895z" fill-opacity=".8"/><path d="m292.07 115.322c1.86 0 3.368 1.985 3.368 4.433 0 2.449-1.508 4.434-3.368 4.434s-3.368-1.985-3.368-4.434c0-2.448 1.508-4.433 3.368-4.433"/><path d="m326.422 115.322c1.86 0 3.368 1.985 3.368 4.433 0 2.45-1.508 4.434-3.368 4.434s-3.368-1.984-3.368-4.434c0-2.448 1.508-4.433 3.368-4.433"/></g><path d="m279.946 358.294c1.86 0 3.368 1.985 3.368 4.434s-1.508 4.434-3.368 4.434-3.368-1.985-3.368-4.434 1.508-4.434 3.368-4.434"/><path d="m279.946 358.294c1.86 0 3.368 1.985 3.368 4.434s-1.508 4.434-3.368 4.434-3.368-1.985-3.368-4.434 1.508-4.434 3.368-4.434" fill="#60d1e5"/><path d="m203.16 329.031c1.86 0 3.368 1.985 3.368 4.434s-1.508 4.433-3.368 4.433-3.368-1.984-3.368-4.433 1.508-4.434 3.368-4.434" fill="#60d1e5"/><path d="m223.367 233.261c1.86 0 3.368 1.985 3.368 4.434s-1.508 4.433-3.368 4.433-3.368-1.984-3.368-4.433 1.508-4.434 3.368-4.434"/><path d="m223.367 233.261c1.86 0 3.368 1.985 3.368 4.434s-1.508 4.433-3.368 4.433-3.368-1.984-3.368-4.433 1.508-4.434 3.368-4.434" fill="#60d1e5"/><path d="m362.04 572.003 33.085-37.017-66.683-38.357z" fill="#60d1e5" fill-opacity=".298039"/><path d="m337.872 289.127c1.86 0 3.368 1.985 3.368 4.433 0 2.45-1.508 4.434-3.368 4.434-1.859 0-3.367-1.984-3.367-4.434 0-2.448 1.508-4.433 3.367-4.433" fill="#60d1e5"/><path d="m141.866 391.991c2.976 0 5.388 3.176 5.388 7.094s-2.412 7.094-5.388 7.094-5.389-3.176-5.389-7.094 2.413-7.094 5.389-7.094"/><path d="m141.866 391.991c2.976 0 5.388 3.176 5.388 7.094s-2.412 7.094-5.388 7.094-5.389-3.176-5.389-7.094 2.413-7.094 5.389-7.094" fill="#60d1e5"/><path d="m138.161 814.089c2.79 0 5.052 2.977 5.052 6.65s-2.262 6.651-5.052 6.651-5.052-2.978-5.052-6.651 2.262-6.65 5.052-6.65" fill="#60d1e5"/><path d="m201.813 419.48c2.232 0 4.041 2.382 4.041 5.321 0 2.938-1.809 5.321-4.041 5.321s-4.042-2.383-4.042-5.321c0-2.939 1.81-5.321 4.042-5.321" fill="#60d1e5"/><path d="m212.927 478.007c1.673 0 3.031 1.786 3.031 3.989 0 2.205-1.358 3.991-3.031 3.991-1.674 0-3.031-1.786-3.031-3.991 0-2.203 1.357-3.989 3.031-3.989" fill="#60d1e5"/><path d="m400.177 109.114c1.674 0 3.031 1.786 3.031 3.991 0 2.203-1.357 3.99-3.031 3.99s-3.031-1.787-3.031-3.99c0-2.205 1.357-3.991 3.031-3.991" fill="#60d1e5"/><path d="m437.896 144.585c1.674 0 3.031 1.786 3.031 3.99s-1.357 3.991-3.031 3.991-3.031-1.787-3.031-3.991 1.357-3.99 3.031-3.99"/><path d="m437.896 144.585c1.674 0 3.031 1.786 3.031 3.99s-1.357 3.991-3.031 3.991-3.031-1.787-3.031-3.991 1.357-3.99 3.031-3.99" fill="#60d1e5"/><path d="m883.794 474.46c2.418 0 4.379 2.58 4.379 5.763 0 3.185-1.961 5.764-4.379 5.764s-4.378-2.579-4.378-5.764c0-3.183 1.96-5.763 4.378-5.763"/><path d="m883.794 474.46c2.418 0 4.379 2.58 4.379 5.763 0 3.185-1.961 5.764-4.379 5.764s-4.378-2.579-4.378-5.764c0-3.183 1.96-5.763 4.378-5.763" fill="#60d1e5"/><path d="m265.464 736.054c1.674 0 3.031 1.787 3.031 3.99 0 2.205-1.357 3.991-3.031 3.991-1.673 0-3.031-1.786-3.031-3.991 0-2.203 1.358-3.99 3.031-3.99" fill="#60d1e5"/><path d="m355.722 364.501c1.674 0 3.031 1.787 3.031 3.991s-1.357 3.99-3.031 3.99-3.031-1.786-3.031-3.99 1.357-3.991 3.031-3.991"/><path d="m355.722 364.501c1.674 0 3.031 1.787 3.031 3.991s-1.357 3.99-3.031 3.99-3.031-1.786-3.031-3.99 1.357-3.991 3.031-3.991" fill="#60d1e5"/><path d="m145.57 84.285c1.674 0 3.031 1.786 3.031 3.99s-1.357 3.991-3.031 3.991c-1.673 0-3.031-1.787-3.031-3.991s1.358-3.99 3.031-3.99"/><path d="m145.57 84.285c1.674 0 3.031 1.786 3.031 3.99s-1.357 3.991-3.031 3.991c-1.673 0-3.031-1.787-3.031-3.991s1.358-3.99 3.031-3.99" fill="#60d1e5"/><path d="m518.05 293.56c1.674 0 3.031 1.786 3.031 3.991 0 2.203-1.357 3.99-3.031 3.99-1.673 0-3.031-1.787-3.031-3.99 0-2.205 1.358-3.991 3.031-3.991" fill="#60d1e5"/><path d="m474.942 313.069c1.674 0 3.031 1.786 3.031 3.991 0 2.203-1.357 3.99-3.031 3.99-1.673 0-3.031-1.787-3.031-3.99 0-2.205 1.358-3.991 3.031-3.991" fill="#60d1e5"/><path d="m766.595 248.336c2.79 0 5.051 2.977 5.051 6.65 0 3.674-2.261 6.651-5.051 6.651s-5.052-2.977-5.052-6.651c0-3.673 2.262-6.65 5.052-6.65" fill="#60d1e5"/><path d="m541.962 216.915 80.154-31.539-30.868 52.319z" fill="#60d1e5" fill-opacity=".298039"/><path d="m622.116 180.055c2.232 0 4.041 2.382 4.041 5.321 0 2.938-1.809 5.32-4.041 5.32s-4.042-2.382-4.042-5.32c0-2.939 1.81-5.321 4.042-5.321" fill="#60d1e5"/><path d="m590.458 232.374c2.232 0 4.041 2.382 4.041 5.321 0 2.938-1.809 5.32-4.041 5.32s-4.041-2.382-4.041-5.32c0-2.939 1.809-5.321 4.041-5.321" fill="#60d1e5"/><path d="m898.613 674.867c1.302 0 2.357 1.39 2.357 3.104 0 1.715-1.055 3.104-2.357 3.104s-2.358-1.389-2.358-3.104c0-1.714 1.056-3.104 2.358-3.104" fill="#60d1e5"/><path d="m487.066 137.491c1.674 0 3.031 1.786 3.031 3.99s-1.357 3.99-3.031 3.99c-1.673 0-3.031-1.786-3.031-3.99s1.358-3.99 3.031-3.99" fill="#60d1e5"/><path d="m678.021 171.187-95.646-164.937 95.646 67.551z" fill="#60d1e5" fill-opacity=".8"/><path d="m582.375.043c2.605 0 4.715 2.779 4.715 6.207s-2.11 6.207-4.715 6.207c-2.604 0-4.715-2.779-4.715-6.207s2.111-6.207 4.715-6.207"/><path d="m582.375.043c2.605 0 4.715 2.779 4.715 6.207s-2.11 6.207-4.715 6.207c-2.604 0-4.715-2.779-4.715-6.207s2.111-6.207 4.715-6.207" fill="#60d1e5"/><path d="m678.021 164.98c2.605 0 4.715 2.779 4.715 6.207 0 3.429-2.11 6.208-4.715 6.208-2.604 0-4.715-2.779-4.715-6.208 0-3.428 2.111-6.207 4.715-6.207" fill="#60d1e5"/><path d="m678.021 70.097c2.605 0 4.715 2.779 4.715 6.207s-2.11 6.207-4.715 6.207c-2.604 0-4.715-2.779-4.715-6.207s2.111-6.207 4.715-6.207" fill="#60d1e5"/><path d="m260.749 577.324c1.674 0 3.032 1.786 3.032 3.99s-1.358 3.991-3.032 3.991-3.031-1.787-3.031-3.991 1.357-3.99 3.031-3.99" fill="#60d1e5"/><path d="m297.122 812.315c1.674 0 3.031 1.787 3.031 3.99 0 2.204-1.357 3.991-3.031 3.991s-3.031-1.787-3.031-3.991c0-2.203 1.357-3.99 3.031-3.99" fill="#60d1e5"/><path d="m353.027 694.376c1.674 0 3.032 1.786 3.032 3.991 0 2.203-1.358 3.99-3.032 3.99s-3.031-1.787-3.031-3.99c0-2.205 1.357-3.991 3.031-3.991"/><path d="m353.027 694.376c1.674 0 3.032 1.786 3.032 3.991 0 2.203-1.358 3.99-3.032 3.99s-3.031-1.787-3.031-3.99c0-2.205 1.357-3.991 3.031-3.991" fill="#60d1e5"/><path d="m524.113 677.528c1.673 0 3.03 1.786 3.03 3.989 0 2.205-1.357 3.992-3.03 3.992-1.674 0-3.032-1.787-3.032-3.992 0-2.203 1.358-3.989 3.032-3.989" fill="#60d1e5"/><path d="m474.269 530.325c2.045 0 3.704 2.184 3.704 4.878 0 2.693-1.659 4.877-3.704 4.877-2.047 0-3.705-2.184-3.705-4.877 0-2.694 1.658-4.878 3.705-4.878"/><path d="m474.269 530.325c2.045 0 3.704 2.184 3.704 4.878 0 2.693-1.659 4.877-3.704 4.877-2.047 0-3.705-2.184-3.705-4.877 0-2.694 1.658-4.878 3.705-4.878" fill="#60d1e5"/><path d="m607.97 708.564c1.488 0 2.695 1.589 2.695 3.548s-1.207 3.546-2.695 3.546c-1.487 0-2.694-1.587-2.694-3.546s1.207-3.548 2.694-3.548"/><path d="m607.97 708.564c1.488 0 2.695 1.589 2.695 3.548s-1.207 3.546-2.695 3.546c-1.487 0-2.694-1.587-2.694-3.546s1.207-3.548 2.694-3.548" fill="#60d1e5"/><path d="m668.592 500.176c2.232 0 4.041 2.382 4.041 5.32 0 2.939-1.809 5.321-4.041 5.321-2.233 0-4.042-2.382-4.042-5.321 0-2.938 1.809-5.32 4.042-5.32" fill="#60d1e5"/><path d="m751.44 534.759c2.232 0 4.041 2.382 4.041 5.32 0 2.939-1.809 5.321-4.041 5.321-2.233 0-4.042-2.382-4.042-5.321 0-2.938 1.809-5.32 4.042-5.32" fill="#60d1e5"/><path d="m727.864 591.512c2.233 0 4.042 2.383 4.042 5.32 0 2.939-1.809 5.321-4.042 5.321-2.232 0-4.041-2.382-4.041-5.321 0-2.937 1.809-5.32 4.041-5.32"/><path d="m727.864 591.512c2.233 0 4.042 2.383 4.042 5.32 0 2.939-1.809 5.321-4.042 5.321-2.232 0-4.041-2.382-4.041-5.321 0-2.937 1.809-5.32 4.041-5.32" fill="#60d1e5"/><path d="m668.592 553.381c2.232 0 4.041 2.382 4.041 5.321 0 2.938-1.809 5.32-4.041 5.32-2.233 0-4.042-2.382-4.042-5.32 0-2.939 1.809-5.321 4.042-5.321"/><path d="m668.592 553.381c2.232 0 4.041 2.382 4.041 5.321 0 2.938-1.809 5.32-4.041 5.32-2.233 0-4.042-2.382-4.042-5.32 0-2.939 1.809-5.321 4.042-5.321" fill="#60d1e5"/><path d="m361.447 568.456c1.86 0 3.368 1.986 3.368 4.434 0 2.449-1.508 4.434-3.368 4.434s-3.368-1.985-3.368-4.434c0-2.448 1.508-4.434 3.368-4.434" fill="#60d1e5"/><path d="m395.125 531.212c1.86 0 3.368 1.985 3.368 4.434s-1.508 4.434-3.368 4.434-3.368-1.985-3.368-4.434 1.508-4.434 3.368-4.434" fill="#60d1e5"/><path d="m232.46 690.829c3.162 0 5.725 3.374 5.725 7.537 0 4.162-2.563 7.538-5.725 7.538s-5.725-3.376-5.725-7.538c0-4.163 2.563-7.537 5.725-7.537" fill="#60d1e5"/><path d="m208.212 571.116c3.162 0 5.725 3.375 5.725 7.538 0 4.162-2.563 7.537-5.725 7.537-3.163 0-5.726-3.375-5.726-7.537 0-4.163 2.563-7.538 5.726-7.538" fill="#60d1e5"/><path d="m144.897 629.643c3.162 0 5.725 3.375 5.725 7.537 0 4.163-2.563 7.538-5.725 7.538s-5.725-3.375-5.725-7.538c0-4.162 2.563-7.537 5.725-7.537"/><path d="m144.897 629.643c3.162 0 5.725 3.375 5.725 7.537 0 4.163-2.563 7.538-5.725 7.538s-5.725-3.375-5.725-7.538c0-4.162 2.563-7.537 5.725-7.537" fill="#60d1e5"/><path d="m419.71 626.096c1.674 0 3.031 1.786 3.031 3.99s-1.357 3.99-3.031 3.99-3.031-1.786-3.031-3.99 1.357-3.99 3.031-3.99" fill="#60d1e5"/><path d="m553.412 316.616c3.348 0 6.062 3.573 6.062 7.981s-2.714 7.981-6.062 7.981-6.062-3.573-6.062-7.981 2.714-7.981 6.062-7.981"/><path d="m553.412 316.616c3.348 0 6.062 3.573 6.062 7.981s-2.714 7.981-6.062 7.981-6.062-3.573-6.062-7.981 2.714-7.981 6.062-7.981" fill="#60d1e5"/><path d="m546.677 430.122c3.347 0 6.062 3.573 6.062 7.98 0 4.408-2.715 7.981-6.062 7.981-3.348 0-6.062-3.573-6.062-7.981 0-4.407 2.714-7.98 6.062-7.98"/><path d="m546.677 430.122c3.347 0 6.062 3.573 6.062 7.98 0 4.408-2.715 7.981-6.062 7.981-3.348 0-6.062-3.573-6.062-7.981 0-4.407 2.714-7.98 6.062-7.98" fill="#60d1e5"/><path d="m571.935 581.758c1.674 0 3.031 1.786 3.031 3.989 0 2.205-1.357 3.991-3.031 3.991s-3.031-1.786-3.031-3.991c0-2.203 1.357-3.989 3.031-3.989"/><path d="m571.935 581.758c1.674 0 3.031 1.786 3.031 3.989 0 2.205-1.357 3.991-3.031 3.991s-3.031-1.786-3.031-3.991c0-2.203 1.357-3.989 3.031-3.989" fill="#60d1e5"/><path d="m724.16 386.67c1.674 0 3.031 1.787 3.031 3.991 0 2.203-1.357 3.99-3.031 3.99s-3.031-1.787-3.031-3.99c0-2.204 1.357-3.991 3.031-3.991"/><path d="m724.16 386.67c1.674 0 3.031 1.787 3.031 3.991 0 2.203-1.357 3.99-3.031 3.99s-3.031-1.787-3.031-3.99c0-2.204 1.357-3.991 3.031-3.991" fill="#60d1e5"/><path d="m772.32 682.848c2.232 0 4.041 2.382 4.041 5.321s-1.809 5.32-4.041 5.32-4.041-2.381-4.041-5.32 1.809-5.321 4.041-5.321"/><path d="m772.32 682.848c2.232 0 4.041 2.382 4.041 5.321s-1.809 5.32-4.041 5.32-4.041-2.381-4.041-5.32 1.809-5.321 4.041-5.321" fill="#60d1e5"/><path d="m721.803 742.261c2.232 0 4.041 2.382 4.041 5.321s-1.809 5.32-4.041 5.32-4.042-2.381-4.042-5.32 1.81-5.321 4.042-5.321"/><path d="m721.803 742.261c2.232 0 4.041 2.382 4.041 5.321s-1.809 5.32-4.041 5.32-4.042-2.381-4.042-5.32 1.81-5.321 4.042-5.321" fill="#60d1e5"/><path d="m540.951 526.778c1.674 0 3.031 1.787 3.031 3.99 0 2.205-1.357 3.991-3.031 3.991s-3.031-1.786-3.031-3.991c0-2.203 1.357-3.99 3.031-3.99" fill="#60d1e5"/><path d="m197.771 125.076c1.86 0 3.368 1.985 3.368 4.434 0 2.448-1.508 4.434-3.368 4.434-1.859 0-3.367-1.986-3.367-4.434 0-2.449 1.508-4.434 3.367-4.434" fill="#60d1e5"/><path d="m361.447 212.865c1.86 0 3.368 1.986 3.368 4.434 0 2.449-1.508 4.434-3.368 4.434s-3.368-1.985-3.368-4.434c0-2.448 1.508-4.434 3.368-4.434"/><path d="m361.447 212.865c1.86 0 3.368 1.986 3.368 4.434 0 2.449-1.508 4.434-3.368 4.434s-3.368-1.985-3.368-4.434c0-2.448 1.508-4.434 3.368-4.434" fill="#60d1e5"/><path d="m766.931 255.56-14.818 283.929z" fill="#fff"/><path d="m768.44 255.638-14.818 283.93-3.018-.158 14.819-283.929z" fill="#29abe2" fill-opacity=".3"/><path d="m727.59 601.756-120.692 110.125z" fill="#fff"/><path d="m727.59 601.756-120.692 110.125z"/><path d="m728.609 602.872-120.693 110.125-2.036-2.232 120.692-110.125z" fill="#29abe2"/><path d="m524.176 679.959-162.456-107.469z" fill="#fff"/><path d="m525.009 678.699-1.667 2.52-162.455-107.469 1.667-2.519z" fill="#29abe2" fill-opacity=".3"/><path d="m394.726 535.416 124.06-241.366z" fill="#fff"/><g opacity=".3"><path d="m394.726 535.416 124.06-241.366z"/><path d="m520.13 294.741-124.06 241.365-2.687-1.381 124.06-241.365z" fill="#29abe2"/></g><path d="m476.352 317.105-263.488 165.992z" fill="#fff"/><path d="m477.157 318.383-263.488 165.992-1.61-2.556 263.488-165.992z" fill="#29abe2" fill-opacity=".3"/><path d="m201.42 421.91 2.806-88.841z" fill="#fff"/><path d="m205.736 333.117-2.806 88.84-3.02-.095 2.807-88.841z" fill="#29abe2" fill-opacity=".304548"/><path d="m222.294 237.463 214.991-89.726z" fill="#fff"/><path d="m222.294 237.463 214.991-89.726z"/><path d="m437.867 149.131-214.991 89.726-1.164-2.788 214.991-89.726z" fill="#29abe2"/><path d="m487.031 142.941 182.66 360.19z" fill="#fff"/><path d="m671.039 502.448-2.695 1.366-182.66-360.19 2.694-1.366z" fill="#29abe2" fill-opacity=".3"/><path d="m352.417 693.98-214.319 126.972z" fill="#fff"/><path d="m353.187 695.28-214.319 126.972-1.54-2.6 214.319-126.972z" fill="#29abe2" fill-opacity=".3"/><path d="m261.332 580.601-2.387 1.852-351.051-452.413 2.387-1.852z" fill="#29abe2" fill-opacity=".3"/><path d="m-90.912 129.114 351.05 452.413z" fill="#fff"/><path d="m356.332 697.692 312.659-139.386z" fill="#fff"/><path d="m356.332 697.692 312.659-139.386z"/><path d="m669.606 559.686-312.659 139.386-1.23-2.76 312.659-139.385z" fill="#29abe2"/><path d="m361.447 217.596-215.54-128.748z" fill="#29abe2"/><path d="m361.447 217.596-215.54-128.748z"/><path d="m362.222 216.299-1.55 2.594-215.54-128.748 1.55-2.594z" fill="#29abe2"/><path d="m590.857 237.465-190.742-124.315z" fill="#29abe2"/><path d="m591.682 236.199-1.65 2.531-190.742-124.314 1.65-2.532z" fill="#29abe2" fill-opacity=".3"/><path d="m622.39 186.03 56.03-15.236z" fill="#29abe2"/><path d="m678.816 172.252-56.029 15.236-.793-2.915 56.03-15.237z" fill="#29abe2" fill-opacity=".3"/><path d="m291.673 120.246 45.923 173.084z" fill="#29abe2"/><path d="m339.056 292.942-2.92.775-45.923-173.084 2.92-.775z" fill="#29abe2" fill-opacity=".3"/><path d="m678.295 75.96 290.431 7.183z" fill="#29abe2"/><path d="m968.763 81.633-.074 3.02-290.431-7.183.075-3.02z" fill="#29abe2" fill-opacity=".3"/><path d="m883.857 479.549-527.524-111.896z" fill="#29abe2"/><path d="m883.857 479.549-527.524-111.896z"/><path d="m884.17 478.071-.626 2.956-527.525-111.897.627-2.955z" fill="#29abe2"/><path d="m1018.57 484.704-247.322 203.234z" fill="#29abe2"/><path d="m1018.57 484.704-247.322 203.234z"/><path d="m1019.53 485.871-247.322 203.234-1.918-2.334 247.322-203.234z" fill="#29abe2"/><path d="m722.202 747.326-455.612-7.182z" fill="#29abe2"/><path d="m722.202 747.326-455.612-7.182z"/><path d="m722.226 745.816-.048 3.021-455.612-7.183.048-3.021z" fill="#29abe2"/><path d="m296.513 812.085-16.295-447.98z" fill="#60d1e5"/><path d="m296.513 812.085-16.295-447.98z"/><path d="m298.023 812.03-3.019.109-16.296-447.979 3.019-.11z" fill="#29abe2"/><path d="m142.539 399.972 410.2-76.262"/><path d="m553.015 325.195-410.2 76.262-.552-2.97 410.2-76.262z" fill="#29abe2"/><path d="m26.288 656.899 118.671-19.667z" fill="#29abe2"/><path d="m26.288 656.899 118.671-19.667z"/><path d="m145.206 638.722-118.671 19.667-.494-2.98 118.671-19.667z" fill="#29abe2"/><path d="m232.397 697.693 308.617-166.878z" fill="#60d1e5"/><path d="m541.733 532.143-308.617 166.879-1.437-2.658 308.616-166.878z" fill="#29abe2" fill-opacity=".3"/><path d="m571.872 585.074 152.351-194.367z" fill="#29abe2"/><path d="m571.872 585.074 152.351-194.367z"/><path d="m725.412 391.639-152.351 194.367-2.378-1.864 152.351-194.367z" fill="#29abe2"/><path d="m546.403 438.594-72.198 96.821z" fill="#29abe2"/><path d="m546.403 438.594-72.198 96.821z"/><path d="m547.614 439.497-72.198 96.821-2.422-1.806 72.198-96.821z" fill="#29abe2"/><path d="m208.149 578.866 373.279-572.125z" fill="#29abe2"/><path d="m208.149 578.866 373.279-572.125z"/><path d="m582.693 7.566-373.279 572.126-2.53-1.651 373.279-572.126 2.53 1.651z" fill="#29abe2"/><path d="m899.349 679.07-537.628-461.28z" fill="#29abe2"/><path d="m900.333 677.924-1.968 2.293-537.628-461.281 1.968-2.292z" fill="#29abe2" fill-opacity=".3"/><path d="m420.047 629.938-222.276-500.298z" fill="#fff"/><path d="m421.427 629.325-2.761 1.227-222.275-500.299 2.761-1.227z" fill="#29abe2" fill-opacity=".304781"/></g></svg>