<svg xmlns="http://www.w3.org/2000/svg" viewBox="0 0 228.78 232.19"><defs><style>.cls-1{fill:#0f6321;}.cls-2,.cls-3{fill:#158130;}.cls-2{opacity:0.8;}.cls-3{opacity:0.9;}.cls-4{fill:#1ba538;opacity:0.75;}</style></defs><title>Grass blades</title><g id="Layer_2" data-name="Layer 2"><g id="Layer_2-2" data-name="Layer 2"><path class="cls-1" d="M72.58,85.4c-4,36.1-10.68,67.3-17.16,83.65-2.71-17.36-2.27-49.25,1.78-85.37S67.88,16.33,74.37,0C77.07,17.39,76.63,49.27,72.58,85.4Z"/><path class="cls-1" d="M91.53,95.43c-10,34.94-21.67,64.6-30.78,79.66.21-17.57,5.92-48.94,15.9-83.9s21.68-64.65,30.78-79.68C107.22,29.1,101.51,60.48,91.53,95.43Z"/><path class="cls-1" d="M62.31,87.7c5.56,35.9,7.34,67.74,5.37,85.23C60.51,156.88,52.58,126,47,90.07S39.68,22.28,41.66,4.82C48.82,20.89,56.75,51.77,62.31,87.7Z"/><path class="cls-2" d="M109.14,118.52c-4.5,36.06-11.52,67.16-18.21,83.44-2.49-17.4-1.65-49.28,2.85-85.35S105.3,49.41,112,33.15C114.48,50.57,113.64,82.45,109.14,118.52Z"/><path class="cls-1" d="M32,84.62c10.51,34.78,16.71,66.06,17.2,83.65-9.33-14.9-21.49-44.38-32-79.17S.48,23,0,5.43C9.34,20.34,21.5,49.82,32,84.62Z"/><path class="cls-2" d="M90.48,99.07q-.6,6.84-1.4,13.93c-.06.54-.12,1.08-.19,1.61-.11,1-.23,2-.35,3-1,8.11-2.06,15.94-3.26,23.37-.94,5.89-1.94,11.53-3,16.87q-.51,2.59-1,5.09a231.65,231.65,0,0,1-8.55,31.63l-1.19-.75c-1.2-9.51-1.59-22.6-1.12-37.94,0,0,0,0,0,0q0-.45,0-.9c0-.76.06-1.52.08-2.29.39-10.05,1.13-21,2.25-32.47q.43-4.43.94-8.94c.63-5.66,1.33-11.2,2.09-16.58,0-.3.07-.59.12-.88,1.07-7.6,2.25-14.88,3.5-21.72,3.45-18.89,7.48-34.49,11.45-44.5A149.86,149.86,0,0,1,92.33,44h0C93,58.74,92.38,77.87,90.48,99.07Z"/><path class="cls-3" d="M59.72,185.81q-4.34-3.1-8.53-6.39c-1.26-4.36-2.51-9.06-3.73-14-2.9-11.83-5.66-25.28-8.05-39.68-.38-2.3-.76-4.62-1.12-7-1.25-8.09-2.31-16-3.18-23.52-3-26-3.72-48.19-2.19-61.73C36.57,41.65,40.41,53.66,44,68.21c3.52,14.06,6.82,30.49,9.55,48.15.22,1.4.43,2.8.63,4.19q.88,6,1.63,11.71c.25,2,.5,4,.73,6s.43,3.74.63,5.57c.46,4.32.87,8.53,1.2,12.59.09,1.11.18,2.2.26,3.29C59.39,169.35,59.75,178.17,59.72,185.81Z"/><path class="cls-1" d="M134.55,111.7c3.11,36.19,2.71,68.08-.44,85.39-6.06-16.5-11.87-47.85-15-84.07s-2.72-68.13.44-85.42C125.64,44.12,131.45,75.48,134.55,111.7Z"/><path class="cls-1" d="M174.67,232l.4.06.76.1c.08-.48.15-1,.22-1.48a0,0,0,0,0,0,0c.1-.69.19-1.4.28-2.13h0v0c.42-3.28.76-6.92,1-10.87v-.06h0c.19-2.81.33-5.77.44-8.88.09-2.46.14-5,.18-7.64,0-1,0-2.05,0-3.09h0q0-5.89-.11-12.26v-.05c-.08-3.93-.22-8-.4-12.15-.33-7.23-.81-14.77-1.45-22.52h0v0c-.05-.63-.11-1.26-.16-1.89-3.1-36.22-8.91-67.58-15-84.1-3.16,17.29-3.55,49.2-.45,85.42.61,7.14,1.33,14.09,2.14,20.77,0,0,0,0,0,0,.6,5.05,1.26,10,2,14.67.05.36.11.71.16,1.06h0c.64,4.24,1.3,8.33,2,12.23.27,1.49.53,2.94.8,4.36.08.44.17.87.25,1.29h0c.71,3.64,1.44,7.1,2.18,10.35h0c.67,2.92,1.36,5.68,2,8.26q.87,3.24,1.76,6.09c.28.86.55,1.7.82,2.51Z"/><path class="cls-1" d="M192.64,142.56c-1.06,7.72-2.33,15.78-3.8,24.06l-.75,4.13c-1.35,7.3-2.78,14.36-4.28,21.1-.5,2.24-1,4.45-1.52,6.61h0c-.24,1-.49,2.08-.74,3.1-1.36,5.64-2.76,11-4.18,16h0v0c-1.19,4.21-2.39,8.18-3.6,11.88-.24.77-.49,1.52-.74,2.27-1.24-.17-2.48-.37-3.72-.57l-2.67-.45c-.23,0-.45-.07-.68-.12.23-7.64.84-16.35,1.82-25.84h0l.15-1.4c.13-1.29.28-2.61.44-3.93.78-6.91,1.76-14.19,2.93-21.71h0q1-6.8,2.3-13.83,1.17-6.58,2.45-12.92h0v0c6-30.17,13.47-55.51,20.07-69.44C197.33,95,196.14,116.89,192.64,142.56Z"/><path class="cls-2" d="M122.76,219.11a271.87,271.87,0,0,0,8-30.19c.09-.44.19-.89.28-1.34,2-9.59,3.92-20.19,5.59-31.46q1-6.92,1.93-14.14c4.5-36.08,5.34-67.95,2.85-85.37-3.14,7.63-6.36,18.55-9.35,31.72-3.38,14.87-6.47,32.61-8.86,51.73-.19,1.54-.38,3.08-.56,4.6-.22,1.85-.42,3.69-.62,5.52-1,8.94-1.71,17.56-2.21,25.67q-.27,4.31-.45,8.42a285.46,285.46,0,0,0,.2,33.67Z"/><path class="cls-4" d="M91.52,133.3c3.58,29.51,4.18,55.59,2.1,69.83C88.19,189.82,82.53,164.35,79,134.82S74.76,79.2,76.84,65C82.27,78.3,87.93,103.77,91.52,133.3Z"/><path class="cls-2" d="M192.64,142.56c-3.12,8.11-6.22,16.75-9.22,25.75-.37,1.11-.73,2.21-1.09,3.31-1.57,4.78-3,9.44-4.43,14v.05c-1.51,5-2.91,9.94-4.2,14.69-.06.21-.11.42-.17.62h0q-2,7.34-3.57,14.11h0c-1.31,5.53-2.42,10.75-3.32,15.6l2.67.45c1.24.2,2.48.4,3.72.57l1.56.24h.08c.55-1.13,1.11-2.27,1.67-3.46h0v0c3.65-7.75,7.44-16.6,11.23-26.26h0c3.55-9.06,7.1-18.84,10.51-29.08,1.74-5.21,3.37-10.35,4.89-15.37,0,0,0,0,0,0,8.59-28.2,13.82-52.85,14.65-67.76C210.45,100.86,201.47,119.59,192.64,142.56Z"/><path class="cls-4" d="M174.67,232l.4.06c.33-.46.66-.91,1-1.38a0,0,0,0,0,0,0c5.33-7.66,11.22-17.17,17.23-27.91,3.21-5.73,6.46-11.81,9.67-18.15,13.45-26.53,22.92-50.84,25.82-64.94-6.95,7.67-16.14,21.23-25.78,38.11,0,0,0,0,0,0-3.74,6.58-7.55,13.66-11.32,21.09-3.39,6.7-6.53,13.25-9.38,19.54h0c-.46,1-.91,2-1.35,3q-1.65,3.69-3.13,7.23c-2.19,5.19-4.13,10.12-5.8,14.7q-1.5,4.1-2.7,7.79c1.24.2,2.48.4,3.72.57l1.56.24Z"/><path class="cls-4" d="M155.19,157.62c0,1,0,1.92-.07,2.88-.38,12.72-1.21,24.75-2.36,35.42-.25,2.37-.53,4.67-.81,6.89a194.82,194.82,0,0,1-4.35,23.9c-.56-.13-1.11-.27-1.67-.42-1.63-8.31-2.79-19.75-3.34-33.12a1.15,1.15,0,0,1,0-.19c-.41-10-.47-21.16-.12-32.86.12-4,.28-8,.49-11.82,1.31-24.69,4.29-45.66,7.92-57.56C154.13,104.29,155.89,129.09,155.19,157.62Z"/><path class="cls-4" d="M113.15,138.77c-5.23,29.26-12.3,54.37-18.46,67.38-1.29-14.32.77-40.33,6-69.61s12.3-54.41,18.47-67.4C120.43,83.48,118.37,109.49,113.15,138.77Z"/></g></g></svg>