<svg xmlns="http://www.w3.org/2000/svg" viewBox="0 0 374.42 375.11"><defs><style>.cls-1,.cls-3{fill:none;stroke-miterlimit:10;stroke-width:2px;}.cls-1{stroke:#fefff3;opacity:0.05;}.cls-2{fill:#fefff3;opacity:0.15;}.cls-3{stroke:#fff;opacity:0.4;}</style></defs><title>Illustration rings</title><g id="Layer_2" data-name="Layer 2"><g id="Rings"><circle class="cls-1" cx="186.79" cy="187.79" r="96.91"/><ellipse class="cls-1" cx="186.79" cy="187.79" rx="113.95" ry="114.36"/><circle class="cls-1" cx="186.79" cy="187.79" r="131.51"/><circle class="cls-2" cx="186.79" cy="187.79" r="186.79"/><g id="Rings-2" data-name="Rings"><path class="cls-3" d="M32.31,156a157.3,157.3,0,0,1,43-79.72"/><path class="cls-3" d="M62.39,284.7A157,157,0,0,1,29.1,187.79a158.87,158.87,0,0,1,.95-17.41"/><path class="cls-3" d="M236.7,337.41a158.73,158.73,0,0,1-93.13,2.07"/><path class="cls-3" d="M323.17,267a158.36,158.36,0,0,1-32.69,39.6"/><path class="cls-3" d="M338.6,145a158.56,158.56,0,0,1-3.76,97.16"/><path class="cls-3" d="M128.94,41.06a157.94,157.94,0,0,1,152,20.23"/></g><g id="Rings-3" data-name="Rings"><path class="cls-3" d="M145.84,5.52a186,186,0,0,1,106.9,7.65"/><path class="cls-3" d="M21.69,100.59A185.66,185.66,0,0,1,110,17.52a189,189,0,0,1,19.25-7.45"/><path class="cls-3" d="M49.73,314.46A188,188,0,0,1,2.15,214.9"/><path class="cls-3" d="M167.79,373.58a187.47,187.47,0,0,1-58.63-16"/><path class="cls-3" d="M306.84,330.92a187.26,187.26,0,0,1-106.61,43.2"/><path class="cls-3" d="M316.87,54a187.28,187.28,0,0,1,52.19,174"/></g></g></g></svg>