<svg xmlns="http://www.w3.org/2000/svg" viewBox="0 0 520.18 520.18"><defs><style>.cls-1{fill:#f4f4f4;}</style></defs><title>Outer Ring</title><g id="Layer_2" data-name="Layer 2"><g id="Layer_2-2" data-name="Layer 2"><path class="cls-1" d="M260.09,0C116.45,0,0,116.45,0,260.09A259.65,259.65,0,0,0,99.89,465q4.19,3.28,8.53,6.39,5.77,4.17,11.8,8l1.19.75a258.4,258.4,0,0,0,46.9,23.36c1,.4,2.1.79,3.15,1.17q11.35,4.11,23.17,7.18c.56.15,1.11.29,1.67.42q9.06,2.3,18.36,3.93c.23,0,.45.09.68.12l2.67.45c1.24.2,2.48.4,3.72.57l1.56.24h.08l.4.06.76.1a262.3,262.3,0,0,0,35.56,2.41c143.64,0,260.09-116.45,260.09-260.09S403.73,0,260.09,0Zm0,489.08-3,0-2.35,0-1.35,0c-.92,0-1.83-.05-2.75-.09l-1.69-.08c-.84,0-1.67-.08-2.51-.13l-1.65-.1h-.3l-2.54-.19c-1.91-.14-3.81-.32-5.7-.51h0l-.42-.05-1.3-.14-1.3-.15c-.5,0-1-.11-1.48-.18l-1.49-.19h0l-.61-.08-.23,0-2.32-.32-.4-.06c-1.2-.17-2.39-.36-3.58-.55l-.71-.12q-2.67-.44-5.33-.95l-.36-.07-.21,0-.7-.13-.12,0-.25,0-2.14-.43c-.76-.15-1.51-.32-2.26-.48l-1.77-.39-.32-.08L207.3,483l-2-.47-2.47-.62-1.41-.37-.09,0-1.89-.51-2.07-.58c-.66-.18-1.33-.37-2-.57l-1.67-.5-2.39-.73-.08,0-.15-.05c-2.46-.77-4.91-1.59-7.33-2.45l-.17-.06-.22-.08h0l-1.57-.56-1.57-.58h0l-.73-.27-2.88-1.11c-.95-.37-1.91-.75-2.86-1.14l-.23-.09-2.61-1.09-2.82-1.22c-1.16-.5-2.32-1-3.47-1.56l-1.59-.73-2.21-1.05-.79-.38q-3.37-1.65-6.69-3.39c-.6-.32-1.19-.63-1.78-1l-.27-.15c-1.1-.58-2.19-1.19-3.27-1.79l-1.92-1.1-1.73-1-1.08-.63-.29-.18-2.19-1.32q-1.25-.75-2.46-1.53c-.71-.44-1.41-.89-2.11-1.34-.54-.34-1.07-.69-1.6-1-.84-.54-1.67-1.1-2.5-1.66s-1.47-1-2.2-1.5l-1.32-.92-.64-.45-.46-.33c-.75-.53-1.49-1.06-2.23-1.61-.51-.37-1-.74-1.52-1.12-.75-.55-1.49-1.11-2.23-1.67s-1.44-1.1-2.15-1.66l-.28-.21-1.81-1.43-.18-.14c-1.71-1.37-3.4-2.77-5.07-4.18l-1.48-1.27q-1.83-1.57-3.63-3.21c-.36-.31-.71-.63-1.06-1-1.17-1.06-2.34-2.14-3.49-3.24L100.14,424h0c-.66-.64-1.31-1.28-1.95-1.93l-1.35-1.37c-.45-.45-.89-.91-1.34-1.37-.08-.08-.17-.16-.25-.25-.87-.9-1.73-1.81-2.59-2.73l0-.05c-.77-.81-1.52-1.64-2.27-2.47s-1.5-1.66-2.23-2.5-1.57-1.8-2.34-2.7l-.12-.14-2.25-2.68-.1-.13-1.16-1.42c-.39-.47-.77-.95-1.15-1.43-.73-.91-1.45-1.83-2.16-2.75-.07-.09-.14-.17-.2-.26-.63-.81-1.24-1.61-1.85-2.43s-1.22-1.62-1.81-2.45c-.33-.45-.66-.9-1-1.36-.46-.63-.91-1.27-1.36-1.91-.88-1.24-1.74-2.5-2.59-3.76h0v0h0l-.54-.8-.54-.8-1.08-1.65q-1.17-1.8-2.31-3.63c-.65-1-1.3-2.1-1.93-3.16l0-.08c-.1-.17-.2-.34-.31-.51-.61-1-1.21-2.06-1.81-3.1l-.34-.59c-.54-.94-1.06-1.88-1.59-2.83q-1.14-2.07-2.23-4.14c-.49-.93-1-1.87-1.45-2.81-.08-.15-.16-.29-.23-.44l-.34-.69q-.85-1.71-1.68-3.42-.44-.88-.84-1.77c-.23-.5-.47-1-.69-1.49-.05-.1-.1-.19-.14-.29l0-.09-.12-.26-.08-.17c-.49-1.09-1-2.19-1.47-3.29l-.09-.21q-1.66-3.82-3.2-7.71c-.25-.64-.5-1.27-.74-1.91l-.72-1.91c-.24-.64-.48-1.28-.71-1.93l-.69-1.93L44,336c-.2-.58-.41-1.17-.61-1.76s-.41-1.18-.6-1.78-.36-1.07-.53-1.6c-.26-.8-.52-1.61-.77-2.42-.13-.4-.25-.81-.38-1.22s-.25-.81-.37-1.22c-.2-.67-.4-1.35-.59-2s-.43-1.48-.63-2.21a.24.24,0,0,1,0-.08c-.28-1-.56-2-.82-3s-.57-2.17-.83-3.26c-.14-.56-.28-1.12-.41-1.68q-.51-2.06-1-4.14c-.16-.74-.32-1.47-.47-2.21s-.25-1.21-.38-1.83c0,0,0,0,0,0-.15-.73-.29-1.46-.43-2.19-.17-.9-.34-1.8-.5-2.7-.1-.56-.2-1.13-.29-1.69s-.23-1.36-.34-2c0-.14-.05-.28-.07-.42L33.75,295c-.1-.63-.19-1.27-.28-1.9,0-.26-.08-.51-.11-.77l-.3-2.23c-.1-.75-.19-1.49-.28-2.24-.14-1.07-.26-2.15-.37-3.23-.07-.6-.13-1.21-.19-1.81L32,280.51c-.06-.7-.12-1.39-.17-2.09-.08-1-.16-1.95-.22-2.93-.05-.73-.09-1.46-.13-2.18,0-.52-.06-1-.08-1.55q-.07-1.29-.12-2.58c0-.78-.06-1.56-.08-2.35s0-1.46-.05-2.19,0-1.18,0-1.77c0-.93,0-1.85,0-2.78,0-126.46,102.52-229,229-229s229,102.53,229,229S386.56,489.08,260.09,489.08Z"/></g></g></svg>