<?xml version="1.0" encoding="UTF-8"?>
<svg width="658px" height="658px" viewBox="0 0 658 658" version="1.1" xmlns="http://www.w3.org/2000/svg" xmlns:xlink="http://www.w3.org/1999/xlink">
    <!-- Generator: Sketch 54.1 (76490) - https://sketchapp.com -->
    <title>Group 8</title>
    <desc>Created with Sketch.</desc>
    <defs>
        <path d="M260.0901,-3.41060513e-13 C116.4501,-3.41060513e-13 9.99836872e-05,116.45 9.99836872e-05,260.09 C-0.0700596258,340.13948 36.7869677,415.746382 99.8901,465 C102.683433,467.186667 105.526767,469.316667 108.4201,471.39 C112.266767,474.17 116.2001,476.836667 120.2201,479.39 L121.4101,480.14 C136.211564,489.495628 151.92566,497.322521 168.3101,503.5 C169.3101,503.9 170.4101,504.29 171.4601,504.67 C179.026767,507.41 186.7501,509.803333 194.6301,511.85 C195.1901,512 195.7401,512.14 196.3001,512.27 C202.3401,513.803333 208.4601,515.113333 214.6601,516.2 C214.8901,516.2 215.1101,516.29 215.3401,516.32 L218.0101,516.77 C219.2501,516.97 220.4901,517.17 221.7301,517.34 L223.2901,517.58 L223.3701,517.58 L223.7701,517.64 L224.5301,517.74 C236.315081,519.348657 248.195835,520.153848 260.0901,520.15 C403.7301,520.15 520.1801,403.7 520.1801,260.06 C520.1801,116.42 403.7301,-3.41060513e-13 260.0901,-3.41060513e-13 Z M260.0901,489.08 L257.0901,489.08 L254.7401,489.08 L253.3901,489.08 C252.4701,489.08 251.5601,489.03 250.6401,488.99 L248.9501,488.91 C248.1101,488.91 247.2801,488.83 246.4401,488.78 L244.7901,488.68 L244.4901,488.68 L241.9501,488.49 C240.0401,488.35 238.1401,488.17 236.2501,487.98 L236.2501,487.98 L235.8301,487.93 L234.5301,487.79 L233.2301,487.64 C232.7301,487.64 232.2301,487.53 231.7501,487.46 L230.2601,487.27 L230.2601,487.27 L229.6501,487.19 L229.4201,487.19 L227.1001,486.87 L226.7001,486.81 C225.5001,486.64 224.3101,486.45 223.1201,486.26 L222.4101,486.14 C220.6301,485.846667 218.853433,485.53 217.0801,485.19 L216.7201,485.12 L216.5101,485.12 L215.8101,484.99 L215.6901,484.99 L215.4401,484.99 L213.3001,484.56 C212.5401,484.41 211.7901,484.24 211.0401,484.08 L209.2701,483.69 L208.9501,483.61 L207.3001,483 L205.3001,482.53 L202.8301,481.91 L201.4201,481.54 L201.3301,481.54 L199.4401,481.03 L197.3701,480.45 C196.7101,480.27 196.0401,480.08 195.3701,479.88 L193.7001,479.38 L191.3101,478.65 L191.2301,478.65 L191.0801,478.6 C188.6201,477.83 186.1701,477.01 183.7501,476.15 L183.5801,476.09 L183.3601,476.01 L183.3601,476.01 L181.7901,475.45 L180.2201,474.87 L180.2201,474.87 L179.4901,474.6 L176.6101,473.49 C175.6601,473.12 174.7001,472.74 173.7501,472.35 L173.5201,472.26 L170.9101,471.17 L168.0901,469.95 C166.9301,469.45 165.7701,468.95 164.6201,468.39 L163.0301,467.66 L160.8201,466.61 L160.0301,466.23 C157.783433,465.13 155.553433,464 153.3401,462.84 C152.7401,462.52 152.1501,462.21 151.5601,461.84 L151.2901,461.69 C150.1901,461.11 149.1001,460.5 148.0201,459.9 L146.1001,458.8 L144.3701,457.8 L143.2901,457.17 L143.0001,456.99 L140.8101,455.67 C139.976767,455.17 139.156767,454.66 138.3501,454.14 C137.6401,453.7 136.9401,453.25 136.2401,452.8 C135.7001,452.46 135.1701,452.11 134.6401,451.8 C133.8001,451.26 132.9701,450.7 132.1401,450.14 C131.3101,449.58 130.6701,449.14 129.9401,448.64 L128.6201,447.72 L127.9801,447.27 L127.5201,446.94 C126.7701,446.41 126.0301,445.88 125.2901,445.33 C124.7801,444.96 124.2901,444.59 123.7701,444.21 C123.0201,443.66 122.2801,443.1 121.5401,442.54 C120.8001,441.98 120.1001,441.44 119.3901,440.88 L119.1101,440.67 L117.3001,439.24 L117.1201,439.1 C115.4101,437.73 113.7201,436.33 112.0501,434.92 L110.5701,433.65 C109.3501,432.603333 108.1401,431.533333 106.9401,430.44 C106.5801,430.13 106.2301,429.81 105.8801,429.44 C104.7101,428.38 103.5401,427.3 102.3901,426.2 L100.1401,424 L100.1401,424 C99.4801,423.36 98.8301,422.72 98.1901,422.07 L96.8401,420.7 C96.3901,420.25 95.9501,419.79 95.5001,419.33 C95.4201,419.25 95.3301,419.17 95.2501,419.08 C94.3801,418.18 93.5201,417.27 92.6601,416.35 L92.6601,416.3 C91.8901,415.49 91.1401,414.66 90.3901,413.83 C89.6401,413 88.8901,412.17 88.1601,411.33 C87.4301,410.49 86.5901,409.53 85.8201,408.63 L85.7001,408.49 L83.4501,405.81 L83.3501,405.68 L82.1901,404.26 C81.8001,403.79 81.4201,403.31 81.0401,402.83 C80.3101,401.92 79.5901,401 78.8801,400.08 C78.8101,399.99 78.7401,399.91 78.6801,399.82 C78.0501,399.01 77.4401,398.21 76.8301,397.39 C76.2201,396.57 75.6101,395.77 75.0201,394.94 C74.6901,394.49 74.3601,394.04 74.0201,393.58 C73.5601,392.95 73.1101,392.31 72.6601,391.67 C71.7801,390.43 70.9201,389.17 70.0701,387.91 L70.0701,387.91 L70.0701,387.91 L70.0701,387.91 L69.5301,387.11 L68.9901,386.31 L67.9101,384.66 C67.1301,383.46 66.3601,382.25 65.6001,381.03 C64.9501,380.03 64.3001,378.93 63.6701,377.87 L63.6701,377.79 C63.5701,377.62 63.4701,377.45 63.3601,377.28 C62.7501,376.28 62.1501,375.22 61.5501,374.18 L61.2101,373.59 C60.6701,372.65 60.1501,371.71 59.6201,370.76 C58.8601,369.38 58.1167667,368 57.3901,366.62 C56.9001,365.69 56.3901,364.75 55.9401,363.81 C55.8601,363.66 55.7801,363.52 55.7101,363.37 L55.3701,362.68 C54.8034333,361.54 54.2434333,360.4 53.6901,359.26 C53.3967667,358.673333 53.1167667,358.083333 52.8501,357.49 C52.6201,356.99 52.3801,356.49 52.1601,356 C52.1101,355.9 52.0601,355.81 52.0201,355.71 L52.0201,355.62 L51.9001,355.36 L51.8201,355.19 C51.3301,354.1 50.8201,353 50.3501,351.9 L50.2601,351.69 C49.1534333,349.143333 48.0867667,346.573333 47.0601,343.98 C46.8101,343.34 46.5601,342.71 46.3201,342.07 L45.6001,340.16 C45.3601,339.52 45.1201,338.88 44.8901,338.23 L44.2001,336.3 L44.0001,336 C43.8001,335.42 43.5901,334.83 43.3901,334.24 C43.1901,333.65 42.9801,333.06 42.7901,332.46 C42.6001,331.86 42.4301,331.39 42.2601,330.86 C42.0001,330.06 41.7401,329.25 41.4901,328.44 C41.3601,328.04 41.2401,327.63 41.1101,327.22 C40.9801,326.81 40.8601,326.41 40.7401,326 C40.5401,325.33 40.3401,324.65 40.1501,324 C39.9601,323.35 39.7201,322.52 39.5201,321.79 C39.5156242,321.763521 39.5156242,321.736479 39.5201,321.71 C39.2401,320.71 38.9601,319.71 38.7001,318.71 C38.4401,317.71 38.1301,316.54 37.8701,315.45 C37.7301,314.89 37.5901,314.33 37.4601,313.77 C37.1201,312.396667 36.7867667,311.016667 36.4601,309.63 C36.3001,308.89 36.1401,308.16 35.9901,307.42 C35.8401,306.68 35.7401,306.21 35.6101,305.59 C35.6101,305.59 35.6101,305.59 35.6101,305.59 C35.4601,304.86 35.3201,304.13 35.1801,303.4 C35.0101,302.5 34.8401,301.6 34.6801,300.7 C34.5801,300.14 34.4801,299.57 34.3901,299.01 C34.3001,298.45 34.1601,297.65 34.0501,297.01 C34.0501,296.87 34.0001,296.73 33.9801,296.59 L33.7501,295 C33.6501,294.37 33.5601,293.73 33.4701,293.1 C33.4701,292.84 33.3901,292.59 33.3601,292.33 L33.0601,290.1 C32.9601,289.35 32.8701,288.61 32.7801,287.86 C32.6401,286.79 32.5201,285.71 32.4101,284.63 C32.3401,284.03 32.2801,283.42 32.2201,282.82 L32.0001,280.51 C31.9401,279.81 31.8801,279.12 31.8301,278.42 C31.7501,277.42 31.6701,276.47 31.6101,275.49 C31.5601,274.76 31.5201,274.03 31.4801,273.31 C31.4801,272.79 31.4201,272.31 31.4001,271.76 C31.3534333,270.9 31.3134333,270.04 31.2801,269.18 C31.2801,268.4 31.2201,267.62 31.2001,266.83 C31.1801,266.04 31.2001,265.37 31.1501,264.64 C31.1001,263.91 31.1501,263.46 31.1501,262.87 C31.1501,261.94 31.1501,261.02 31.1501,260.09 C31.1501,133.63 133.6701,31.09 260.1501,31.09 C386.6301,31.09 489.1501,133.62 489.1501,260.09 C489.1501,386.56 386.5601,489.08 260.0901,489.08 Z" id="path-1"></path>
        <filter x="-22.6%" y="-17.8%" width="145.2%" height="145.2%" filterUnits="objectBoundingBox" id="filter-2">
            <feMorphology radius="10" operator="dilate" in="SourceAlpha" result="shadowSpreadOuter1"></feMorphology>
            <feOffset dx="0" dy="25" in="shadowSpreadOuter1" result="shadowOffsetOuter1"></feOffset>
            <feGaussianBlur stdDeviation="25" in="shadowOffsetOuter1" result="shadowBlurOuter1"></feGaussianBlur>
            <feColorMatrix values="0 0 0 0 0   0 0 0 0 0   0 0 0 0 0  0 0 0 0.213395979 0" type="matrix" in="shadowBlurOuter1"></feColorMatrix>
        </filter>
    </defs>
    <g id="High-fi" stroke="none" stroke-width="1" fill="none" fill-rule="evenodd">
        <g id="Group-8" transform="translate(69.000000, 44.000000)" fill-rule="nonzero">
            <g id="Plants" transform="translate(48.700100, 285.600000)">
                <path d="M72.58,85.4 C68.58,121.51 61.91,152.7 55.42,169.06 C52.71,151.69 53.15,119.8 57.2,83.68 C61.25,47.56 67.88,16.34 74.37,1.98951966e-13 C77.07,17.4 76.63,49.26 72.58,85.4 Z" id="Path" fill="#0F6321"></path>
                <path d="M91.53,95.4 C81.53,130.33 69.86,160 60.75,175.05 C60.96,157.48 66.67,126.11 76.65,91.15 C86.63,56.19 98.33,26.51 107.44,11.47 C107.22,29.09 101.51,60.46 91.53,95.4 Z" id="Path" fill="#0F6321"></path>
                <path d="M62.3,87.68 C67.86,123.58 69.64,155.42 67.67,172.91 C60.5,156.86 52.57,125.97 47.01,90.05 C41.45,54.13 39.67,22.26 41.65,4.8 C48.82,20.87 56.75,51.76 62.3,87.68 Z" id="Path" fill="#0F6321"></path>
                <path d="M109.14,118.51 C104.64,154.56 97.63,185.66 90.94,201.94 C88.44,184.54 89.28,152.66 93.78,116.59 C98.28,80.52 105.3,49.4 111.99,33.14 C114.48,50.55 113.64,82.4 109.14,118.51 Z" id="Path" fill="#158130" opacity="0.8"></path>
                <path d="M32.02,84.6 C42.52,119.38 48.73,150.66 49.21,168.25 C39.88,153.36 27.72,123.88 17.21,89.08 C6.7,54.28 0.48,22.98 4.79616347e-13,5.4 C9.3,20.32 21.5,49.8 32.02,84.6 Z" id="Path" fill="#0F6321"></path>
                <path d="M90.48,99.05 C90.08,103.61 89.6133333,108.253333 89.08,112.98 C89.02,113.52 88.96,114.06 88.89,114.59 C88.78,115.59 88.66,116.59 88.54,117.59 C87.54,125.7 86.48,133.53 85.28,140.96 C84.34,146.85 83.34,152.49 82.28,157.83 C81.94,159.563333 81.6066667,161.26 81.28,162.92 C79.1801463,173.651926 76.3230013,184.221691 72.73,194.55 L71.54,193.8 C70.34,184.29 69.95,171.2 70.42,155.86 C70.42,155.86 70.42,155.86 70.42,155.86 C70.42,155.56 70.42,155.26 70.42,154.96 C70.42,154.2 70.48,153.44 70.5,152.67 C70.89,142.67 71.63,131.67 72.75,120.2 C73.0433333,117.246667 73.3566667,114.266667 73.69,111.26 C74.32,105.6 75.02,100.06 75.78,94.68 C75.78,94.38 75.85,94.09 75.9,93.8 C76.97,86.2 78.15,78.92 79.4,72.08 C82.85,53.19 86.88,37.59 90.85,27.58 C91.6327562,33.009347 92.1168181,38.4775771 92.3,43.96 L92.3,43.96 C92.96,58.72 92.38,77.85 90.48,99.05 Z" id="Path" fill="#158130" opacity="0.8"></path>
                <path d="M59.72,185.79 C56.8333333,183.716667 53.99,181.586667 51.19,179.4 C49.93,175.04 48.68,170.34 47.46,165.35 C44.56,153.52 41.8,140.07 39.46,125.67 C39.08,123.37 38.7,121.05 38.34,118.67 C37.09,110.58 36.03,102.67 35.16,95.15 C32.16,69.15 31.44,46.96 32.97,33.42 C36.62,41.6 40.46,53.61 44.08,68.16 C47.6,82.22 50.9,98.65 53.63,116.31 C53.85,117.71 54.06,119.11 54.26,120.5 C54.8533333,124.5 55.3966667,128.403333 55.89,132.21 C56.14,134.21 56.39,136.21 56.62,138.21 C56.85,140.21 57.05,141.95 57.25,143.78 C57.71,148.1 58.12,152.31 58.45,156.37 C58.54,157.48 58.63,158.57 58.71,159.66 C59.39,169.33 59.75,178.15 59.72,185.79 Z" id="Path" fill="#158130" opacity="0.9"></path>
                <path d="M134.56,111.68 C137.66,147.88 137.27,179.76 134.11,197.07 C128.05,180.57 122.24,149.22 119.11,113 C115.98,76.78 116.39,44.87 119.56,27.58 C125.64,44.1 131.45,75.46 134.56,111.68 Z" id="Path" fill="#0F6321"></path>
                <path d="M174.67,232.01 L175.07,232.07 L175.83,232.17 C175.91,231.69 175.98,231.17 176.05,230.69 L176.05,230.69 C176.15,230 176.24,229.29 176.33,228.56 L176.33,228.56 L176.33,228.56 C176.75,225.28 177.09,221.64 177.33,217.69 C177.33,217.69 177.33,217.69 177.33,217.69 L177.33,217.69 L177.33,217.69 C177.52,214.88 177.66,211.92 177.77,208.81 C177.86,206.35 177.91,203.81 177.95,201.17 C177.95,200.17 177.95,199.12 177.95,198.08 L177.95,198.08 C177.95,194.146667 177.913333,190.06 177.84,185.82 L177.84,185.77 C177.76,181.84 177.62,177.77 177.44,173.62 C177.11,166.39 176.63,158.85 175.99,151.1 L175.99,151.1 L175.99,151.1 C175.94,150.47 175.88,149.84 175.83,149.21 C172.73,112.99 166.92,81.63 160.83,65.11 C157.67,82.4 157.28,114.31 160.38,150.53 C160.99,157.67 161.71,164.62 162.52,171.3 C162.52,171.3 162.52,171.3 162.52,171.3 C163.12,176.35 163.78,181.25 164.52,185.97 C164.52,186.33 164.63,186.68 164.68,187.03 L164.68,187.03 C165.32,191.27 165.98,195.36 166.68,199.26 C166.95,200.75 167.21,202.2 167.48,203.62 C167.56,204.06 167.65,204.49 167.73,204.91 L167.73,204.91 C168.44,208.55 169.17,212.01 169.91,215.26 L169.91,215.26 C170.58,218.18 171.27,220.94 171.96,223.52 C172.54,225.68 173.126667,227.71 173.72,229.61 C174,230.47 174.27,231.31 174.54,232.12 L174.67,232.01 Z" id="Path" fill="#0F6321"></path>
                <path d="M192.64,142.54 C191.58,150.26 190.31,158.32 188.84,166.6 L188.09,170.73 C186.74,178.03 185.31,185.09 183.81,191.83 C183.31,194.07 182.81,196.28 182.29,198.44 L182.29,198.44 C182.05,199.44 181.8,200.52 181.55,201.54 C180.19,207.18 178.79,212.54 177.37,217.54 L177.37,217.54 L177.37,217.54 C176.18,221.75 174.98,225.72 173.77,229.42 C173.53,230.19 173.28,230.94 173.03,231.69 C171.79,231.52 170.55,231.32 169.31,231.12 L166.64,230.67 C166.41,230.67 166.19,230.6 165.96,230.55 C166.19,222.91 166.8,214.2 167.78,204.71 L167.78,204.71 L167.93,203.31 C168.06,202.02 168.21,200.7 168.37,199.38 C169.15,192.47 170.13,185.19 171.3,177.67 L171.3,177.67 C171.966667,173.143333 172.733333,168.533333 173.6,163.84 C174.38,159.453333 175.196667,155.146667 176.05,150.92 L176.05,150.92 L176.05,150.92 C182.05,120.75 189.52,95.41 196.12,81.48 C197.3,94.97 196.14,116.87 192.64,142.54 Z" id="Path" fill="#0F6321"></path>
                <path d="M122.76,219.09 C126.002971,209.188278 128.674044,199.108317 130.76,188.9 C130.85,188.46 130.95,188.01 131.04,187.56 C133.04,177.97 134.96,167.37 136.63,156.1 C137.296667,151.486667 137.94,146.773333 138.56,141.96 C143.06,105.88 143.9,74.01 141.41,56.59 C138.27,64.22 135.05,75.14 132.06,88.31 C128.68,103.18 125.59,120.92 123.2,140.04 C123.01,141.58 122.82,143.12 122.64,144.64 C122.42,146.49 122.22,148.33 122.02,150.16 C121.02,159.1 120.31,167.72 119.81,175.83 C119.63,178.703333 119.48,181.51 119.36,184.25 C118.764124,195.467492 118.830907,206.710378 119.56,217.92 L122.76,219.09 Z" id="Path" fill="#158130" opacity="0.8"></path>
                <path d="M91.52,133.28 C95.1,162.79 95.7,188.87 93.62,203.12 C88.19,189.8 82.53,164.33 78.95,134.81 C75.37,105.29 74.76,79.18 76.84,64.95 C82.3,78.29 87.93,103.75 91.52,133.28 Z" id="Path" fill="#1BA538" opacity="0.75"></path>
                <path d="M192.64,142.54 C189.52,150.65 186.42,159.29 183.42,168.29 C183.05,169.4 182.69,170.5 182.33,171.6 C180.76,176.38 179.33,181.04 177.9,185.65 L177.9,185.7 C176.39,190.7 174.99,195.64 173.7,200.39 C173.64,200.6 173.59,200.81 173.53,201.01 L173.53,201.01 C172.196667,205.896667 171.006667,210.6 169.96,215.12 L169.96,215.12 C168.65,220.65 167.54,225.87 166.64,230.72 L169.31,231.17 C170.55,231.37 171.79,231.57 173.03,231.74 L174.59,231.98 L174.67,231.98 C175.22,230.85 175.78,229.71 176.34,228.52 L176.34,228.52 L176.34,228.52 C179.99,220.77 183.78,211.92 187.57,202.26 L187.57,202.26 C191.12,193.2 194.67,183.42 198.08,173.18 C199.82,167.97 201.45,162.83 202.97,157.81 C202.97,157.81 202.97,157.81 202.97,157.81 C211.56,129.61 216.79,104.96 217.62,90.05 C210.45,100.84 201.47,119.57 192.64,142.54 Z" id="Path" fill="#158130" opacity="0.8"></path>
                <path d="M174.67,232.01 L175.07,232.07 C175.4,231.61 175.73,231.16 176.07,230.69 L176.07,230.69 C181.4,223.03 187.29,213.52 193.3,202.78 C196.51,197.05 199.76,190.97 202.97,184.63 C216.42,158.1 225.89,133.79 228.79,119.69 C221.79,127.36 212.65,140.92 203.01,157.8 C203.01,157.8 203.01,157.8 203.01,157.8 C199.27,164.38 195.46,171.46 191.69,178.89 C188.3,185.6 185.14,192.15 182.3,198.4 L182.3,198.4 C181.84,199.4 181.39,200.4 180.95,201.4 C179.85,203.86 178.806667,206.27 177.82,208.63 C175.63,213.82 173.69,218.75 172.02,223.33 C171.02,226.063333 170.12,228.66 169.32,231.12 C170.56,231.32 171.8,231.52 173.04,231.69 L174.6,231.93 L174.67,232.01 Z" id="Path" fill="#1BA538" opacity="0.75"></path>
                <path d="M155.19,157.6 C155.19,158.6 155.19,159.52 155.12,160.48 C154.74,173.2 153.91,185.23 152.76,195.9 C152.51,198.27 152.23,200.57 151.95,202.79 C150.998588,210.8394 149.545765,218.82158 147.6,226.69 C147.04,226.56 146.49,226.42 145.93,226.27 C144.3,217.96 143.14,206.52 142.59,193.15 C142.584759,193.086775 142.584759,193.023225 142.59,192.96 C142.18,182.96 142.12,171.8 142.47,160.1 C142.59,156.1 142.75,152.1 142.96,148.28 C144.27,123.59 147.25,102.62 150.88,90.72 C154.13,104.27 155.89,129.07 155.19,157.6 Z" id="Path" fill="#1BA538" opacity="0.75"></path>
                <path d="M113.15,138.75 C107.93,168.01 100.86,193.12 94.69,206.13 C93.4,191.81 95.46,165.8 100.69,136.53 C105.92,107.26 112.98,82.11 119.15,69.12 C120.43,83.46 118.37,109.47 113.15,138.75 Z" id="Path" fill="#1BA538" opacity="0.75"></path>
            </g>
            <g id="Leaves" transform="translate(81.507361, 384.170000)" fill="#1BA538" opacity="0.8">
                <path d="M24.4927394,18.36 C28.4927394,28.13 27.4927394,38.47 22.8327394,45.72 C14.3927394,43.83 6.49273942,37.14 2.49273942,27.37 C-1.50726058,17.6 -0.507260582,7.25 4.16273942,-8.52651283e-14 C12.5927394,1.88 20.4927394,8.59 24.4927394,18.36 Z" id="Path"></path>
                <path d="M45.6927394,49.06 C35.6927394,57.01 23.5027394,59.72 13.8227394,57.14 C13.5227394,47.14 18.9527394,35.93 29.0127394,27.97 C39.0727394,20.01 51.2227394,17.3 60.9027394,19.89 C61.1827394,29.91 55.7527394,41.1 45.6927394,49.06 Z" id="Path"></path>
                <path d="M149.562739,95.1 C143.562739,102.26 135.302739,106.03 128.112739,105.69 C126.562739,98.69 128.902739,89.93 134.952739,82.77 C141.002739,75.61 149.212739,71.83 156.402739,72.18 C157.942739,79.21 155.602739,87.94 149.562739,95.1 Z" id="Path"></path>
                <path d="M130.492739,74.83 C133.832739,87.2 131.442739,99.45 125.122739,107.36 C115.682739,103.71 107.452739,94.36 104.122739,81.95 C100.792739,69.54 103.122739,57.31 109.492739,49.4 C118.912739,53.1 127.132739,62.48 130.492739,74.83 Z" id="Path"></path>
                <path d="M91.5427394,72.88 C85.6027394,79.88 77.4527394,83.57 70.2827394,83.15 C68.6627394,76.15 70.8927394,67.5 76.8427394,60.46 C82.7927394,53.42 90.9427394,49.76 98.1127394,50.19 C99.7227394,57.19 97.4927394,65.83 91.5427394,72.88 Z" id="Path"></path>
            </g>
            <g id="Shape">
                <use fill="black" fill-opacity="1" filter="url(#filter-2)" xlink:href="#path-1"></use>
                <use fill="#FBFBFB" xlink:href="#path-1"></use>
            </g>
        </g>
    </g>
</svg>