<svg xmlns="http://www.w3.org/2000/svg" viewBox="0 0 166.84 311.65"><defs><style>.cls-1{opacity:0.51;}.cls-2{fill:#c6c6c6;}.cls-3{fill:#a0a0a0;}.cls-4,.cls-5{fill:#5a5b5b;}.cls-5{opacity:0.2;}.cls-6{opacity:0.57;}.cls-7{opacity:0.74;}.cls-8{opacity:0.65;}.cls-9{opacity:0.77;}.cls-10{opacity:0.9;}</style></defs><title>Sea of fish</title><g id="Layer_2" data-name="Layer 2"><g id="Layer_2-2" data-name="Layer 2"><g id="Fish" class="cls-1"><path class="cls-2" d="M50.57,63.43s-8.46,4-12.39,1.59-7.45-5.36-8.54-7.12c3.77.59,9.21-.84,10.89-2.85S50.57,63.43,50.57,63.43Z"/><path class="cls-2" d="M53.19,15.34c1.53.42,4.1,2.57,6.27,5.23,1.16,1.43.76,4.52.14,7.07a34.77,34.77,0,0,1-1.22,3.95.91.91,0,0,1-.16-.08C57,30.94,49.47,27.3,51,25.45a6.54,6.54,0,0,0,.66-1,11.51,11.51,0,0,0,.51-1.11A16.21,16.21,0,0,0,53.19,15.34Z"/><path class="cls-2" d="M25.35,15.4c.64,0,1.29.07,2,.14A67,67,0,0,1,49.2,21.88c1,.46,2,.95,3,1.47,2.46,1.26,4.94,2.69,7.42,4.29a97.52,97.52,0,0,1,9.74,7.15q3.38,2.82,6.35,5.62c1.26,1.17,2.45,2.35,3.59,3.53a83.07,83.07,0,0,1,9.31,11.27,50,50,0,0,1,8.82,22.61A3.56,3.56,0,0,1,93.58,82h-.17a63.82,63.82,0,0,1-20.15-3.35A83,83,0,0,1,47.84,64.52l-2-1.59a81,81,0,0,1-7-6.62C28.39,45.22,22.64,32.75,20.62,22.89c-.14-.63-.25-1.26-.35-1.87A4.89,4.89,0,0,1,25.35,15.4Z"/><path class="cls-2" d="M27.72,16.28,19.1.74a1.44,1.44,0,0,0-2.67.43L14.52,11.23,5,14.92A1.44,1.44,0,0,0,5,17.63l16.83,5.68Z"/><path class="cls-3" d="M80.82,60.08a33.7,33.7,0,0,1,7.77-4.87,50,50,0,0,1,8.82,22.61A3.56,3.56,0,0,1,93.58,82h-.17a63.82,63.82,0,0,1-20.15-3.35C72.7,70.78,75.48,64.67,80.82,60.08Z"/><path class="cls-2" d="M77.31,35.45c1,0,2.43,1.17,3.41,2.85.53.89-.43,3.45-1.44,5.64-.88,1.93-1.81,3.57-1.81,3.57s-5.69-1.34-4-3.35a17.67,17.67,0,0,0,2.24-3.75A17.61,17.61,0,0,0,77.31,35.45Z"/><circle class="cls-4" cx="83.07" cy="73.49" r="1.96"/><path class="cls-5" d="M53.19,15.34c1.53.42,4.1,2.57,6.27,5.23,1.16,1.43.76,4.52.14,7.07a97.52,97.52,0,0,1,9.74,7.15q3.38,2.82,6.35,5.62a17.61,17.61,0,0,0,1.62-5c1,0,2.43,1.17,3.41,2.85.53.89-.43,3.45-1.44,5.64a83.07,83.07,0,0,1,9.31,11.27,50,50,0,0,1,8.82,22.61A3.56,3.56,0,0,1,93.58,82h-.17a175.75,175.75,0,0,0-12.59-21.9,253.35,253.35,0,0,0-22.6-28.57c-2.1-2.31-4.28-4.67-6.55-7L49.2,21.88c1,.46,2,.95,3,1.47A16.21,16.21,0,0,0,53.19,15.34Z"/></g><g id="Fish-2" data-name="Fish" class="cls-6"><path class="cls-2" d="M46.53,130.45s-8.46,4-12.4,1.59-7.45-5.37-8.54-7.12c3.77.58,9.21-.84,10.89-2.85S46.53,130.45,46.53,130.45Z"/><path class="cls-2" d="M49.15,82.36c1.52.42,4.1,2.57,6.26,5.22,1.17,1.44.76,4.53.14,7.08a36.07,36.07,0,0,1-1.21,4l-.17-.08C53,98,45.42,94.31,47,92.46a5.47,5.47,0,0,0,.65-1,9.36,9.36,0,0,0,.52-1.1A16.34,16.34,0,0,0,49.15,82.36Z"/><path class="cls-2" d="M21.3,82.42c.64,0,1.3.07,2,.13A66.75,66.75,0,0,1,45.15,88.9c1,.46,2,.95,3,1.47,2.45,1.26,4.93,2.69,7.41,4.29a96,96,0,0,1,9.74,7.15q3.38,2.82,6.36,5.62c1.25,1.17,2.44,2.34,3.59,3.53a84,84,0,0,1,9.31,11.27,50,50,0,0,1,8.81,22.61A3.56,3.56,0,0,1,89.54,149h-.17a63.73,63.73,0,0,1-20.15-3.35,82.74,82.74,0,0,1-25.42-14.1c-.65-.52-1.31-1-2-1.6a76.69,76.69,0,0,1-7-6.61C24.34,112.23,18.6,99.77,16.57,89.9c-.13-.62-.25-1.25-.35-1.86A4.88,4.88,0,0,1,21.3,82.42Z"/><path class="cls-2" d="M23.67,83.29,15.06,67.76a1.44,1.44,0,0,0-2.68.43l-1.91,10L.92,81.94A1.43,1.43,0,0,0,1,84.64l16.83,5.69Z"/><path class="cls-3" d="M76.77,127.1a33.43,33.43,0,0,1,7.78-4.87,50,50,0,0,1,8.81,22.61A3.56,3.56,0,0,1,89.54,149h-.17a63.73,63.73,0,0,1-20.15-3.35A21.23,21.23,0,0,1,76.77,127.1Z"/><path class="cls-2" d="M73.26,102.47c1,0,2.43,1.17,3.42,2.84.53.89-.44,3.46-1.44,5.65-.89,1.93-1.81,3.57-1.81,3.57s-5.7-1.35-4-3.36a18.45,18.45,0,0,0,2.24-3.74A17.87,17.87,0,0,0,73.26,102.47Z"/><circle class="cls-4" cx="79.02" cy="140.5" r="1.96"/><path class="cls-5" d="M49.15,82.36c1.52.42,4.1,2.57,6.26,5.22,1.17,1.44.76,4.53.14,7.08a96,96,0,0,1,9.74,7.15q3.38,2.82,6.36,5.62a17.87,17.87,0,0,0,1.61-5c1,0,2.43,1.17,3.42,2.84.53.89-.44,3.46-1.44,5.65a84,84,0,0,1,9.31,11.27,50,50,0,0,1,8.81,22.61A3.56,3.56,0,0,1,89.54,149h-.17a177.75,177.75,0,0,0-12.6-21.89,252.46,252.46,0,0,0-22.6-28.57Q51,95,47.62,91.47c-.81-.85-1.63-1.71-2.47-2.57,1,.46,2,.95,3,1.47A16.34,16.34,0,0,0,49.15,82.36Z"/></g><g id="Fish-3" data-name="Fish" class="cls-7"><path class="cls-2" d="M92.15,195.29s-5.07-3.21-5.1-6.17.35-5.87.93-7.06c1,2.24,3.61,4.7,5.27,4.92S92.15,195.29,92.15,195.29Z"/><path class="cls-2" d="M119.09,180.24a10.73,10.73,0,0,1-.69,5.18c-.37,1.12-2.19,2-3.78,2.5a21.88,21.88,0,0,1-2.55.69s0,0,0-.11c-.11-.86-.71-6.18.82-6a3.82,3.82,0,0,0,.76,0,5.56,5.56,0,0,0,.78-.1A10.37,10.37,0,0,0,119.09,180.24Z"/><path class="cls-2" d="M109.52,165.18q.32.54.6,1.11a42.68,42.68,0,0,1,4.06,14c.09.69.16,1.39.23,2.11.15,1.77.23,3.6.21,5.49a61.1,61.1,0,0,1-.53,7.72q-.37,2.79-.87,5.37c-.21,1.08-.43,2.12-.68,3.15a53.69,53.69,0,0,1-2.92,8.9,31.91,31.91,0,0,1-9.22,12.51,2.28,2.28,0,0,1-3.56-.64l-.06-.09a40.85,40.85,0,0,1-5.09-12.06,53.08,53.08,0,0,1-1.06-18.6c.06-.53.12-1.06.19-1.6A51.36,51.36,0,0,1,92,186.51a45.86,45.86,0,0,1,11.86-21.33c.29-.28.59-.56.89-.82A3.12,3.12,0,0,1,109.52,165.18Z"/><path class="cls-2" d="M109.86,166.76l5.46-10a.92.92,0,0,0-1.15-1.3l-6.1,2.41L102.8,154a.92.92,0,0,0-1.44,1L104,166Z"/><path class="cls-3" d="M104.32,210.52a21.19,21.19,0,0,1,5.3,2.54,31.91,31.91,0,0,1-9.22,12.51,2.28,2.28,0,0,1-3.56-.64l-.06-.09a40.85,40.85,0,0,1-5.09-12.06A13.59,13.59,0,0,1,104.32,210.52Z"/><path class="cls-2" d="M116.46,200.18a3.3,3.3,0,0,1-.37,2.83c-.31.59-2,.94-3.55,1.15-1.35.18-2.55.24-2.55.24s-1.23-3.54.43-3.32a11.7,11.7,0,0,0,2.8-.07A11.34,11.34,0,0,0,116.46,200.18Z"/><circle class="cls-4" cx="97.83" cy="216.33" r="1.26"/><path class="cls-5" d="M119.09,180.24a10.73,10.73,0,0,1-.69,5.18c-.37,1.12-2.19,2-3.78,2.5a61.1,61.1,0,0,1-.53,7.72q-.37,2.79-.87,5.37a11.34,11.34,0,0,0,3.24-.83,3.3,3.3,0,0,1-.37,2.83c-.31.59-2,.94-3.55,1.15a53.69,53.69,0,0,1-2.92,8.9,31.91,31.91,0,0,1-9.22,12.51,2.28,2.28,0,0,1-3.56-.64l-.06-.09a114.25,114.25,0,0,0,7.54-14.32,160.57,160.57,0,0,0,7.73-22q.81-2.9,1.58-6c.18-.73.37-1.47.55-2.21.09.69.16,1.39.23,2.11A10.37,10.37,0,0,0,119.09,180.24Z"/></g><g id="Fish-4" data-name="Fish" class="cls-8"><path class="cls-2" d="M127.65,134.45s-9.22-1.67-11-5.94-2.93-8.71-2.79-10.77c2.72,2.68,8,4.7,10.51,4S127.65,134.45,127.65,134.45Z"/><path class="cls-2" d="M157.83,96.92c1,1.23,1.84,4.48,2,7.9.12,1.84-2,4.12-4,5.83a35.53,35.53,0,0,1-3.29,2.5.83.83,0,0,1-.09-.16c-.66-1.18-4.64-8.53-2.31-9.13a6,6,0,0,0,1.11-.43,11.49,11.49,0,0,0,1.06-.59A16.25,16.25,0,0,0,157.83,96.92Z"/><path class="cls-2" d="M135.19,80.72c.5.4,1,.82,1.52,1.26A66.91,66.91,0,0,1,150.77,99.9c.54.95,1.06,1.93,1.57,2.94a85.15,85.15,0,0,1,3.52,7.81,96.09,96.09,0,0,1,3.74,11.49c.73,2.84,1.36,5.59,1.88,8.27.33,1.68.62,3.33.86,5a84.07,84.07,0,0,1,1,14.59,50,50,0,0,1-6,23.5,3.56,3.56,0,0,1-5.53,1.14l-.14-.09A63.85,63.85,0,0,1,137.21,160a82.87,82.87,0,0,1-12.41-26.29c-.23-.8-.45-1.61-.67-2.44a81.62,81.62,0,0,1-1.84-9.46c-2-15.13.58-28.6,4.69-37.8.26-.59.53-1.16.8-1.71A4.89,4.89,0,0,1,135.19,80.72Z"/><path class="cls-2" d="M136.6,82.82l2.07-17.65A1.44,1.44,0,0,0,136.25,64L128.83,71l-9.91-2.57a1.44,1.44,0,0,0-1.54,2.23l10.36,14.44Z"/><path class="cls-3" d="M154.17,149.38a33.26,33.26,0,0,1,9.15.58,50,50,0,0,1-6,23.5,3.56,3.56,0,0,1-5.53,1.14l-.14-.09A63.85,63.85,0,0,1,137.21,160,21.21,21.21,0,0,1,154.17,149.38Z"/><path class="cls-2" d="M165.69,127.32c.83.6,1.29,2.37,1.11,4.31-.09,1-2.37,2.55-4.46,3.74-1.85,1-3.55,1.84-3.55,1.84s-3.85-4.41-1.31-5.06a18.31,18.31,0,0,0,4-1.74A17.72,17.72,0,0,0,165.69,127.32Z"/><circle class="cls-4" cx="148.17" cy="161.57" r="1.96"/><path class="cls-5" d="M157.83,96.92c1,1.23,1.84,4.48,2,7.9.12,1.84-2,4.12-4,5.83a96.09,96.09,0,0,1,3.74,11.49c.73,2.84,1.36,5.59,1.88,8.27a17.72,17.72,0,0,0,4.21-3.09c.83.6,1.29,2.37,1.11,4.31-.09,1-2.37,2.55-4.46,3.74a84.07,84.07,0,0,1,1,14.59,50,50,0,0,1-6,23.5,3.56,3.56,0,0,1-5.53,1.14l-.14-.09a178.42,178.42,0,0,0,2.55-25.13A253,253,0,0,0,152.48,113c-.35-3.11-.75-6.29-1.2-9.56-.17-1.16-.33-2.34-.51-3.53.54.95,1.06,1.93,1.57,2.94A16.25,16.25,0,0,0,157.83,96.92Z"/></g><g id="Fish-5" data-name="Fish" class="cls-9"><path class="cls-2" d="M126.33,241.46s-4.94-3.4-4.86-6.37.59-5.85,1.22-7c.88,2.28,3.41,4.85,5.07,5.13S126.33,241.46,126.33,241.46Z"/><path class="cls-2" d="M153.85,227.51a10.76,10.76,0,0,1-.89,5.15c-.43,1.11-2.27,1.87-3.89,2.35a23.14,23.14,0,0,1-2.58.59,1.09,1.09,0,0,0,0-.12c-.07-.86-.46-6.2,1.06-5.94a4.55,4.55,0,0,0,.76.05c.25,0,.51,0,.78-.07A10.43,10.43,0,0,0,153.85,227.51Z"/><path class="cls-2" d="M144.9,212.08c.19.37.37.74.55,1.14a42.84,42.84,0,0,1,3.49,14.17c.06.7.11,1.41.14,2.13a53,53,0,0,1,0,5.49,60.58,60.58,0,0,1-.84,7.69q-.48,2.78-1.09,5.33c-.24,1.07-.51,2.11-.8,3.12a53.67,53.67,0,0,1-3.28,8.78,32,32,0,0,1-9.72,12.13,2.29,2.29,0,0,1-3.53-.79l-.05-.1a40.67,40.67,0,0,1-4.6-12.25,53.12,53.12,0,0,1-.31-18.62c.08-.53.16-1.06.25-1.6a51.76,51.76,0,0,1,1.42-6,45.83,45.83,0,0,1,12.71-20.84c.3-.27.61-.54.92-.78A3.13,3.13,0,0,1,144.9,212.08Z"/><path class="cls-2" d="M145.17,213.68l5.86-9.76a.93.93,0,0,0-1.1-1.35l-6.19,2.16-5.11-4.11a.92.92,0,0,0-1.48.9l2.24,11.16Z"/><path class="cls-3" d="M137.87,257.17a20.92,20.92,0,0,1,5.19,2.76,32,32,0,0,1-9.72,12.13,2.29,2.29,0,0,1-3.53-.79l-.05-.1a40.67,40.67,0,0,1-4.6-12.25A13.61,13.61,0,0,1,137.87,257.17Z"/><path class="cls-2" d="M150.42,247.33a3.34,3.34,0,0,1-.49,2.81c-.33.58-2.06.87-3.59,1-1.36.13-2.56.14-2.56.14s-1.08-3.59.57-3.31a11.52,11.52,0,0,0,2.79.05A11.34,11.34,0,0,0,150.42,247.33Z"/><circle class="cls-4" cx="131.15" cy="262.71" r="1.26"/><path class="cls-5" d="M153.85,227.51a10.76,10.76,0,0,1-.89,5.15c-.43,1.11-2.27,1.87-3.89,2.35a60.58,60.58,0,0,1-.84,7.69q-.48,2.78-1.09,5.33a11.34,11.34,0,0,0,3.28-.7,3.34,3.34,0,0,1-.49,2.81c-.33.58-2.06.87-3.59,1a53.67,53.67,0,0,1-3.28,8.78,32,32,0,0,1-9.72,12.13,2.29,2.29,0,0,1-3.53-.79l-.05-.1a113.37,113.37,0,0,0,8.11-14,160.14,160.14,0,0,0,8.61-21.69c.62-1.9,1.23-3.87,1.82-5.89.21-.73.43-1.46.64-2.2.06.7.11,1.41.14,2.13A10.43,10.43,0,0,0,153.85,227.51Z"/></g><g id="Fish-6" data-name="Fish" class="cls-10"><path class="cls-2" d="M76.11,280.13s-3.81-4.64-2.92-7.46,2.18-5.47,3.1-6.42c.22,2.44,1.95,5.6,3.46,6.33S76.11,280.13,76.11,280.13Z"/><path class="cls-2" d="M106.4,274.27c0,1-1,3-2.27,4.71-.71.94-2.69,1.17-4.37,1.18a22.82,22.82,0,0,1-2.65-.14l0-.11c.16-.85,1.26-6.09,2.65-5.42a3.92,3.92,0,0,0,.71.25c.24.06.5.11.77.15A10.37,10.37,0,0,0,106.4,274.27Z"/><path class="cls-2" d="M102,257c.08.41.15.82.22,1.25a42.71,42.71,0,0,1-.54,14.58c-.13.69-.28,1.38-.45,2.09q-.6,2.58-1.51,5.27a61.51,61.51,0,0,1-2.93,7.17q-1.23,2.54-2.5,4.82c-.54,1-1.08,1.89-1.64,2.78a53.84,53.84,0,0,1-5.55,7.55,32.08,32.08,0,0,1-12.68,9,2.28,2.28,0,0,1-3.18-1.73l0-.1a41.09,41.09,0,0,1-1-13.05,53.05,53.05,0,0,1,4.81-18c.22-.49.45-1,.68-1.47a52.33,52.33,0,0,1,3-5.39A45.69,45.69,0,0,1,96.65,255.2l1.1-.51A3.13,3.13,0,0,1,102,257Z"/><path class="cls-2" d="M101.86,258.58l8.31-7.77a.93.93,0,0,0-.68-1.6l-6.55.38-3.78-5.36a.92.92,0,0,0-1.67.46L96.58,256Z"/><path class="cls-3" d="M82.9,298.4a21.63,21.63,0,0,1,4.24,4.08,32.08,32.08,0,0,1-12.68,9,2.28,2.28,0,0,1-3.18-1.73l0-.1a41.09,41.09,0,0,1-1-13.05A13.6,13.6,0,0,1,82.9,298.4Z"/><path class="cls-2" d="M97.66,292.39A3.28,3.28,0,0,1,96.42,295c-.47.47-2.21.27-3.73,0-1.33-.25-2.5-.57-2.5-.57s0-3.74,1.46-3a11.88,11.88,0,0,0,2.68.8A11.23,11.23,0,0,0,97.66,292.39Z"/><circle class="cls-4" cx="74.92" cy="301.88" r="1.26"/><path class="cls-5" d="M106.4,274.27c0,1-1,3-2.27,4.71-.71.94-2.69,1.17-4.37,1.18a61.51,61.51,0,0,1-2.93,7.17q-1.23,2.54-2.5,4.82a11.23,11.23,0,0,0,3.33.24A3.28,3.28,0,0,1,96.42,295c-.47.47-2.21.27-3.73,0a53.84,53.84,0,0,1-5.55,7.55,32.08,32.08,0,0,1-12.68,9,2.28,2.28,0,0,1-3.18-1.73l0-.1A113.34,113.34,0,0,0,82.9,298.4a162.45,162.45,0,0,0,14.24-18.49c1.11-1.67,2.24-3.39,3.36-5.17.41-.64.81-1.28,1.22-1.94-.13.69-.28,1.38-.45,2.09A10.37,10.37,0,0,0,106.4,274.27Z"/></g></g></g></svg>