<svg xmlns="http://www.w3.org/2000/svg" viewBox="0 0 40.4 67.82"><defs><style>.cls-1{opacity:0.9;}.cls-2{fill:#c6c6c6;}.cls-3{fill:#a0a0a0;}.cls-4,.cls-5{fill:#5a5b5b;}.cls-5{opacity:0.2;}</style></defs><title>Single fish</title><g id="Layer_2" data-name="Layer 2"><g id="Layer_2-2" data-name="Layer 2"><g id="Fish" class="cls-1"><path class="cls-2" d="M6,36.29s-3.81-4.64-2.92-7.46,2.17-5.47,3.1-6.42c.22,2.44,2,5.6,3.46,6.33S6,36.29,6,36.29Z"/><path class="cls-2" d="M36.33,30.43c0,1-1,3-2.27,4.71-.71.94-2.69,1.17-4.37,1.18A22.82,22.82,0,0,1,27,36.18s0,0,0-.11c.17-.85,1.26-6.09,2.65-5.42a4,4,0,0,0,.72.25c.24.06.5.11.77.15A10.37,10.37,0,0,0,36.33,30.43Z"/><path class="cls-2" d="M32,13.14c.09.4.16.81.22,1.24A42.68,42.68,0,0,1,31.65,29c-.13.69-.28,1.39-.45,2.09-.4,1.72-.91,3.48-1.51,5.27a61.51,61.51,0,0,1-2.93,7.17c-.82,1.69-1.65,3.3-2.51,4.82-.53,1-1.07,1.89-1.63,2.78a53.1,53.1,0,0,1-5.56,7.55,32,32,0,0,1-12.67,9A2.28,2.28,0,0,1,1.21,65.9l0-.1a40.8,40.8,0,0,1-1-13,52.82,52.82,0,0,1,4.81-18c.22-.49.45-1,.68-1.47a52.33,52.33,0,0,1,3-5.39A45.74,45.74,0,0,1,26.57,11.36l1.11-.51A3.13,3.13,0,0,1,32,13.14Z"/><path class="cls-2" d="M31.79,14.74,40.1,7a.92.92,0,0,0-.68-1.59l-6.55.37L29.09.39a.92.92,0,0,0-1.67.46L26.5,12.19Z"/><path class="cls-3" d="M12.83,54.56a21.31,21.31,0,0,1,4.23,4.08,32,32,0,0,1-12.67,9A2.28,2.28,0,0,1,1.21,65.9l0-.1a40.8,40.8,0,0,1-1-13A13.6,13.6,0,0,1,12.83,54.56Z"/><path class="cls-2" d="M27.59,48.55a3.28,3.28,0,0,1-1.24,2.56c-.47.47-2.21.27-3.73,0-1.34-.24-2.5-.56-2.5-.56s-.05-3.75,1.46-3a12,12,0,0,0,2.67.8A11.31,11.31,0,0,0,27.59,48.55Z"/><circle class="cls-4" cx="4.85" cy="58.05" r="1.26"/><path class="cls-5" d="M36.33,30.43c0,1-1,3-2.27,4.71-.71.94-2.69,1.17-4.37,1.18a61.51,61.51,0,0,1-2.93,7.17c-.82,1.69-1.65,3.3-2.51,4.82a11.31,11.31,0,0,0,3.34.24,3.28,3.28,0,0,1-1.24,2.56c-.47.47-2.21.27-3.73,0a53.1,53.1,0,0,1-5.56,7.55,32,32,0,0,1-12.67,9A2.28,2.28,0,0,1,1.21,65.9l0-.1A114.37,114.37,0,0,0,12.83,54.56,161.3,161.3,0,0,0,27.06,36.07c1.12-1.66,2.24-3.39,3.37-5.17L31.65,29c-.13.69-.28,1.39-.45,2.09A10.37,10.37,0,0,0,36.33,30.43Z"/></g></g></g></svg>