<svg xmlns="http://www.w3.org/2000/svg" viewBox="0 0 156.89 107.4"><defs><style>.cls-1{fill:#1ba538;opacity:0.8;}</style></defs><title>Small leaves</title><g id="Layer_2" data-name="Layer 2"><g id="Layer_2-2" data-name="Layer 2"><path class="cls-1" d="M24.53,18.36c4,9.76,3,20.1-1.67,27.36C14.42,43.85,6.5,37.13,2.51,27.36S-.55,7.25,4.17,0C12.62,1.87,20.54,8.59,24.53,18.36Z"/><path class="cls-1" d="M45.72,49.05c-10.06,8-22.2,10.67-31.88,8.08C13.55,47.12,19,35.93,29,28s22.2-10.67,31.88-8.08C61.21,29.91,55.78,41.09,45.72,49.05Z"/><path class="cls-1" d="M149.59,95.1c-6.05,7.16-14.26,10.93-21.45,10.59-1.55-7,.79-15.76,6.83-22.92s14.27-10.94,21.46-10.59C158,79.21,155.63,87.94,149.59,95.1Z"/><path class="cls-1" d="M130.51,74.86c3.34,12.38,1,24.63-5.37,32.54-9.45-3.65-17.67-13-21-25.41s-1-24.64,5.37-32.55C118.94,53.1,127.16,62.48,130.51,74.86Z"/><path class="cls-1" d="M91.57,72.87c-5.94,7-14.09,10.69-21.26,10.28-1.63-7,.61-15.65,6.55-22.69S91,49.76,98.13,50.18C99.75,57.18,97.52,65.83,91.57,72.87Z"/></g></g></svg>