<svg id="Layer_1" data-name="Layer 1" xmlns="http://www.w3.org/2000/svg" viewBox="0 0 583.08 632.99"><defs><style>.cls-1,.cls-2,.cls-3,.cls-4,.cls-5,.cls-6,.cls-7,.cls-8,.cls-9{fill:none;}.cls-1,.cls-3,.cls-4,.cls-5,.cls-6,.cls-7,.cls-8,.cls-9{stroke:#00d4e8;}.cls-1,.cls-3,.cls-5,.cls-8{stroke-linecap:round;}.cls-1,.cls-9{stroke-width:4px;}.cls-2{fill-rule:evenodd;}.cls-3{stroke-width:6px;}.cls-4{stroke-width:5px;}.cls-5{stroke-width:10px;}.cls-6{stroke-width:7px;}.cls-7,.cls-8{stroke-width:3px;}</style></defs><title>Space ring(update)</title><g id="High-fi"><g id="Project-with-subscription"><g id="Space-ring"><path id="Stroke-1" class="cls-1" d="M350.64,523.8a114.52,114.52,0,1,1,87.59-88.91" transform="translate(-10.7 -96.64)"/><g id="Stroke-3"><path id="path-1" class="cls-2" d="M296.4,273.49a143.31,143.31,0,0,1,30.86-3.26c78.8.17,142.52,63.85,142.35,142.23s-64.2,141.77-143,141.6S184.11,490.2,184.29,411.82a141,141,0,0,1,3-28.59" transform="translate(-10.7 -96.64)"/><path class="cls-3" d="M296.4,273.49a143.31,143.31,0,0,1,30.86-3.26c78.8.17,142.52,63.85,142.35,142.23s-64.2,141.77-143,141.6S184.11,490.2,184.29,411.82a141,141,0,0,1,3-28.59" transform="translate(-10.7 -96.64)"/></g><path id="Stroke-5" class="cls-4" d="M503.87,412.51a177.3,177.3,0,1,1-177.3-177.3A177.29,177.29,0,0,1,503.87,412.51Z" transform="translate(-10.7 -96.64)"/><g id="Stroke-7"><path id="path-3" class="cls-2" d="M411.5,657.75a259.17,259.17,0,0,1-84.33,14c-143.1,0-259.1-115.79-259.1-258.64a257.88,257.88,0,0,1,90.66-196.53" transform="translate(-10.7 -96.64)"/><path class="cls-5" d="M411.5,657.75a259.17,259.17,0,0,1-84.33,14c-143.1,0-259.1-115.79-259.1-258.64a257.88,257.88,0,0,1,90.66-196.53" transform="translate(-10.7 -96.64)"/></g><g id="Stroke-9"><path id="path-5" class="cls-2" d="M293.8,156a261.94,261.94,0,0,1,32.49-2c142.92,0,258.78,115.73,258.78,258.5a257.6,257.6,0,0,1-80.89,187.73" transform="translate(-10.7 -96.64)"/><path class="cls-6" d="M293.8,156a261.94,261.94,0,0,1,32.49-2c142.92,0,258.78,115.73,258.78,258.5a257.6,257.6,0,0,1-80.89,187.73" transform="translate(-10.7 -96.64)"/></g><path id="Stroke-11" class="cls-7" d="M537.18,346.84a219,219,0,0,1,9.9,65.3c0,121.17-98.39,219.39-219.76,219.39S107.56,533.31,107.56,412.14,206,192.75,327.32,192.75a219.18,219.18,0,0,1,152.08,61" transform="translate(-10.7 -96.64)"/><path id="Stroke-13" class="cls-8" d="M14.16,449a318.61,318.61,0,0,1-2-35.41C12.2,239.38,153,98.14,326.57,98.14" transform="translate(-10.7 -96.64)"/><path id="Stroke-15" class="cls-7" d="M17,473.6q-1.59-7-2.79-14.15" transform="translate(-10.7 -96.64)"/><path id="Stroke-17" class="cls-7" d="M25.27,503.4q-2.44-7-4.54-14.16" transform="translate(-10.7 -96.64)"/><path id="Stroke-19" class="cls-7" d="M36,531c-1.83-4.17-3.57-8.4-5.22-12.66" transform="translate(-10.7 -96.64)"/><path id="Stroke-21" class="cls-7" d="M46.47,554.06q-3.12-6.63-6-13.41" transform="translate(-10.7 -96.64)"/><path id="Stroke-23" class="cls-8" d="M185,693.36a317,317,0,0,1-77.47-55.87" transform="translate(-10.7 -96.64)"/><path id="Stroke-25" class="cls-1" d="M591.78,583.11c-56.2,87-153.94,144.52-265.11,144.52A319.78,319.78,0,0,1,285.6,725" transform="translate(-10.7 -96.64)"/><path id="Stroke-29" class="cls-9" d="M411.5,109.31a308.66,308.66,0,0,1,81.94,36.51" transform="translate(-10.7 -96.64)"/><g id="Stroke-31"><path id="path-7" class="cls-2" d="M296,274,254.91,106.19" transform="translate(-10.7 -96.64)"/><path class="cls-4" d="M296,274,254.91,106.19" transform="translate(-10.7 -96.64)"/></g></g></g></g></svg>