<?xml version="1.0" encoding="UTF-8"?>
<svg width="615px" height="849px" viewBox="0 0 615 849" version="1.1" xmlns="http://www.w3.org/2000/svg" xmlns:xlink="http://www.w3.org/1999/xlink">
    <!-- Generator: Sketch 55.1 (78136) - https://sketchapp.com -->
    <title>Space ring</title>
    <desc>Created with Sketch.</desc>
    <defs>
        <path d="M381.493714,235.37594 C394.836776,232.480462 408.69939,230.971055 422.928053,231 C528.692479,231.235348 614.235673,316.71949 614,421.925773 C613.757448,527.137929 527.830494,612.234442 422.066068,612 C316.301642,611.758714 230.758448,526.280445 231,421.074162 C231.030033,407.918238 232.393859,395.079465 234.973911,382.687054" id="path-1"></path>
        <filter x="-4.7%" y="-4.7%" width="109.4%" height="109.4%" filterUnits="objectBoundingBox" id="filter-2">
            <feMorphology radius="4.5" operator="dilate" in="SourceAlpha" result="shadowSpreadOuter1"></feMorphology>
            <feOffset dx="0" dy="0" in="shadowSpreadOuter1" result="shadowOffsetOuter1"></feOffset>
            <feMorphology radius="4.5" operator="erode" in="SourceAlpha" result="shadowInner"></feMorphology>
            <feOffset dx="0" dy="0" in="shadowInner" result="shadowInner"></feOffset>
            <feComposite in="shadowOffsetOuter1" in2="shadowInner" operator="out" result="shadowOffsetOuter1"></feComposite>
            <feGaussianBlur stdDeviation="4" in="shadowOffsetOuter1" result="shadowBlurOuter1"></feGaussianBlur>
            <feColorMatrix values="0 0 0 0 1   0 0 0 0 1   0 0 0 0 1  0 0 0 0.509451486 0" type="matrix" in="shadowBlurOuter1"></feColorMatrix>
        </filter>
        <path d="M536,751.196464 C500.510763,763.382523 462.430079,770 422.796888,770 C230.711095,770 75,614.562939 75,422.815196 C75,317.241976 122.200922,222.676279 196.691722,159" id="path-3"></path>
        <filter x="-3.9%" y="-3.3%" width="108.1%" height="106.3%" filterUnits="objectBoundingBox" id="filter-4">
            <feMorphology radius="5.5" operator="dilate" in="SourceAlpha" result="shadowSpreadOuter1"></feMorphology>
            <feOffset dx="0" dy="0" in="shadowSpreadOuter1" result="shadowOffsetOuter1"></feOffset>
            <feMorphology radius="5.5" operator="erode" in="SourceAlpha" result="shadowInner"></feMorphology>
            <feOffset dx="0" dy="0" in="shadowInner" result="shadowInner"></feOffset>
            <feComposite in="shadowOffsetOuter1" in2="shadowInner" operator="out" result="shadowOffsetOuter1"></feComposite>
            <feGaussianBlur stdDeviation="4" in="shadowOffsetOuter1" result="shadowBlurOuter1"></feGaussianBlur>
            <feColorMatrix values="0 0 0 0 1   0 0 0 0 1   0 0 0 0 1  0 0 0 0.482162369 0" type="matrix" in="shadowBlurOuter1"></feColorMatrix>
        </filter>
        <path d="M378,77.7091015 C392.29172,75.9187388 406.854653,75 421.623943,75 C613.471418,75 769,230.3493 769,421.988782 C769,521.236125 727.286337,610.75426 660.414765,674" id="path-5"></path>
        <filter x="-4.3%" y="-2.8%" width="108.6%" height="105.8%" filterUnits="objectBoundingBox" id="filter-6">
            <feMorphology radius="4" operator="dilate" in="SourceAlpha" result="shadowSpreadOuter1"></feMorphology>
            <feOffset dx="0" dy="0" in="shadowSpreadOuter1" result="shadowOffsetOuter1"></feOffset>
            <feMorphology radius="4" operator="erode" in="SourceAlpha" result="shadowInner"></feMorphology>
            <feOffset dx="0" dy="0" in="shadowInner" result="shadowInner"></feOffset>
            <feComposite in="shadowOffsetOuter1" in2="shadowInner" operator="out" result="shadowOffsetOuter1"></feComposite>
            <feGaussianBlur stdDeviation="4" in="shadowOffsetOuter1" result="shadowBlurOuter1"></feGaussianBlur>
            <feColorMatrix values="0 0 0 0 1   0 0 0 0 1   0 0 0 0 1  0 0 0 0.59336757 0" type="matrix" in="shadowBlurOuter1"></feColorMatrix>
        </filter>
        <path d="M381,236 L325.8,10.8071429" id="path-7"></path>
        <filter x="-27.4%" y="-6.8%" width="156.2%" height="113.9%" filterUnits="objectBoundingBox" id="filter-8">
            <feMorphology radius="3" operator="dilate" in="SourceAlpha" result="shadowSpreadOuter1"></feMorphology>
            <feOffset dx="0" dy="0" in="shadowSpreadOuter1" result="shadowOffsetOuter1"></feOffset>
            <feMorphology radius="3" operator="erode" in="SourceAlpha" result="shadowInner"></feMorphology>
            <feOffset dx="0" dy="0" in="shadowInner" result="shadowInner"></feOffset>
            <feComposite in="shadowOffsetOuter1" in2="shadowInner" operator="out" result="shadowOffsetOuter1"></feComposite>
            <feGaussianBlur stdDeviation="4" in="shadowOffsetOuter1" result="shadowBlurOuter1"></feGaussianBlur>
            <feColorMatrix values="0 0 0 0 1   0 0 0 0 1   0 0 0 0 1  0 0 0 0.457878059 0" type="matrix" in="shadowBlurOuter1"></feColorMatrix>
        </filter>
    </defs>
    <g id="High-fi" stroke="none" stroke-width="1" fill="none" fill-rule="evenodd">
        <g id="Project-with-subscription" transform="translate(-825.000000, -658.000000)">
            <g id="Space-ring" transform="translate(827.000000, 660.000000)">
                <path d="M454.312057,571.382895 C443.583848,573.74928 432.432853,575 421,575 C335.949439,575 267,506.051875 267,420.997064 C267,335.948125 335.949439,267 421,267 C506.056433,267 575,335.948125 575,420.997064 C575,431.631117 573.925418,442.006806 571.876077,452.036051" id="Stroke-1" stroke="#00D4E8" stroke-width="4" stroke-linecap="round"></path>
                <g id="Stroke-3" stroke-linecap="round">
                    <use fill="black" fill-opacity="1" filter="url(#filter-2)" xlink:href="#path-1"></use>
                    <use stroke="#00D4E8" stroke-width="6" xlink:href="#path-1"></use>
                </g>
                <path d="M660,422 C660,553.446519 553.440642,660 422,660 C290.553481,660 184,553.446519 184,422 C184,290.553481 290.553481,184 422,184 C553.440642,184 660,290.553481 660,422 Z" id="Stroke-5" stroke="#00D4E8" stroke-width="5"></path>
                <g id="Stroke-7" stroke-linecap="round">
                    <use fill="black" fill-opacity="1" filter="url(#filter-4)" xlink:href="#path-3"></use>
                    <use stroke="#00D4E8" stroke-width="10" xlink:href="#path-3"></use>
                </g>
                <g id="Stroke-9">
                    <use fill="black" fill-opacity="1" filter="url(#filter-6)" xlink:href="#path-5"></use>
                    <use stroke="#00D4E8" stroke-width="7" xlink:href="#path-5"></use>
                </g>
                <path d="M704.707433,333.83913 C713.344947,361.52802 718,390.97213 718,421.5 C718,584.15235 585.923921,716 423.00295,716 C260.081979,716 128,584.15235 128,421.5 C128,258.85354 260.081979,127 423.00295,127 C502.221458,127 574.147639,158.17577 627.146809,208.91223" id="Stroke-11" stroke="#00D4E8" stroke-width="3"></path>
                <path d="M2.62480999,471 C0.888668852,455.396855 0,439.539761 0,423.475963 C0,189.60006 188.933352,0 422,0" id="Stroke-13" stroke="#00D4E8" stroke-width="3" stroke-linecap="round"></path>
                <path d="M6.376,504 C4.948,497.712602 3.702,491.379269 2.624,485" id="Stroke-15" stroke="#00D4E8" stroke-width="3"></path>
                <path d="M17.545,544 C15.354,537.728271 13.317,531.390963 11.455,525" id="Stroke-17" stroke="#00D4E8" stroke-width="3"></path>
                <path d="M32,581 C29.5431755,575.393108 27.2098422,569.720464 25,564" id="Stroke-19" stroke="#00D4E8" stroke-width="3"></path>
                <path d="M46,612 C43.2064381,606.078471 40.5416375,600.072435 38,594" id="Stroke-21" stroke="#00D4E8" stroke-width="3"></path>
                <path d="M232,799 C193.605374,779.337257 158.573608,753.971365 128,724" id="Stroke-23" stroke="#00D4E8" stroke-width="3" stroke-linecap="round"></path>
                <path d="M778,651 C702.565534,767.739386 571.360007,845 422.127231,845 C403.444339,845 385.044969,843.781994 367,841.434671" id="Stroke-25" stroke="#00D4E8" stroke-width="4" stroke-linecap="round"></path>
                <path d="M536,15 C575.290299,25.9943455 612.25842,42.6302936 646,64" id="Stroke-29" stroke="#00D4E8" stroke-width="4"></path>
                <g id="Stroke-31">
                    <use fill="black" fill-opacity="1" filter="url(#filter-8)" xlink:href="#path-7"></use>
                    <use stroke="#00D4E8" stroke-width="5" xlink:href="#path-7"></use>
                </g>
            </g>
        </g>
    </g>
</svg>